<?xml version="1.0" encoding="UTF-8"?>
<svg id="Layer_2" data-name="Layer 2" xmlns="http://www.w3.org/2000/svg" viewBox="0 0 1651 620.05">
  <defs>
    <style>
      .cls-1 {
        fill: #fff;
      }

      .cls-2 {
        fill: #1379be;
      }
    </style>
  </defs>
  <g id="Layer_1-2" data-name="Layer 1">
    <g>
      <path class="cls-2" d="M272.45,111.56c21.41,28.55,34.86,80.96,55.6,111.89l.33,8.43-126.48,382.32-3.56,5.85h-63.66s-49.3-149.11-49.3-149.11l122.97-123.18.65-210.03,60.59-29.73c2.28-.05,1.94,2.33,2.86,3.55Z"/>
      <polygon class="cls-1" points="199 27 199 342.5 3.63 538.59 0 539.99 199 27"/>
      <path class="cls-1" d="M1393,138c21.4-1.44,43.06-2.75,64.55-2.05,39.7,1.3,61.01,3.77,64.43,48.57,1.77,23.18,3.09,58.34-23.99,65.98,13.32,3.2,19.37,13.94,20.87,27.15,3.42,30.11-1.68,66.7-.85,97.35h-49.5l-1.5-1.5v-97c0-8.1-13.51-11.16-20-9.5v106.5l-1.5,1.5h-49c-.56,0-2.24-1.52-3.5-1v-236ZM1447,181v44h14.5c10.69,0,12.48-32.69,5.21-39.7-5.74-5.53-12.32-4.35-19.71-4.3Z"/>
      <path class="cls-2" d="M832,138.5c1.09-1.8,2.77-1.34,4.44-1.56,16.83-2.18,83-1.21,97.22,4.89,16.24,6.96,25.73,25.74,27.37,42.63,2.49,25.7,2.96,133.32-3.83,154.23-5.58,17.17-23.65,35.3-42.7,35.3h-82.5v-235.5ZM885,180.5v149c0,1.53,21.69,6.21,23.91-10.09,3.35-24.61,2.59-96.33.14-121.95-.52-5.39-2.31-13.85-7.49-16.51-2.59-1.33-15.2-3.54-16.56-.44Z"/>
      <path class="cls-2" d="M666.61,145.39c9.17,5.97,18.51,20.97,20.89,31.6,4.19,18.67,4.03,133.62.25,153.27-12.12,63.02-117.14,65.83-127.52-7-3.75-26.35-4.33-125.45,2.21-149.3,11.62-42.35,72.04-49.5,104.16-28.57ZM632.5,185.48c-4.35-4.69-9.98-5.38-15.01-1.49-5.49,4.25-5.65,13.04-6.31,19.64-2.83,28.33-1.61,78.75.84,107.84.76,9.08,3.68,21.85,15.93,17.97,6.2-1.96,8.48-13.25,9.02-18.97,2.54-26.73,2.69-85.4.07-112.01-.36-3.67-2.02-10.26-4.54-12.98Z"/>
      <path class="cls-1" d="M1338.57,139.44c15.96,5.85,29.11,22.57,32.3,39.18,4.09,21.28,3.9,129.1.02,150.76-11.75,65.69-119.13,64.6-127.64-5.14-3.38-27.67-3.66-113.24-.18-140.68,5.8-45.73,57.67-57.99,95.5-44.13ZM1314.75,183.31c-11.48-8.05-19.49,4.96-20.79,15.15-2.96,23.13-2.14,85.03.01,109.07.63,7.02,3.06,20.78,11.47,22.52,9.5,1.96,13.74-9.82,14.56-17.54,2.58-24.44,2.94-92,.03-116.03-.28-2.28-3.75-12.09-5.28-13.16Z"/>
      <path class="cls-2" d="M542,326.5c-6.65,68.3-124.1,70.15-130.05-3.95-2.17-27.1-3.3-127.1,3.72-149.38,19.36-61.44,125.33-42.06,125.33,8.33v50.5h-50.5c-.35,0-1.54-1.29-2.5-1v-35.5c0-12.82-20.67-18.61-23.75.25s-2.7,97.49-.32,117.83c1.11,9.51,6.63,21.37,18.47,15.32,1.58-.81,5.61-7.01,5.61-8.39v-47.5c.96.29,2.15-1,2.5-1h50l1.5,1.5c-1.21,17.04,1.63,36.24,0,53Z"/>
      <path class="cls-1" d="M1030,312.5c2.56,19.51,21.75,22.27,23.88,6.9,7.01-50.55-72.89-62.05-75.85-118.92-4.84-92.94,126.98-80.07,126.98-13.98v18.5h-52.5c-.33-.51-1.5-1.23-1.5-1.5v-16c0-5.97-17.26-9.71-20.91-.69-4.79,11.83,8.08,22.2,15.72,29.17,24.64,22.48,57.24,37.5,61.2,75.51,6.44,61.8-23.27,97.31-87.24,83.24-42.08-9.25-44.74-54.62-40.26-89.74h50.5c.81,8.63-1.1,19.11,0,27.5Z"/>
      <polygon class="cls-1" points="1647 137 1647 184 1596 184 1596 229 1645 229 1645 274 1597.5 274 1596 275.5 1596 327 1649.5 327 1651 328.5 1651 373.5 1649.5 375 1543.5 375 1542 373.5 1542 138.5 1543.5 137 1647 137"/>
      <path class="cls-1" d="M1231,183h-29.5l-1.5,1.5v189.5c-.96-.29-2.15,1-2.5,1h-50.5v-190.5l-1.5-1.5h-29.5v-44.5l1.5-1.5h112l1.5,1.5v44.5Z"/>
      <polygon class="cls-2" points="764 327 816.5 327 818 328.5 818 373.5 816.5 375 713.5 375 712 373.5 712 138.5 713.5 137 762.5 137 764 138.5 764 327"/>
      <polygon class="cls-1" points="337 0 337 61.5 209 126 209 0 337 0"/>
      <path class="cls-1" d="M1591,418c.62-1.04,11.68-1.46,13.75-.71l30.25,37.71v-38h16v68c-3.86-.47-9.13.82-12.72-.3-4.25-1.32-24.81-32.18-30.28-36.7v37c0,1.32-17,1.32-17,0,0-8.62-1.72-64.12,0-67Z"/>
      <path class="cls-1" d="M643,484.5c-.98,2.24-14.68,2.53-15.86-.14-1.34-3.04-1.67-63.74.29-66.42,2.89-1.33,9.52-1.56,12.31-.65,2.03.66,22.05,28.14,26.94,33.08,1.02,1.03-1.1,3.54,3.31,2.63v-36h16v67.5c0,2.07-10.73,1.89-12.75,1.21s-22.37-28.47-26.94-33.08c-1.02-1.03,1.1-3.54-3.31-2.63-1.52,6.73,2.02,29.86,0,34.5Z"/>
      <path class="cls-1" d="M949,419.5c1.2-3.6,28.82-3.11,33.41-2.41,8.77,1.35,18.45,10.11,20.16,18.83,2.9,14.74-9.65,23.13-9.61,24.5.13,4.35,11.59,17.63,12.62,22.52.27,1.29.08,3.06-1.08,3.06h-15c-2.22,0-11.66-20.55-13.52-21.48s-9.98-1.02-9.98.98v19.5c-1.94,1.69-17,.85-17,0v-65.5ZM966,432v16.5c0,2.01,9.89,1.77,11.55,1.55,13.55-1.8,9.06-18.05,3.95-18.05h-15.5Z"/>
      <path class="cls-1" d="M212,620c-2.34-2.38,12.19-40.59,14.13-46.79l2.41-.27,90.46,47.06h-107Z"/>
      <path class="cls-1" d="M1540.43,430.58c26.28,33.26-21.03,76.88-50.96,44.45-30.67-33.24,20.81-82.61,50.96-44.45ZM1524.53,435.44c-30.09-21.49-40.91,44.55-3.77,34.87,11.24-2.93,14.31-27.33,3.77-34.87Z"/>
      <path class="cls-1" d="M570.57,424.42c34.13,27.16-6.06,84.05-43.74,52.54-30.78-25.74,7.51-81.38,43.74-52.54ZM561.68,436.32c-15.28-16.48-39.58,7.24-25.64,27.9s43.17-8.99,25.64-27.9Z"/>
      <path class="cls-1" d="M1114.5,417c3.55,1.53,1.08,43.58-1,50-8.35,25.83-49.53,24.36-56.39.19-1.64-5.77-3.64-44.74-1.96-48.55,1.16-2.64,15.34-2.18,16.42-.71,5.63,7.64-11.17,60.08,18.26,52.38,3.59-.94,9.17-9.15,9.17-11.82v-41.5c3.41.76,13.11-1.03,15.5,0Z"/>
      <path class="cls-1" d="M787.88,423.11c1.45,2.32-3.69,11.18-4.47,13.96-4.23-2.57-34.39-11.01-26.26,2.78,1.65,2.79,26.88,5.29,31.55,14.94,13.84,28.61-21.71,35.85-42.68,27.69-14.04-5.46-8.39-7.49-2.38-18.42,4.77,2.64,28.28,12.22,29.16,3.22.84-8.68-24.74-8.92-30.69-18.17-8.78-13.66,1.98-30.26,17.33-32.19,4.77-.6,26.23,2.62,28.45,6.18Z"/>
      <path class="cls-1" d="M1215.54,423.44c2.74,2,8.17,7.1,5.98,10.6-.35.55-10.34,7.03-10.99,6.97-.6-.06-4.97-6.76-8.99-8.04-29.74-9.52-30.3,45.3-.72,37.37,4.08-1.1,9.29-8.37,10.51-8.24.66.07,10.93,6.32,11.24,6.9,2.09,3.83-7.25,11.19-10.26,12.83-32.43,17.67-64.61-20.87-44.11-51.11,10.35-15.26,32.74-17.94,47.33-7.28Z"/>
      <path class="cls-1" d="M465.59,423.44c2.11,1.58,7.73,6.78,6.18,9.36-.36.6-11.01,7.28-12.15,7.05-3.67-.73-5.79-12.08-21.34-7.07-19.49,6.29-9.82,51.45,18.02,34.28,1.49-.92,1.19-3.58,2.67-4.58,2.65-1.8,11.18,5.12,13.91,7.14-11.18,22.22-46.35,20.48-57.27-1.74-16.72-34,20.44-66.54,49.98-44.44Z"/>
      <path class="cls-1" d="M899,417c1.06.63,2.06,15-.5,15h-18.5v53c-3.13,1.21-18,2.67-18-2.5v-50.5h-19v-15c7.86,1.62,52.45-2.13,56,0Z"/>
      <path class="cls-1" d="M1308,485c-.53.89-15.4,2.33-17-.5v-52.5h-19.5c-.93,0-5.73-13.62,3.94-15.06,4.45-.66,48.59-.82,50.92.2,2.97,1.3,2.01,14.86.14,14.86h-17c-.27,0-.99,1.17-1.5,1.5-1.51,7.32,1.99,48.17,0,51.5Z"/>
      <polygon class="cls-1" points="411 24 347 56 347 24 411 24"/>
      <rect class="cls-1" x="1399" y="417" width="15" height="68"/>
    </g>
  </g>
</svg>