<?xml version="1.0" encoding="UTF-8"?>
<svg id="Layer_2" data-name="Layer 2" xmlns="http://www.w3.org/2000/svg" viewBox="0 0 338.42 547.76">
  <defs>
    <style>
      .cls-1 {
        fill: #080808;
      }
    </style>
  </defs>
  <g id="Layer_1-2" data-name="Layer 1">
    <g>
      <path class="cls-1" d="M323.94,48.49c24.01,21.35,16.37,61.9-13.58,73.07-3.74,1.39-12.4,1.96-13,5l-.05,270.06c.27,5.16,8.65,4.41,13.03,5.97,27.75,9.87,36.88,45.73,18.54,68.48-24.86,30.86-75.02,14.6-78.5-24.53V75.57c5.29-34.69,46.72-50.94,73.56-27.09Z"/>
      <path class="cls-1" d="M76.01,51.41c6.3,6.71,10.66,16.95,11.39,26.11,1.69,21.34-.35,46.23-.08,68.08,1.27,99.83,1.23,199.97,1.03,299.94-2.43,32.57-37.99,52.58-66.65,35.68-33.88-19.98-25.77-69.87,12.41-79.93,2.68-.71,6.85,1.04,7.26-2.74V126.56c-.62-3.22-8.03-3.03-11.78-4.22C-2.18,112.23-10.37,69.91,14.89,48.09c17.41-15.04,45.43-13.39,61.12,3.33Z"/>
      <path class="cls-1" d="M193.36,249.06h-45.5c-.11,0-1.5-1.39-1.5-1.5V4.56C146.36.82,170.18-.13,173.91.01c2.96.11,19.45,1.88,19.45,4.55v244.5Z"/>
      <path class="cls-1" d="M146.36,309.06h45.5c.11,0,1.5,1.39,1.5,1.5v233c0,5.6-47,5.6-47,0v-234.5Z"/>
    </g>
  </g>
</svg>