<?xml version="1.0" encoding="UTF-8"?>
<svg id="Layer_2" data-name="Layer 2" xmlns="http://www.w3.org/2000/svg" viewBox="0 0 1654.24 277.63">
  <defs>
    <style>
      .cls-1 {
        fill: #efeeee;
      }

      .cls-2 {
        fill: #496630;
      }

      .cls-3 {
        fill: #89bd42;
      }

      .cls-4 {
        fill: #969799;
      }

      .cls-5 {
        fill: #646763;
      }
    </style>
  </defs>
  <g id="Layer_1-2" data-name="Layer 1">
    <g>
      <path class="cls-3" d="M0,72.99c3.48.46,8.5-10.51,9.13-10.86,1.21-.68,3.55.44,4.71-.32.79-.52,9.33-11.55,12.28-14.1C43.43,32.77,96.4,1.99,119.5,1.99h14.5c-.33,5.14-5.81,3.33-8.26,4.23-31.95,11.75-59.46,27.54-83.46,51.07-4.15,4.11-21.49,29.38-24.7,30.79-10.56,4.62-10.1-3.89-17.58-5.08v-10Z"/>
      <path class="cls-1" d="M242,73.99c30.92-2.43,73.46-1.07,105,0,2.31.08,4.7-.19,7,0-.7,7.08.69,4.69,5,5,.99.07,2.02-.11,3,0,.34.82-.53,2.79.19,3.87.24.35,5.56,3.19,6.29,4.13,1.17,1.51,3.04,8.09,5.52,10.01.14,4.16.25,8.88,0,13-3.19-.42-12.22.93-14.42-.87-1.85-1.52,1.32-5.84-2.58-5.13-.02-.33.02-.67,0-1v-1c-.07-.99.1-2.02,0-3s.22-3.81,0-4.01c-.33-.32-3.03.24-4.01,0-1.23-2.61-1.16-9.75-7-4-1.7-.84-3.42-.73-4-1-.32-.15-.41-2.42-1.76-2.99-4.7-1.97-79.53-2-88.71-.98-1.23.14-14.54,3.95-15.25,4.3-.56.27-8.52,8.19-8.84,8.72-1.16,1.93.57,2.73.56,2.96-.08,1.32.12,2.68,0,4-1.78-.4-2.61.26-4,1-.48.26-1.66-.64-2.04.64-.45,1.53-.13,10.02.04,12.36.02.33-.03.67,0,1,.39,4.11,1,6.51,6,6,.08.31-.06.68,0,1,1.06,6.05,1.13,1.28,5.28,3.03,17.07,7.18,29.42,3.09,47.72,2.97,1,0,2,0,3,0-.19,3.76-.44,2.61,2.45,3,24.35,3.28,44.23-5.3,67.55,8,.28.88-.38,2.71-.07,3.42.5,1.16,2.57.22,2.91.68.88,1.2-.26,9.2,5.16,7.9.07.65-.04,1.34,0,2-2.97-.61-3.13,2.56,0,2,.19,4.13.21,8.88,0,13-2.97-.61-3.13,2.56,0,2-.06.99.09,2.01,0,3-4.52-.6-2.26.79-2.99,2.47-5.43,12.67-5.4,19.79-19.24,26.88-2.14,1.09-5.8.18-6.78.66-.18.09.15,1.94,0,1.99-4.52,1.69-7.56,2.62-12.47,3.03-20.72,1.73-80.9,2.59-99.91-1.17-9.47-1.87-15.01-7.76-22.4-13.07-.63-2.21-.07-4.54-.22-6.79-.2-3.01-.43-16.19,2.6-17.06.8-.23,8.82-.07,9.26.2,2.22,1.4-.44,13.31,5.15,11.86.07.95-.19,2.22,0,3,.6,2.42,4.87,5.72,7,6,.64.09,1.34-.05,2,0,1.68-.02,4.51,2.84,4.78,2.91,8.14,2.29,83.85,2.22,91.53-.15,1.62-.5,3.18-.47,2.69-2.76,8.82-.58,12.99-3.46,18-11,9.03-.27,4.61-2.88,6.42-8.12.62-1.8,2.41-1.84,2.55-2.6.25-1.36.36-12.02.1-12.73-.4-1.14-2.67-.19-2.95-.61-2-2.98,3.04-5.29-6.12-6.94-.91-.16-2.2.22-3,0-.57-.15-1.42.15-2,0-1.29-9.27-19.42-5.84-27-6-11.29-.24-22.7-.04-34,0,.19-3.76.44-2.61-2.45-3-6.05-.82-15.06.05-21.55,0-4.98-.04-10.02.14-15,0-1.99-.06-4.01.1-6,0,.58-3.63-.28-2.38-2.17-3.29-3.48-1.69-8.95-3.8-12.8-4.73,1.14-5.66-2.35-3.45-2.87-4.06-.6-.71-2.32-16.62-2.17-18.45.2-2.41,1.56-3.91,1.96-6.03.44-2.35-.51-6.42,0-7.89.38-1.12,2.65-.2,2.94-.62.63-.94-.25-4.28.55-6.03,1.03-2.23,2.52-1.96,3.41-3.57.57-1.03-.3-3.32.38-4.19,1.12-1.45,13.5-6.89,16.09-9.08,1.28-1.08,1.45-2.54,1.72-4.06,1.37-.29,3.43.12,5,0Z"/>
      <path class="cls-1" d="M1117,73.99c32.3-1.84,73.56-1.37,106,0,.66.03,1.34-.03,2,0-.28,6.43,7.86,5.76,12,8,6.83,3.69,6.58,5.27,7,12,.35,5.61-.25,11.37,0,17-3,1.31-2.29,2.67-9,3-3.59-5.53-2.74-13.41-6.29-18.78-.25-.38-1.86.17-2.74-.88-.56-.67-.31-3.66-1.11-4.2-.67-.45-8.02-.62-10.07-1.18-1.17-.32-1.19-2.42-2.42-2.79-6.25-1.88-76.75-1.12-86.84-.14-8.77.85-23.48,6.98-27.23,14.77-1.97,4.09-.54,5.91-1.29,8.5-.32,1.1-2.49.73-3.04,3.18-.2.9-.24,8.46-.05,8.98.38,1.09,2.56.18,2.93.65.57.74-.29,2.72.37,3.68.37.53,1.65.09,1.77.22.48,1.89.66,3.1,3,3,.37.31.69.79,1,1,4.11,2.8,7.1,3.58,12,4,24.25,2.06,53.1-.36,78,0-.19,3.75-.45,2.62,2.45,3,3.79.51,8.55-.24,12.55,0,3.1.19,5,.47,8,1-.3,2.25,2.54,4.57,4,2,.22.21,1.28.33,2,1,1.31,1.2,1.77,1.39,2.76,2.25.86.75-1.14,3.92,4.24,2.75.18,1.22-.28,2.96,0,4,1.12,4.23,2.74,3.8,3.01,4.72.74,2.57.25,19.42-.01,23.28-.05.66.07,1.35,0,2-.56,5.41-3.73,13.23-6,18-.12.26.11.69,0,1l-1,1c-2.34,3.62-2.14,1.12-4.02,2.49-1.09.8-.85,2.43-.98,2.51l-1,1c-.47.21-1.56-.21-2,0-3.63,1.77-3.73,2.9-4,3-16.95,6.41-97.15,3.69-120,3-.66-.02-1.34.04-2,0,.77-4.54-1.53-2.67-5-3-.98-.09-2.03.13-3,0-.2-.37-.96-.79-1-1-1-5.96-2.09-1.44-3.85-3.19-.41-.41-1.13-5.42-4.15-4.81-.09-.65.06-1.35,0-2-.3-3.22.56-5.34-4-5-.16-1.3.12-2.69,0-4,1.54-.42,1.48-3.66,0-4-.02-1-.03-2.01,0-3-.48-5.09,8.16-5.11,11.36-3.86,3.87,1.52-1.46,8.76,5.64,6.86.08.99-.09,2.01,0,3,.7,8.02,1.02,3.3,2.7,5.23,1.93,2.23-1.08,2.83,4.3,3.77,1.48.26,3.41-.15,5,0-.48,5.54,3.58,3.54,7,4,19.77,2.69,63.55,2.59,83-1,22.21.99,35.51-18.26,31.02-39.54-.7-3.33-4.28-5.17-7.02-5.46-1.27-.14-2.83.22-4,0,.22-4.61-5.86-5.59-9.5-6-7.64-.86-28.98,1.78-33.95.08-1.21-.41.1-2.73-1.11-3.14-15.73.94-31.39-.76-47.07-1-1.76-.03-3.2,1.08-3.38,1.08-2.66-.02-5.34-.01-8,0-.33,0-.67,0-1,0-3.92-4.09-8.27-3.26-12.74-5.64-3.52-1.87-4.08-5.83-5.76-8.39-.66-1.01-3.18-.48-3.56-1.6-1.06-3.09.28-23.53,1.28-27.7.47-1.97,1.24.88,1.79-4.67.09-.96-.18-2.16,0-3,6.13.76,3.11-1.24,4-3,1.86-3.66,2.18-1.76,3.23-2.97,1.79-2.06,8.52-8.52,9.41-9.08,2.34-1.46,9-.11,9.36-5.96,1.51-.22,3.38.09,5,0Z"/>
      <path class="cls-1" d="M397,113.99c1.16.1,2.96-.4,3.86.16.49.31-.01,1.51.14,1.84-4.64.15-2.57,8.14-3,11.01,1.94,2.14,6.16-5.57,6-6.01h1c4.27-2.31,9.26-3.04,14.22-4.28,2.56-.64,2.35-2.12,7.78-2.72,11.61-1.3,31.91-.59,44,0,.99.05,2.01-.07,3,0,.66.05,1.35-.07,2,0,1.15.13,16.68,7.19,17.35,7.9,1.86,1.99,4.1,9.89,8.16,12.09,2.57.97,1.78-5.56,2.73-6.76.3-.38,5.72-2.95,6.76-6.23.3-.1.7.1,1,0,2.77-.92,9.34-2.14,9-5,.32-.05.68.05,1,0,19.31-3.13,41.3-2.36,61-2,1.33.02,2.67-.02,4,0,.68.01,1.39-.01,2,0,.67.01,1.33-.01,2,0,1.06,4.93,8.02,5.22,12,7,1.69.76,4.69,1.02,4.88,1.19.58.52-.06,2.65.12,2.81-1.56,6.32,2.55,4.66,2.83,5.1.56.88.09,3.81.84,5.7,2.81,7.1,2.24,7.77,2.32,16.2,0,.67.01,1.33,0,2-4.99.5-2.8,10.64-3,15-.06,1.33.05,2.67,0,4-4-.33-2.84,6.3-3,9-.08,1.31.15,2.7,0,4v1c-.08.65.08,1.35,0,2-6.91-.12-4.66,6.43-5,11s.91,9.43-1.15,13.85c-2.21.39-14.3.46-14.93-1.46,1.1-4.14.55-8.88,1.14-12.83,2.06-13.78,9-30.27,10.65-44.34.59-5.08.32-17.11-3.06-20.87-.5-.56-12.51-6.94-13.25-7.07-17.02-2.95-44.59-.1-61.4,3.72-7.96,1.81-2.92,1.12-5.26,2.67-7.88,5.21-10.29,7.09-11.74,16.33-2.52,16.05-6.91,31.45-9.77,47.73-.65,3.69.74,14.44-3.85,16.14-2.29.85-13.74,1.17-14.42-2.4-.54-2.78,5.86-27.92,6.9-33.11,1.61-7.97,3.78-15.84,5.14-23.36.9-4.98,2.29-10.9,0-16-.03-.33.04-.67,0-1-.75-5.89-2.93-5.58-8-7-.31-.09-.69.09-1,0,.48-2.57-.08-2.48-1.81-3.67-4.86-3.33-43.79-3.14-51.62-2.26-5.48.61-24.82,8.1-27,13-.78,1.75-.35,3.46-.57,3.94-6.52,14.37-9.66,32.3-12,49-2.02-1.44-2.88,4.94-3,7-.04.66.04,1.34,0,2-4.4.31-.45,10.19-3.15,11.85-1.3.8-9.2-.16-11.85.15-.65-2.23,3-7.1,3-7.5v-15c0-.67,2.55-7.34,3-12.5.72-8.33,1.36-6.78,2.83-11.63.94-3.09-.29-8.09.3-11.73,1.39-8.5,4.12-18.97,5.76-26.43.44-1.98,2.49-12.92,3.1-13.2,3.62.23,7.39-.32,11,0Z"/>
      <path class="cls-4" d="M1027,113.99c.36.96.49,3.35,1.18,3.84.74.52,1.96.07,2.82.16.98.1,2.03-.13,3,0,3.38,2.19,5.23,8.38,9,8,.13.97-.08,2.02,0,3,.34,4.27-.24,8.71,0,13-.23.23.64,2.66-.54,3.07-.59.2-12.02.37-12.46-.07-.58-.58.73-8.58-.24-10.78-.28-.63-11.47-6.23-12.14-6.39-5.81-1.42-38.21-1.96-44.1-.82-1.13.22-13.56,7.14-14.05,7.95-1.03,1.68-.28,12.92.69,13.87.4.39,2.85.06,4.36,1.12,6.34,4.43,12.83,11,19.5,14.53,1.6.85,4.74.29,4.98.52.37.36-.48,3.14.11,3.87.47.59,4.36.41,5.22,1.1,1.89,1.5,6.84,8.62,9.99,10.69,1.75,1.15,5.84.61,7.02,1.31.39.23,3.43,5.33,6.05,6.21,11.14,3.75,8.14-2.36,10.57-5.47,1.19-1.52,4.23-3.26,5.4-4.82,6.44-8.57.85-9.52,16.64-7.9.93,7.82-4.09,12.35-7,18-5.71,1.27-8.53,8.18-13,11.48,3.69,4.22,8.39,6.55,13,9.52,1.64,1.05,3.6.47,2.99,2.99-6.53-.57-14.17.77-20.54.08-1.47-.16-1.15-1.44-3.45-2.07-1.58-.43-.27-1.33-3,0-2.16-.18-3.52-.49-3,2-17.45,4.64-62.41,4.68-80.32,1.65-3.71-.63-9.42-4.06-11.76-7.1-6.25-8.09-5.11-30.39-.92-39.56,5.25-1.85,10.32-7.69,14-12,5.58,1.57,5.88-1.27,7-2,.43-.28,2.64.68,3.07-.55-2.69-15.8,3.01-23.03,11.93-34.45,2.58-1.09,2.9-1.47,6-2s9.89,1.71,9-2c15.47.08,38.64-1.98,53,0ZM983,181.99c-.57-.24-1.97.34-3.03-.46s-.48-3.25-1.58-3.61c-1.48-.49-4.77.77-6.23-.09-.38-.22-4.04-7.29-4.4-7.53-2.19-1.43-5.62-.63-7.5-1.57-1.53-.77-4.44-6.67-4.84-6.8-5.89-1.84-16.25,4.02-19.36,8.92-2.06,3.26-.71,4.66-1.06,6.14-6.11,0-3.85,22.14-3.01,23.01.44.45,5.79-.47,7.29-.02,1.24.37.8,2.77,3.09,2.98,9.04.84,25.82-1.67,35.62-1.96,8.31-.25,16.69.21,25,0,.49-.01,1.88,1.62,3.03.56,4.36-4.04-1.73-4.78-2-5.08-2.78-3.08-.64-4-8.03-4.48-.79-4.56-3.05-2.29-5-3,.65-4.72-1.09-2.3-3-3-.22-.35.44-2.05-.15-2.81-.81-1.06-3.81-.75-4.85-1.19Z"/>
      <path class="cls-3" d="M233,16.99l3,15c-28.48,14.07-63.29,37.77-85.72,60.27-1.15,1.15-.78,3.73-1.51,4.49-1.06,1.11-3.71.65-4.54,1.47-.73.72-.38,3.15-1.2,4.03-7.01,7.51-32.55,40.93-36.15,43.09-11.91,7.16-18.46,2.57-26.77-4.97.38-6.24-1.55-15.46,1.26-21.04,1.04-2.06,15.93-15.49,18.93-18.43,40.6-39.8,78.56-64.93,132.7-83.92Z"/>
      <path class="cls-1" d="M1559,113.99c21.32-.49,45.87-1.13,67,0,1.32.07,2.69-.13,4,0,5.53.55,4.5,2.22,8.38,4.16,1.97.98,4.91.29,6.47,1.05.34.16-.13,2.05.38,2.55.62.61,2.32-.25,2.84.84.33.7-.38,2.66-.07,3.4,1.02,2.46-.03,4.81,4,4,.35,2.78-1.38,6.83,2,6-.67,12.9-5,9.45-17,10-.68-2.28-.57-14.38-1-15h.5l.5-.5-.5-.5-.5,1c-.13-.19-1.56.17-2,0,.87-6.84-7.37-5.75-12.46-6.03-8.11-.45-68.31-.62-71.4,1.17-.6.35-.47,3.03-1.37,3.63-1.07.71-3.19.43-4.02,1.2-6.18,5.71-2.13,5.73-3.67,10.49-.38,1.19-2.74-.11-3.15,1.1-.74,2.19-.65,7.89,2.95,6.51-2.66,2.85,6.02,8.62,7.59,8.95,8.27,1.77,30.51-.08,40.53-.01s20.01-.05,30,0c9.97,3.75,11.83,1.92,18.32,10.74.42.57,2.42-.18,2.75.82.35,1.09.38,21.8,0,22.88s-2.64.21-2.94.63c-.62.86.11,3.55-.14,4.92-.75,4.11-.85,8.56-5.83,10.75-3.01,1.32-5.93.05-6.16.25-.33.28.68,2.63-.55,3.07-1.11.39-5.53-.17-7.45-.07-24.53,1.26-56.75,1.65-81,1-.66-.02-1.34.04-2,0-.6-.04-10.82-3.67-11.33-3.99-.25-.15-3.42-4.37-3.5-4.66-1.05-4.08-.17-14.41-.17-19.36h10c0,5.96-2.44,14.14,5,12,.04.32-.07.69,0,1,.83,3.53,1,2.48,4,3,1.71.3,4.11-.09,6,0,4.51-.46,2.71.52,2,4h63c.2,0-.25-3.69.01-4,.29-.35,7.14,4.75,6.99-1,.33-.03.67.03,1,0,1.04-.1,3.59.27,4.01,0,.19-.13-.13-1.54,0-2,.09-.31-.07-.68,0-1,5.3.9,4.21-1.36,4-6-.03-.66.02-1.33,0-2,6.59,1.25,5.86-7.69,4.93-12.24-.26-1.3-4.23-3.08-5.37-3.84-.63-.42-.13-2.61-1.19-2.99-1.17-.42-5.43.17-7.38.07-21.95-1.15-48.4,2.46-69.48-.02-7.02-.83-11.64-7.08-17.52-8.98,0-1,0-2,0-3,0-3.17.66-3.3-3-3-.14-2.94-.86-19.1-.04-20.34.76-1.15,2.69-.42,2.88-.75,1.98-3.32-.51-5.79,6.16-10.91,1.66-1.27,1.88-1.92,2-2,2.44-1.54,11.59-1.88,12-7,3.29-.21,6.69.08,10,0Z"/>
      <path class="cls-1" d="M806,82.99c.02.33-.01.67,0,1-1.58,4.59-2.46,9.15-3,14-.04.33.03.67,0,1-3.32,1.56-2.31,7.15-1,10-.02.33.02.67,0,1-5.91,1.42-4.58,11.38-3.99,15.99.79.82,7.68-6.22,8.8-6.95,2.11-1.39,9.3-1.1,8.2-6.04.67,0,1.33,0,2,0,19.2,0,38.73.85,58,1,1,0,2-.02,3,0,3.72-.91,5.75,6.7,10,3,.69.42,2.37.22,3.3.93s.96,2.36,1.7,3.07c-.49,2.42.9,2.22,3,2,.32.78.46,1.75,1,3,4.44,10.25,4.24,16.95,4,28-.02,1,.06,2.01,0,3-4.07-.54-1.16,9.3-2,13-1.38,8.75-4.19,17.21-5.88,25.62-.73,3.65.54,7.95-.35,11.65-1.63,6.75-15.23,12.7-16.69,3.17-.12-.79-.22-13.07-.1-13.75.06-.37,3.91-6.03,3.99-6.4,1.53-7.98,2.85-18.1,4.04-26.28v-3c.07-.65-.08-1.35,0-2,6.86-1.03,2.96-7.19,3-10,.04-2.57.22-5.5,0-8-.08-.92,1.76-2.59-.05-6.2-1.12-2.23-4.89-3.88-6.66-5.15-.51-.37.03-2.14-.95-2.68-.61-.33-11.93-1.89-13.78-2.02-12.7-.87-34.05-.9-45.88.11-6.34.54-11.25,3.72-14.68,7.93-5.97,2.76-10.04,6.89-11,13-.24,1.55.19,3.41,0,5-2.67-.47-2.05.64-2,3-.09.31.09.69,0,1l-1,1c-3.16,11.36-3.68,24.38-6,36l-1,1c-.17.85-.78,1.88-1,3l-1,1c-.85,4.52.27,9.32-1,15-5.35.64-10.71,2.02-16,0-.08-3.52-.26-7.53,0-11,5.49-2.26,4.75-13.84,5-19,.03-.66-.04-1.34,0-2,3.1-1.47,2.68-4.23,3-7,.8-7.05,1.82-8.55,3-14l1-1c.2-.87-.21-2.16,0-3,1.22-4.9,1.84-9.95,2-15,.29-.57.8-1.68,1-2,2.87-4.48,1.68-3.94,2-9,.08-1.32-.07-2.67,0-4,4.85-.23,2.75-8.17,3-12,.02-.33-.02-.67,0-1,.71-3.11,3.28-6.93,3.76-9.72.68-3.96-.84-6.79-.76-8.28.05-1-.04-2,0-3l4.54-7.96c.58-1.69.9-8.44,1.57-8.92.62-.44,10.06-.34,10.95.32,1.66,1.24.82,6.39.94,8.56Z"/>
      <path class="cls-1" d="M1287,113.99c1.65-.1,3.34.06,5,0,10.31-.36,54.4-1.95,61.27,0,1.41.4,17.72,11.79,18.51,13.21,1.2,2.17-1.71,7.51,4.23,6.79.07.65-.04,1.34,0,2-1.71,2.95-1.68,9.18,0,12-.01.67.03,1.34,0,2-6.74-.13-3.57,15.06-4,20-1.65,18.87-14.67,41.35-35,42-1.35.04-3.22-.49-4,1-.66-.06-1.34.06-2,0-21.07-1.86-41.99.03-63-1-1.26-.06-2.9.22-4,0-.14-.75.24-2.77,0-3-.22-.21-1.41.13-2,0-.85-.19-2.05.12-3,0s-2.05.14-3,0c.63-4.73-.99-2.25-3-3-.94-3.37.18-3.35-3-6-.36-.3-.64-.7-1-1-.01-.33,0-.67,0-1-.24-8.19-.29-16.82,0-25,.14-3.89-.38-8.23,0-12,.1-.97-.15-2.05,0-3,.36-2.36,2.21-4.18,3-8,.38-1.82.79-2.81,1-5,.13-1.31-.09-2.68,0-4,2.68-1.99,2.4-5.65,3-7,1.72-.94,3.52-.1,3-4,.37-.33-.47-.49,2-2,.48-.3,2.69.31,3,0,.29-.29-.26-2.3,0-3,3.36-1.93,3.95-1.87,7-3,.47-.18,1.61.27,1.97-.03.31-.27-.15-1.56.03-1.97.37-.84.3-2.14,1-3,.68-.25,2.14.2,3,0l2-1c.59-.14,1.38.12,2,0,3.19-.6,1.82-1.98,2-2,.33-.04.67.03,1,0,.98-.1,2.01.06,3,0ZM1353,129.99c-3.24-1.31-8.18-3.96-11.51-4.08-3.01-.11-5.81,1.14-8.94,1.13-15.3-.03-30.7.45-45.91-1.1-1.6,6.24-4.85,3.05-8.84,5.1-.54.28-9.04,7.39-9.32,7.93-1.05,1.97.01,5.18-.61,5.96-.33.41-2.57-.51-2.95.61-.69,2.05-.31,11.31-.97,14.72-.13.67-2.38.86-2.96,5.22-.74,5.58-.65,20.83,0,26.51,1.01,8.83,7.74,10.38,15,10,.66-.03,1.34.02,2,0,2.69-.22,7.98,3.03,8.44,3.08,8.21.92,26.74.71,35.16,0,1.92-.16,2.49-.31,3.4-2.08.98.09,2.03-.12,3,0,2.38.3,10.38.32,8-3,.32-.06.68.06,1,0,2.14-.37,5.6-.02,5-3,.56-.17,1.5.18,2,0,3.75-1.37,2.46-1.93,4-4,.28-.38.46-1.26,1-2,4.02.51,2.66-.45,3-3,2.22-2.43,2.24-.58,3-6,3.11-1.34,3.95-2.77,0-3,.05-.66-.04-1.34,0-2,3.34.74,1.61-2.42,2-5,.55-3.65,2.94-8.22,3.01-8.7.31-2-1.12-4.08-1.01-5.3,5.96-2.39,5.77-17.08,1-20,.09-.65-.07-1.35,0-2,.14-1.24.19-2.61-.15-3.82-.54-.77-5.45-1.61-6.85-2.18Z"/>
      <path class="cls-1" d="M1408,113.99c.69,5.65-5.41,12.11,2.99,13.99-.77-1.99.98-4.76,1.01-5.99,1.27.38,2.29-.81,3-1,3.21-.87,11.46-3.54,12-7,.66-.04,1.34.02,2,0,18.39-.63,38.61.58,58,0,1-.03,2,.04,3,0,1.09,4.83,7.94,4.89,11.65,8.35,2.99,2.78,3.37,9.68,9.35,7.65.05.66-.06,1.34,0,2,.85,9.7.17,21.6,0,31-.02,1.33,0,2.67,0,4v1c0,.66.03,1.34,0,2-2.55-1.99-6,3.35-6,4.5v14.5c0,.52-2.47,1.7-3,9-.19,2.64.16,5.36,0,8-4.75-.76-2.3,1.43-3,3-.46,1.04-.83,3.81-1.62,4.07-.99.32-8.62.11-10.38-.07-.15-2.18.86-5.38-1-7,.73-2.67.47-5.9,1.02-8.24.28-1.21,2.98-1.72,2.98-2.26v-15.5c0-.54,2.23-5.47,3.06-9.24.2-.92,1.72-.44,1.95-1.26.6-2.16-1.76-.7-2.09-2.95-.53-3.7,5-2.1.07-5.52,5.44-3.06,5.49-12.54,5-19.02-.64-8.44.23-8.23-8-11-13.8-4.65-56.42-4.89-70,0-1.32.48-8.6,2.74-8.94,3.07-.43.42.13,2.15-.06,2.93-7.57,3.82-3.44,5.58-5.15,7.91s-1.57-3.79-2.85,6.09c-2.15,16.57-7.07,34.56-10,51-4.23-.55-.96,8.97-1.99,10.01-.53.53-12.72-.4-15.01,0-.2-10.16,3.19-18.72,4.89-27.81,1.49-7.95,1.78-13.62,3.58-20.18,2.17-7.89,2.01-9.74,2.52-18.01,5.74.61,3.74-5.06,4-9,.51-7.83.75-15.5,5-22,3.06.98,6.77-.83,9-1,.98-.07,2.01,0,3,0Z"/>
      <path class="cls-1" d="M671,113.99c2.25-.12,6.64.45,8.08-1.67.95-1.39,2.24-16.62,2.91-17.34.61-.66,11.27-.23,13.01,2.01.09.64-.04,1.34,0,2-6.73.71-9.23,16-.5,16h66c2.58,0,.93,9.68-.09,10.06-9.55,1.05-70.03-2.2-73.44,1.42-1.54,1.25-.69,3.2-.97,4.51-.12.55.03,1.35,0,2v1c-.02.67.03,1.34,0,2-2.44,5.41-2.48,10.17-3,16-.06.66.05,1.34,0,2-1.54.42-1.48,3.66,0,4-.05.65.1,1.37,0,2-2.4-.63-2.7,1.98-3,4-.05.32.03.67,0,1-4.08,2.49-.67,12.4-.99,12.99-.12.22-3.35-.04-4.36,2.25-2.91,6.58-.04,13.58,5.35,16.77.52.31,1.43.76,2,1-.92,4.81,7.34,5.99,7,2,.65.08,1.34-.06,2,0,.21,1.36.22,4.55,1.68,5.04,1.53.51,31.18,1.11,32.33-.03.34-.34-.35-3.66,0-4.02.4-.41,6.59.63,11.18-1.1,8.18-3.07,8.54-14.49,20.82-10.9-.55,3.67,1.99,8.5-2.74,8.26l-9.27,11.74c-.57.15-1.39-.13-2,0-3.15.66-7.06-.14-6,4-.8.2-2.05-.1-3,0h-3c-.33.01-.67-.01-1,0-13.35.45-34.26,1.44-47,0-.35-.04-1.26-1.05-2-1-.59-.12-1.35.06-2,0,.46-4.31-6.38-2.2-7.89-3.18-.31-.2.14-2.12-.36-2.51-.97-.77-2.38-.35-3.7-1.86-.84-.95-.59-3.02-1.33-4.25-.3-.49-2.45.28-2.79-.77-.48-1.46-.21-22.14.14-24.86,1.11-8.44,6.04-22.33,7.93-31.57.13-.61-.13-1.39,0-2,1.35-6.5,1.41-4.77,2.83-8.62,3.91-10.63-9.51-6.04-10.84-7.37-.25-.25.03-5.7,0-7.01-.01-.66-.04-1.34,0-2,1.92.17,4.31.22,5-2,1-.01,2.01.05,3,0Z"/>
      <path class="cls-3" d="M143,16.99c2.36,4.2,4.1,7.97,4,13-28.86,15.92-56.58,40.13-77.63,65.38-4.42,5.31-6.94,16.26-16.09,18.42-5.19,1.22-11.52.78-14.73-3.82-1.46-2.09-3.12-10.45-2.5-13.24.17-.8,8.11-11.94,9.31-13.39,22.88-27.59,64.89-52.61,97.64-66.34Z"/>
      <path class="cls-2" d="M828.5,255.99c.58.2,1.77,1.61,1.49,2.48-.77,3.37-25.82.07-28,2.52-.36.41,1.68,8.87,0,10.99l29.93.94c1.99-1.69.24-18.95,1.04-22.46.55-2.42,2.43-1.89,3.03-3.19.57-1.23-.86-4.47.93-5.84,1.07-.81,8.85-.79,10.1.03,1.53,1,1.16,4.55,2.05,5.72,3.72,4.94,8.85,9.55,11.46,15.87,2.49,1.98,7.57-7.39,8.02-9,.86-3.04-1.22-18.27,6.51-12.62,2.77,2.03-2.48,13.2-3.05,17.09-.62,4.29,1.99,17.04-2.74,18.33-12.03,3.28-17.66-20.31-24.27-27.14-.83-.86-1.44-1.1-2.49-.73-2.17.76-7,23.85-6.52,28.03l-49.32.03c-3.32-1.14-.21-13.83-2.62-15.6-1.14-.84-22.47-.78-23.19.14-1.2,1.51-2.21,10.72-2.92,12.88-1.45,4.43-4.56,2.02-4.86-.88-.81-8.13,3.72-23.96,5.07-32.39l31.82-1.19c-1.44,3.72,2.73,4.75,3.02,5.73,1.89,6.42-4.24,25.31,3.99,26.28v-17.5c0-2.68,3.01-12.4,5.62-13.37,1.25-.46,25.38-1.27,26.68-.95,1.76.43,3.64,3.76,2.7,4.82-.17.19-2.18-.43-2.81.19s-.05,2.81-.19,2.81h-23v8c4.21,0,20.02-.85,22.5,0ZM786.5,247.99c-2.15-.81-20.32,0-24.5,0v8h23c.47,0,5.37-6.53,1.5-8Z"/>
      <path class="cls-2" d="M1541,259.99l-1.07,8.24c-2.02,1.04-5.63,7.35-6.07,7.62-1.37.84-29.55,1.69-32.12,1.1-5.48-1.26-4.26-22.68-2.71-27.18.38-1.09,7.8-8.9,9.54-8.67,9.67.24,25.83-4.12,31.87,4.92,1.03,1.55-.29,7.64,3.51,4.92,2.03-1.45,1.68-9.57,2.04-9.95.4-.41,10.32-.08,11.43.88,1.35,1.17.03,4.21,1.12,6.13,3.71,6.52,14.22,10.7,11.46,20.01h7.01v-26.01c0-.4,6.53-1.72,8.07-.56,1.95,1.46.41,6.99.94,7.57,3.03,3.33,2.88-4.04,3.29-4.73,4.09-6.83,24.2-.96,31.7-4.27v5s-22.49,0-22.49,0c-.29,0-2.04,3.84-4.56,3.58.29,1.41-.27,7.1.06,7.42,2.08,2.06,30-.55,30,2v15c0,.28-3.99.41-3.03,3.99-6.43-3.71-33.96,3.13-35.85-3.66-.13-.45.57-8.99.88-9.34,2.24-2.56,5.26,6.13,6.55,6.93,3.79,2.37,24.88,2.42,28.4-2.97.86-1.47-2.9-3.81-4.22-4.93-1.06-.9-.36-2.78-1.33-3.09-5.1-1.59-21.13,1.78-25.78.12-.67-.24-3.49-8.48-7.64-6.06v21c0,.81-8.27,3.03-11.04,1.51-.39-.21-5.43-6.39-5.68-6.76-.85-1.28.33-3.89-.83-5.73-.79-1.26-4.75-3.47-5.8-5.26-.92-1.58-.21-4.85-.8-5.61-.45-.58-3.36-.3-4.2-1.05-1.21-1.09-.7-4.29-3.14-4.1-1.64,2.74-3.53,26.06-4.51,27.02-.18.17-5,.25-5,0v-15ZM1535,247.99h-26.5c-3.98,0-3.24,6.3-3.92,8.12-.73,1.96-2.25,1.37-2.65,3.34-.95,4.64-.4,11.73,5.49,12.62,3.68.56,19.71.31,22.85-1.05,7.35-3.19,2.17-16.82,4.73-23.03Z"/>
      <path class="cls-2" d="M1162,274.99c-.12.21-4.21,2.04-4.45,2.07-2.92.44-30.22.79-32.29.25-4.62-1.2-5.54-12.07-1.76-13.35s1.78,2.71,2.96,4.06c.82.93,2.53.58,3.31,1.26.57.5-.23,2.44.8,2.77,1.09.36,21.79.38,22.87,0s.19-2.3.77-2.86c1.23-1.19,2.79,1.64,2.73-2.65-.13-8.65-15.65-6.65-21.49-6.62-2.3.01-3.46,2.04-4.92,2.1-.51.02-6.47-5.72-8.86-5.12-8.48,2.13,3.61,23.66-11.91,19.78-6.16-1.54-2.65-5.64-3.93-7.56-.22-.33-2.37,0-3.27-1.22-2.95-4.04-9.28-17.66-14.06-17.94-2.2-.13-1.22.1-1.51,1.5-.8,3.75.15,26.83-7.36,24.44-4.49-1.42,1.9-14.05,2.31-16.47.58-3.38-.39-17.08,2.69-18.3,14.49-5.76,15.06,25.54,29.36,22.86l1-23.01c8.73-.85,5.55,1.23,7.02,5.5,1.9,5.54,2.87-1.15,3.11-1.32.82-.59,2.96.11,3.92-.64,1.13-.88.45-3.21,1.58-3.61,6.13-2.17,23.81,2.45,31.37-.94-.3,5.02,8.32,9.32,1.07,13.64-3.36.56-4.69-5.17-7.55-5.72s-26.61-.76-25.51,4.57c1,4.86,27.3,4.71,32,4.51,0,2.69.44,17.22,0,18Z"/>
      <path class="cls-1" d="M639,113.99c10.15-.22,10.51-2.72,11,6v1c.11,1.63.05,3.37,0,5-4.56,1.92-2.7,7.01-3,11-1.4,18.51-7.43,34.73-10.96,51.72-2.31,11.14,1.79,36.49-19.12,22.8,3.25-17.89,6.97-35.61,10.08-53.52,5.71-1.71,4.69-6.45,4-11-.09-.63.03-1.35,0-2s.02-1.33,0-2c.64-1.08.61-2.15,1-3,3.37-7.44,2.35-7.31,3-15,.08-.99-.06-2.01,0-3,4.12.06,2.75-5.09,4-8Z"/>
      <path class="cls-2" d="M1396,256.99c.21-.25,2.65.67,3.07-.55,2.1-6.06-4.22-20.3,11.31-15.52.91.28,7.6,12.87,9.99,15.77.38.46,2.3.12,2.47.4,1.69,2.84-2.84,8.45,7.17,6.9-.36-2.74,1.69-21.06,2.43-22.07,2.66-3.62,9.25-.48,6.55,5.5.9,2.31,9.77-4.68,8.53-7.45,4.15,2.43,29.42-.08,30.49,1.01.35.36-.53,3.07.11,3.93.48.64,4.97-.42,2.89,8.08-7.67,2.59-6.11-4.54-7.63-5.06-1.12-.39-19.42-.22-21.69.09-.7.09-.5,1.5-1.16,1.85-.43.23-3.63-3.14-2.6,2.64,1.27,7.12,30.07.16,30.07,6.99v15.5c0,.25-4.21,2.04-4.45,2.07-4.24.63-26.85.65-30.79-.13-5.08-1-6.56-14.18,1.24-12.94-1.19,6.72,1.75,4.18,2.79,5.22.6.6-.25,2.5.78,2.85s21.8.37,22.88,0,.18-2.28.78-2.86,2.42.17,2.82-.71-3.2-8.42-3.66-8.57c-4.17-1.42-18.73.96-24.82-.02-.99-.16-10.55-6.26-10.55-1.41v16.5c0,1.09-8.35,3.67-11.03.53-1.91-2.24-.32-5.09-1.15-6.42-.18-.28-2.19.14-2.54-.39-1.38-2.08-5.11-6.09-5.27-6.48-.52-1.27.4-4.81,0-5.25-.3-.34-3.68.36-4.02.02s.36-3.7.02-4.02c-.39-.37-4.64.39-5.01.02-.35-.35.36-3.52,0-4.01-.09-.13-2.99.84-2.99,1v18.5c0,.88-4.56,10.72-7,8.5.48-2.8-.65-19.24,0-20Z"/>
      <path class="cls-2" d="M1288,244.99c1.05.28,3.12-.48,3.91.14.43.34-.5,2.52.64,2.94.98.36,3.82-.57,4.41-.04.32.28-.44,3.48.95,4.53,5.73,4.34,15.8-15.35,23.08-12.58,1.56,7.15-2.74,4.49-4.32,5.98-3.18,2.99-6.67,10.51-12.68,11.03-.94,1.2,14.62,16.02,11.99,19.99-10.45-.95-10.91-9.77-16.51-16.02l-16.4,14.59c-12.83,2.6-26.06,1.02-39.08,1.44v-32c0-.25,4.23-.17,4.86-1.15s-.17-3.46.15-3.85c.14-.18,2.71,1.07,4.43,1.06,5.78-.06,17.66-1.43,22.13-.96,5.53.59.94,7.9.42,7.9h-23v8h23c.2,0,.2,4,0,4h-22.5c-5.24,0-4.01,11.5-3.51,12.01,1.04,1.04,25.29-.2,29.34.01,1.79-5.71,14.69-10.32,12.49-17.38-.87-2.79-2.76-.91-3.82-9.64-.73-.2-2.78.23-2.99,0-.68-.77,1.9-8.96,2.99,0Z"/>
      <path class="cls-2" d="M878.5,275.99c-4.34-1.66-1.75-25.84,1.03-29.97.67-1,2.7-.9,3.45-1.59,1.19-1.1.63-3.15,1.64-3.51,1.27-.45,24.72-.99,26.93-.79,3.84.34,5.85,4.48,6.46,7.85,2.17-2.63,2.2-9.64,7.86-5.85,1.37.92,5.37,23.55,8.87,23.85,4.33.38,14.24-14.65,17.19-18.79.88-1.23.53-4.76,2.04-5.73,4.75-3.06,6.42,1.85,5.1,5.97-.32,1.01-2.42.27-2.75.81-2.34,3.77-15.77,26.67-17.29,27.25-16.23,6.23-7.42-17.55-17.53-22.56-5.59.14-2.31,23.06-14.99,23.06h-28ZM911,247.99h-25.5c-2.41,7.68-7.37,15.76-4.5,24h23.5c3.59,0,6.5-5.52,6.5-8.5v-15.5Z"/>
      <path class="cls-2" d="M1358,276.99l1.93-23.45c5.19-.41,2.55-4.37,3.07-8.56-3.49-.79-2.62,2.25-5.68,2.77-2.51.43-11.89-.21-12.32.22-.46.47.45,6.02.08,7.57-.51,2.16-3.59,5.84-2.5,10.52l-5.06,10.91c-4.91-4.58,2.72-26.96-2.16-28.85-5.52-2.14-13.27,4.47-11.35-8.14,8.37,2.77,69.9-1.06,71.84,2.15.7,1.17-.12,4.26.15,5.85h-23.5c-5.05,0-4.06,9-3.5,9h22c.15,0,.15,3,0,3h-21.5c-3.48,0-7.42,12-5.5,12h27c.25,0,.25,5,0,5h-33Z"/>
      <path class="cls-5" d="M233,16.99C252.54,10.14,272.9-.03,295.53,1.96c3.01.26,8.88.54,6.23,4.82-1.63,2.63-36.01,11.57-41.77,13.71-8.42,3.13-16.01,7.57-23.99,11.51l-3-15Z"/>
      <path class="cls-5" d="M143,16.99c10.23-4.29,26.05-11.38,38.62-13.88,12.32-2.45,26.82-3.03,39.37-3.12.48,1.93-5.65,4.32-6.78,4.71-25.52,8.93-42.17,11.46-67.22,25.28.1-5.03-1.64-8.8-4-13Z"/>
      <path class="cls-2" d="M1077.77,246.21c2.36,5.34-2.96,26.69-8.84,29.21-3.31,1.42-26.47,2.58-29.36,1.64-1.03-.34-.24-2.29-.8-2.77-.83-.71-2.82-.49-3.36-1.25s.47-16.55.8-18.34c.4-2.17,5.78-12.33,7.82-13.18,1.9-.79,25.1-1.1,27.47-.54.44.1,6.1,4.85,6.27,5.22ZM1070,247.99h-23.5c-4.98,0-4.82,20.11-3.5,24h24c.38,0,3.61-5.28,3.73-6.71.39-4.4-1.01-12.32-.73-17.29Z"/>
      <path class="cls-4" d="M1099,125.99c-.13-.12-1.41.31-1.77-.22-.66-.96.19-2.95-.37-3.68-.37-.48-2.54.44-2.93-.65-.18-.53-.15-8.08.05-8.98.55-2.45,2.72-2.07,3.04-3.18.75-2.59-.68-4.41,1.29-8.5,3.75-7.79,18.46-13.91,27.23-14.77,10.09-.98,80.59-1.74,86.84.14,1.23.37,1.25,2.47,2.42,2.79,2.05.56,9.4.73,10.07,1.18.81.54.55,3.53,1.11,4.2.88,1.05,2.48.5,2.74.88,3.55,5.37,2.71,13.25,6.29,18.78-1.46.07-3.57,1.44-5.88-.13,1.53-15.91-4.56-21.95-19.74-23.74-12.94-1.53-87.42-1.61-96.6,1.9-.73.28-9.45,6.07-9.83,6.63-4.36,6.56-5.91,19.73-3.97,27.34.77.74,2.84,2.86,3,3-2.34.1-2.52-1.11-3-3Z"/>
      <path class="cls-2" d="M980.38,253.63c.1.28,1.57.66,2.2,2.25.87,2.18-.12,5.81.59,7.01.17.28,3.47-.55,4.54,3.87,1.4,5.74-.63,15.1-6.71,8.73-1.55-1.63-1.1-4.96-1.87-5.92-.71-.88-21.17-1.1-22.5-.64-1.22.43-.77,9.82-8.62,7.05-.67-.59,4.42-9.98,5.17-11.32,2.56-4.53,7.12-8.75,9.58-11.92,1.42-1.84,7.55-11.98,8.27-12.31,6.93-3.21,8.02,9.67,9.36,13.18ZM976,250.99c-6.57-1.02-12.38,5.79-11.58,12.06,14.25,3.73,11.74-.04,11.58-12.06Z"/>
      <path class="cls-2" d="M1022,247.99h-15c-.52,0-3.47,8.47-3.74,9.76-.74,3.53-.04,18.93-3.75,19.34s-4.02-.53-4.55-3.55c-1.85-10.5,4.96-15.24,3.05-25.55h-14c-.53-3.75-.08-7.56,4.39-8.08,3.22-.37,30.48-.36,31.97.22,2.69,1.05,1.42,5.44,1.64,7.86Z"/>
      <path class="cls-4" d="M695,98.99c.28,4.65.25,9.48-1,14h71c-.13,4.83,3.06,9.82-1.23,13.77-3.64,3.35-62.77.05-72.3,1.14l-5.47,3.09c.29-1.32-.56-3.26.97-4.51,3.41-3.62,63.89-.37,73.44-1.42,1.02-.38,2.67-10.06.09-10.06h-66c-8.73,0-6.23-15.29.5-16Z"/>
      <path class="cls-5" d="M228,101.99c.01-.23-1.71-1.03-.56-2.96.32-.53,8.28-8.45,8.84-8.72.71-.34,14.02-4.16,15.25-4.3,9.18-1.02,84.01-.99,88.71.98,1.34.56,1.43,2.84,1.76,2.99,1.14,2.59-7.29,1.72-7.69,1.68-25.77-3.13-62.33-3.98-86.92.29-1.48.26-5.39-1.52-8.24.27-.43.27.05,2.43-.24,2.62-1.87,1.19-5.38-1.99-5.18,2.89l-5.74,4.26Z"/>
      <path class="cls-4" d="M1217,205.99c.92,5.08-2.21,2.11-4,3-.67.33-9.14,5.58-11.68,5.83-1.19.12-3.36-2.26-6.85-1.94-31.15,2.83-64.15,4.95-96.69,1.81-1.46-.14-5.58-.07-4.78-2.7,22.85.69,103.05,3.41,120-3,.27-.1.37-1.23,4-3Z"/>
      <path class="cls-4" d="M691,199.99c9.37.79,39.98,1.31,46-3.54,2.15-1.73,3.4-5.37,7.76-8.7.7-.53.1-2.76.24-2.76h16c2.17,6.27-2.05,7.7-2.82,9.65-3.08,7.83-3.78,11.96-13.18,14.35l9.27-11.74c4.73.23,2.19-4.59,2.74-8.26-12.28-3.58-12.64,7.83-20.82,10.9-4.59,1.72-10.78.68-11.18,1.1-.35.35.34,3.67,0,4.02-1.14,1.14-30.79.54-32.33.03s-1.48-3.68-1.68-5.04Z"/>
      <path class="cls-5" d="M323,196.99c.49,2.29-1.07,2.26-2.69,2.76-7.68,2.37-83.39,2.44-91.53.15-.27-.08-3.1-2.93-4.78-2.91,27.96,1.98,70.97,1.85,99,0Z"/>
      <path class="cls-5" d="M1193,197.99c-1.17.34-2.98,1.81-4,2-19.45,3.59-63.23,3.69-83,1v-3c.18,0,1.61-1.09,3.38-1.07,27.88.3,55.81.33,83.62,1.07Z"/>
      <path class="cls-5" d="M1189,248.99c.49-2.59,6.8-9.04,9.44-9.12,2.95-.08,5.91,1.09,9.03,1.18,2.94.08,9.42-1.54,10.9-.98,1.8.67,1.14,3.04,2.28,4.02.87.74,3.9.54,4.24,1.02.23.32.4,7.61.12,7.89s-7.28.17-7.85-.16c-.75-.43-.95-3.85-1.15-3.85h-18c-2.26,10.91,4.52,4.03,7,11-6.58.31.1,2.41,0,9,6.78,1.84,7.97,2.77,0,3,.01-1-.02-2,0-3-6.05-1.64-1.46-2.06-3.87-5.43-1.24-1.74-5.22,1.46-4.13-3.57,9.86-1,.95-2.01-.33-2.97-1.02-.77-.37-2.19-.92-2.78s-2.33.22-2.82-.82c-1.08-2.27,2.72-5.45-3.92-4.43ZM1219.99,245c-1.94-2.14-4.47,2.36-2.99,3.99,1.94,2.14,4.47-2.36,2.99-3.99Z"/>
      <path class="cls-5" d="M1617,211.99c-5.7,3.93-10.49,4.53-17.46,5.04-20.25,1.47-40.71-2.01-60.98-.97l-2.56-3.07c24.25.65,56.47.26,81-1Z"/>
      <path class="cls-4" d="M1114,145.99c.18,0,1.62-1.1,3.38-1.08,15.68.24,31.34,1.94,47.07,1,1.21.41-.1,2.73,1.11,3.14,4.97,1.7,26.31-.94,33.95-.08,3.64.41,9.72,1.4,9.5,6-32.5-6.07-61.86-2.47-94-6l-1-3Z"/>
      <path class="cls-5" d="M242,73.99c.03-3.36,2.09-2.86,4.45-3.06,21.8-1.81,77.38-2.74,98.1.05,2.89.39,2.64-.75,2.45,3-31.54-1.07-74.08-2.43-105,0Z"/>
      <path class="cls-5" d="M1223,73.99c-32.44-1.37-73.7-1.84-106,0,0-2.7,1.19-2.8,3.45-3.05,20.63-2.36,72.07-1.98,93.11,0,3.24.3,6.62,1.52,9.44,3.06Z"/>
      <path class="cls-4" d="M1616,199.99c.15,5.75-6.7.65-6.99,1-.26.31.19,4-.01,4h-63c.71-3.48,2.51-4.46-2-4,23.28,1.08,48.75,1.06,72-1Z"/>
      <path class="cls-4" d="M1205,259.99c.3-.01.72-.07,1,0-.52,4.54.64,2.39,3,3,1.02.26,2.94-.44,4.05.43,1.92,1.51-.6,5.32,2.94,4.57-.46-5.46,2.4-4.1,3.77-5.25.52-.44.05-2.37.36-2.57,6.48-4.23,5.38,8.32,4.89,8.82-.34.35-3.58-.37-4.02,0-.28.23.26,2.3,0,3-.64,1.77-.87,3.18-2,5-.65.07-1.34-.04-2,0-.85-8.01-5.61-2.19-9.45-1.95-6.92.43-14.01-.42-20.95-.03l-.6-3.01c.98-.12,2.03.12,3,0,4.7-.62,11,.15,16,0,7.97-.23,6.78-1.16,0-3,.1-6.59-6.58-8.69,0-9Z"/>
      <path class="cls-4" d="M1292,113.99c0-2.7,1.19-2.8,3.45-3.05,14.84-1.7,32.87,1.4,48.08.03,6.14,1.14,25.09,5.37,28.12,11.35,1.08,2.12.65,5.78,1.32,7.03,1.15,2.14,2.23-2.35,3.03,4.64-5.94.72-3.02-4.62-4.23-6.79-.79-1.42-17.09-12.81-18.51-13.21-6.87-1.95-50.96-.36-61.27,0Z"/>
      <path class="cls-4" d="M237,73.99c-.26,1.52-.44,2.98-1.72,4.06-2.59,2.19-14.97,7.62-16.09,9.08-.68.87.2,3.16-.38,4.19-.89,1.61-2.38,1.34-3.41,3.57-.81,1.75.08,5.09-.55,6.03-.29.43-2.55-.5-2.94.62-.5,1.47.44,5.54,0,7.89-.39,2.12-1.75,3.62-1.96,6.03-.15,1.83,1.57,17.74,2.17,18.45.52.62,4.02-1.59,2.87,4.06,3.85.93,9.33,3.04,12.8,4.73,1.89.92,2.75-.34,2.17,3.29-1.94-.1-6.3.47-7.45.07s-.2-2.57-.65-2.91c-.86-.63-4.35.07-6.29-1.09-.34-.2-4.89-5.76-5.11-6.09-.93-1.42-.05-4.07-.65-4.9-.28-.38-2.47.16-2.7-.17-.7-1-.59-22.18-.21-24.46,1.73-10.62,19.21-30.2,30.07-32.46Z"/>
      <path class="cls-2" d="M1495,240.99v16.5c0,5.46-6.98,13.38-5.01,19.49-13.67-2.69-4.22-6.24-3.39-10.93,1.55-8.68-.86-9.16,3.24-18.7,1.33-3.1-2.22-6.58,5.16-6.37Z"/>
      <path class="cls-4" d="M284,133.99c16.47-.06,32.97,0,49.45.05,4.73,3.78,15.4,2.46,19.29,6.2,1.29,1.24.83,3.38,1.26,4.75,4.02,2.29,1.49,1.04,3.3,2.63,1.08.95,3.15,1.65,3.78,2.78,1.46,2.62.67,4.13.92,6.59-5.42,1.3-4.29-6.7-5.16-7.9-.33-.46-2.41.47-2.91-.68-.31-.7.35-2.54.07-3.42-23.33-13.29-43.21-4.71-67.55-8-2.89-.39-2.64.75-2.45-3Z"/>
      <path class="cls-4" d="M1589,157.99c-10.03-.06-32.26,1.78-40.53.01-1.57-.34-10.25-6.11-7.59-8.95-3.6,1.38-3.69-4.32-2.95-6.51.41-1.21,2.76.09,3.15-1.1,1.54-4.76-2.51-4.78,3.67-10.49.83-.77,2.95-.49,4.02-1.2.9-.6.77-3.28,1.37-3.63,3.09-1.79,63.29-1.62,71.4-1.17,5.09.28,13.33-.81,12.46,6.03-15.74-5.96-62.7-5.98-77.94-1.47-2.6.77-9.72,1.1-10.07,1.47-.37.39.5,3.41.03,4.28-.73,1.34-2.49.8-3.04,3.19-.28,1.24-.36,12.97.09,13.47.33.37,8.53,2.97,9.4,3.09,10.28,1.4,23.55-1.23,34.08-.03,2.96.34,2.61-.66,2.45,3Z"/>
      <path class="cls-5" d="M1189,255.99c3.04.34,4.26.11,4,4-7.11.53-2.28.88-4.23,3.76-.46.68-2.34.9-2.77,1.73-1.75,3.36,5.24,1.39,3,6.5-.97.13-2.02-.12-3,0l.6,3.01c6.94-.39,14.03.46,20.95.03,3.84-.24,8.61-6.06,9.45,1.95-3.65.21-36,.79-36-2v-15.5c0-2.39,5.66-3.76,8-3.5Z"/>
      <path class="cls-4" d="M805,132.99c3.43-4.21,8.34-7.39,14.68-7.93,11.83-1.01,33.18-.98,45.88-.11,1.85.13,13.17,1.68,13.78,2.02.98.54.44,2.31.95,2.68,1.77,1.27,5.54,2.92,6.66,5.15,1.81,3.61-.03,5.27.05,6.2-3.06-2.55-3.25-6.05-6.6-8.92-.31-.26-6.48-4.07-6.87-4.17-14.13-3.76-55.14-1.09-68.53,5.09-2.85,3.5-6.38,12.36-11,13,.96-6.11,5.03-10.24,11-13Z"/>
      <path class="cls-4" d="M398,141.99c.22-.48-.21-2.19.57-3.94,2.18-4.9,21.53-12.39,27-13,7.83-.87,46.76-1.07,51.62,2.26,1.74,1.19,2.29,1.1,1.81,3.67-20.38-5.97-41.51-6.09-61.55-.05-2.02.61-6.06-.61-7.36.21-.29.18.14,2.33-.29,2.57-1.29.73-3.1.47-4.08,1.23-2.51,1.95-4.21,6.46-7.73,7.04Z"/>
      <path class="cls-5" d="M1559,113.99c2.42-.91,2.58-2.77,5.38-3.08,10.65-1.17,48.12-1.53,58.15.02,1.98.3,1.85,2.26,3.47,3.06-21.13-1.13-45.68-.49-67,0Z"/>
      <path class="cls-2" d="M1030.99,241c2.17,2.36-3.39,30.02-4.01,34.99-2.78.13-4.23.51-4.98-2.5s3.83-27.9,5.19-30.81c.79-1.7,3.11-2.44,3.8-1.69Z"/>
      <path class="cls-4" d="M671,142.99c-1.89,9.24-6.82,23.14-7.93,31.57-.36,2.72-.62,23.4-.14,24.86.34,1.05,2.5.27,2.79.77.74,1.23.49,3.29,1.33,4.25,1.33,1.51,2.74,1.09,3.7,1.86.49.39.05,2.31.36,2.51,1.51.98,8.34-1.13,7.89,3.18-5.5-.49-6.39,1.43-11.9-3.58-10.25-9.35-6.67-25.18-4.88-37.69.7-4.89,2.22-15.31,3.21-19.82.1-.47,4.34-8.03,5.57-7.9Z"/>
      <path class="cls-5" d="M659,85.99c-.09,1.33.08,2.68,0,4-6.69-.76-17.58,3.3-18.07-6.52-.82-16.56,20.69-17.08,21.13-8.05.15,3.13.66,4.07-3.07,3.57-.08-1.66.07-3.35,0-5.01-2.08.4-11.2-.58-11.95.07-.48.42-2.2,10.36-3.06,11.93h15Z"/>
      <path class="cls-4" d="M1213,154.99c2.74.3,6.32,2.13,7.02,5.46,4.49,21.28-8.81,40.53-31.02,39.54,1.02-.19,2.83-1.66,4-2,5.95-1.72,20.79-7.94,22.96-13.79,1.37-3.7,1.44-22,.1-25.62-.5-1.34-4.25.78-3.06-3.59Z"/>
      <path class="cls-4" d="M1331,212.99c-3.66-1.04-3.37,1.74-6.38,2.08-18.4,2.1-39.5-1.39-56.62-2.08v-1c21.01,1.03,41.93-.86,63,1Z"/>
      <path class="cls-5" d="M198,192.99c-3.73.19-2.63.46-3-2.45-2.55-19.65.19-19.59,19.86-16.4.57,4.57-.21,9.28.15,13.85-5.58,1.46-2.92-10.46-5.15-11.86-.44-.28-8.46-.43-9.26-.2-3.03.88-2.8,14.05-2.6,17.06Z"/>
      <path class="cls-1" d="M659,85.99h-15c.86-1.57,2.58-11.52,3.06-11.94.75-.65,9.87.34,11.95-.07.07,1.66-.09,3.34,0,5.01.11,2.25.14,4.76,0,7Z"/>
      <path class="cls-4" d="M817,112.99c2.95.6,4.76-1.72,7.46-2.05,9.31-1.14,35.73-1.07,45.16-.03,2.8.31,2.96,2.17,5.38,3.08-19.27-.15-38.8-.99-58-1Z"/>
      <path class="cls-2" d="M1043,207.99c3.95.27,8.7,1.44,7.99,6.26-.31,3.68-19.12,3.45-22.26,2.7-.47-.11-7.82-5.12-6.73-6.96,2.3.63,1.99,1.91,3.45,2.07,6.37.69,14.01-.65,20.54-.08.61-2.53-1.36-1.94-2.99-2.99v-1Z"/>
      <path class="cls-5" d="M1519,181.99v3c0,4.95-.88,15.28.17,19.36.07.28,3.25,4.5,3.5,4.66.51.32,10.73,3.95,11.33,3.99-7.07,3.77-5.64-.55-9.26-2.72-1.15-.69-3.2.13-4.69-.85-4.03-2.66-2.56-6.57-3.17-7.36-.27-.35-2.44.22-2.74-.14-.5-.59-.74-14.68-.36-15.54.32-.72,4.66-4.29,5.23-4.38Z"/>
      <path class="cls-4" d="M1086,97.99c-.54,5.55-1.32,2.71-1.79,4.67-1,4.17-2.34,24.6-1.28,27.7.38,1.12,2.9.58,3.56,1.6,1.68,2.56,2.24,6.52,5.76,8.39,4.47,2.38,8.82,1.54,12.74,5.64-7.18-.19-11.19-.34-16.9-5.6-.43-.4-5.78-6.61-5.91-7.05-1.23-4.17-2.05-33.6,3.81-35.35Z"/>
      <path class="cls-4" d="M362,178.99c-1.49,16.38-11.35,31.04-29,32,.14-.05-.18-1.91,0-1.99.99-.48,4.64.44,6.78-.66,13.84-7.09,13.81-14.21,19.24-26.88.72-1.68-1.53-3.08,2.99-2.47Z"/>
      <path class="cls-4" d="M1249,172.99c-.29,8.18-.24,16.81,0,25-1.15-.63-4.65-.43-5.06-1.63-.66-1.92-.09-19.72.06-23.37h5Z"/>
      <path class="cls-4" d="M788,90.99c.13-2.92,3.52-19.07,5.63-19.87,1.15-.44,14.52-1.04,15.25,0,.37.53,1.55,12.85-2.87,11.87-.11-2.17.72-7.33-.94-8.56-.88-.66-10.33-.76-10.95-.32-.67.48-.99,7.23-1.57,8.92l-4.54,7.96Z"/>
      <path class="cls-4" d="M374,176.99c-.45,5.16-3,11.83-3,12.5v15c0,.4-3.65,5.27-3,7.5-.43.05-1.84,1.45-3,1-.45-2.34-.25-9.88.23-12.32.56-2.81,2.74-2.72,3.07-3.91.92-3.38.39-9.27.65-10.04.41-1.21,2.45-1.01,2.89-2.35.8-2.43-1.62-7.8,2.16-7.38Z"/>
      <path class="cls-4" d="M230,127.99c2.41.82,7.99,1.71,8.35,1.95,1.21.78.13,2.77,1.22,3.12,8.62,2.78,31.32-3.02,41.43.93-18.29.12-30.64,4.21-47.72-2.97-4.16-1.75-4.22,3.02-5.28-3.03.62.11,1.51-.17,2,0Z"/>
      <path class="cls-4" d="M1087,184.99c-7.1,1.91-1.78-5.34-5.64-6.86-3.19-1.26-11.83-1.23-11.36,3.86.08-2.32-2.22-6.72,1-8.5,1.46-.81,10.58-.86,12.46-.46,5.39,1.15,3.19,7.83,3.54,11.96Z"/>
      <path class="cls-4" d="M671,113.99c3.02-1.3,2.01-4.65,3.27-6.75.33-.56,3.17-.25,3.63-1.81.96-3.26-4.85-10.94,5.68-12.37,5.15-.7,10.74-1.06,11.43,3.92-1.74-2.23-12.39-2.66-13.01-2.01-.67.71-1.96,15.95-2.91,17.34-1.45,2.12-5.83,1.56-8.08,1.67Z"/>
      <path class="cls-5" d="M1487,113.99c-19.39.58-39.61-.63-58,0h58Z"/>
      <path class="cls-4" d="M341,154.99c9.16,1.65,4.13,3.95,6.12,6.94.28.42,2.55-.52,2.95.61.25.71.14,11.37-.1,12.73-.14.76-1.93.8-2.55,2.6-1.81,5.24,2.61,7.85-6.42,8.12,3.93-5.91,8.07-20.62,3.52-27.04-1.06-1.49-2.98-.66-3.52-.96v-3Z"/>
      <path class="cls-4" d="M1619,157.99c3.15.02,11.16-2.79,11.55,3.07,10-1.44,12.46,9.95,12.53,18.43.02,2.56-.62,11.68-1.11,13.78-.08.33-3.11,6.23-4.96,4.72.25-1.37-.49-4.06.14-4.92.3-.41,2.54.5,2.94-.63s.35-21.79,0-22.88c-.33-1.01-2.33-.25-2.75-.82-6.49-8.83-8.35-6.99-18.32-10.74Z"/>
      <path class="cls-5" d="M1616,169.99c1.95.1,6.21-.49,7.38-.07,1.06.38.56,2.57,1.19,2.99,1.14.76,5.1,2.54,5.37,3.84.93,4.55,1.65,13.49-4.93,12.24-.05-1.83-.82-13-1.28-13.74-2.01-3.26-9.05-.22-7.72-5.26Z"/>
      <path class="cls-4" d="M680,196.99c-5.39-3.18-8.25-10.19-5.35-16.77,1.01-2.28,4.24-2.03,4.36-2.25.32-.59-3.09-10.5.99-12.99-.96,10.46-.15,21.5,0,32Z"/>
      <path class="cls-4" d="M802,109.99c-.76,14.78,5.52,3.06,13,3,1.1,4.94-6.08,4.65-8.2,6.04-1.12.74-8.01,7.77-8.8,6.95-.59-4.62-1.92-14.57,3.99-15.99Z"/>
      <path class="cls-5" d="M959,117.99c-8.93,11.43-14.63,18.65-11.93,34.45-.42,1.22-2.64.27-3.07.55-1.12.73-1.42,3.57-7,2,.19-.22-.13-1.44,0-2,1.13-.25,2.77.2,4,0,.8-.13,2.8.2,3,0,.18-.18-.1-2.21,0-3,1.03-8.54-1.19-14.05,3.51-21.96,1.98-3.33,7.83-8.49,11.49-10.04Z"/>
      <path class="cls-4" d="M476,113.99c5.22-3.92,8.23.58,10.08,1.38,2.1.91,9.32,4.41,10.71,5.8.34.34,1.75,6.63,4.72,7.82,2.43.98,1.86-4.58,3.17-6.07,1.75-1.99,4.75-1.39,6.32-1.92-1.05,3.28-6.46,5.85-6.76,6.23-.95,1.2-.16,7.73-2.73,6.76-4.06-2.2-6.3-10.1-8.16-12.09-.67-.72-16.19-7.77-17.35-7.9Z"/>
      <path class="cls-5" d="M730,212.99c.56,3.03-1.53,1.93-3.45,2-8.72.34-36.01,1.76-42.89.02-1.12-.29-.56-1.99-.66-2.02,12.74,1.44,33.65.45,47,0Z"/>
      <path class="cls-5" d="M1511,169.99c-.47,12.18-2.52,6.13-3.88,9.62-1.05,2.7.42,9.98-.17,13.66-.05.34-3.11,6.23-4.96,4.72.53-7.3,3-8.48,3-9v-14.5c0-1.15,3.45-6.49,6-4.5Z"/>
      <path class="cls-5" d="M1630,113.99c.76-3.03,6.53-1.48,8.3-.76,3.3,1.34,8.76,6.53,11.06,8.45.74.62,4.24,1.44,4.57,3.07.54,2.64.22,8.24.07,11.24-3.38.83-1.65-3.22-2-6-.49-3.87,1.58-4.46-4-4-.31-.74.41-2.69.07-3.4-.52-1.09-2.22-.23-2.84-.84-.51-.5-.04-2.39-.38-2.55-1.56-.76-4.5-.07-6.47-1.05-3.88-1.94-2.86-3.61-8.38-4.16Z"/>
      <path class="cls-5" d="M383,199.99c-.19,3.07,1.64,11.46-.97,14.53-1.67,1.97-16.06,3.49-17.03-1.53,1.16.45,2.57-.95,3-1,2.64-.31,10.55.65,11.85-.15,2.7-1.66-1.25-11.54,3.15-11.85Z"/>
      <path class="cls-4" d="M251,145.99c6.49.05,15.5-.82,21.55,0,2.89.39,2.64-.75,2.45,3-8.2.03-15.84.46-24,0v-3Z"/>
      <path class="cls-5" d="M1043,187.99c-5.04,9.77-9.69,10.3,0,20v1c-4.6-2.96-9.31-5.3-13-9.52,4.47-3.31,7.28-10.21,13-11.48Z"/>
      <path class="cls-5" d="M1511,131.99c1.58,2.1,2.69,1.23,3.07,4.39.84,7,1.06,20.97-3.07,26.61.17-9.4.85-21.3,0-31Z"/>
      <path class="cls-5" d="M1244,93.99c1.21.3,4.47-.73,5.02.59.32.76.56,15.84-.01,16.42-.4.4-4.1-.4-5.01,0-.25-5.63.35-11.39,0-17Z"/>
      <path class="cls-5" d="M1393,201.99c-2.25,12.62,3.32,15.37-16.33,13.83-3.32-1.23-.66-3.49-.67-3.83,2.28-.39,14.47.54,15.01,0,1.03-1.03-2.23-10.56,1.99-10.01Z"/>
      <path class="cls-4" d="M357,103.99c3.9-.71.73,3.6,2.58,5.13,2.2,1.81,11.23.45,14.42.87-.08,1.33.08,2.68,0,4-3.68-1.01-15.63,2.64-17.01-1.73-.56-1.78.18-5.89,0-8.27Z"/>
      <path class="cls-5" d="M1490,113.99c6.77-.28,4.16,1.69,6.04,2.5,6.92,2.94,5.01,2.23,10.26,8.21,1.49,1.7,4.32-.04,4.69,5.29-5.98,2.03-6.36-4.87-9.35-7.65-3.71-3.46-10.57-3.52-11.65-8.35Z"/>
      <path class="cls-4" d="M1229,149.99c7.31-.37,6.62,19.58,6.05,24.55-.26,2.26-.35,3.45-3.05,3.45.27-3.86.76-20.7.01-23.28-.27-.93-1.9-.49-3.01-4.72Z"/>
      <path class="cls-4" d="M897,125.99c5.33-1.34,3.06,5.39,4.17,6.9.34.46,2.52-.45,2.91.65.66,1.89,1.08,19.79-3.07,20.45.24-11.05.44-17.75-4-28Z"/>
      <path class="cls-5" d="M1112,73.99c-.36,5.84-7.01,4.5-9.36,5.96-.89.55-7.62,7.02-9.41,9.08-1.05,1.21-1.37-.69-3.23,2.97h-2c3.37-7.85,15.42-16.75,24-18Z"/>
      <path class="cls-5" d="M521,130.99l-11.69,11.31c-.7,2.97-1.54,7.24-5.31,7.69,1.45-9.24,3.85-11.12,11.74-16.33,2.35-1.55-2.69-.86,5.26-2.67Z"/>
      <path class="cls-5" d="M1529,181.99c.97.02,3.73-1.46,5.06.63.3,4.59-.59,9.9-.06,14.37-7.44,2.14-5-6.04-5-12v-3Z"/>
      <path class="cls-4" d="M583,113.99c-19.7-.36-41.69-1.13-61,2,0-2.75,1.2-2.75,3.45-3.05,16.7-2.24,40.3.97,57.55,1.05Z"/>
      <path class="cls-4" d="M663,117.99c.03,1.31-.25,6.76,0,7.01,1.32,1.33,14.74-3.26,10.84,7.37-1.42,3.85-1.49,2.12-2.83,8.62-2.2,1.07-2.08-6.99-2.05-7.37.03-.34,4.37-3.1.92-5.5-2.62-1.82-11.77,3.49-6.87-10.13Z"/>
      <path class="cls-4" d="M336,154.99c-9.19-2.39-12.74-3.49-23.55-4-1.91-.09-4.01,1.03-3.45-2,7.58.16,25.71-3.27,27,6Z"/>
      <path class="cls-4" d="M362,78.99c5.57.64,2.09,2.22,4.28,3.73,1.26.87,6.84,3.27,7.47,4.51,1.41,2.74.16,7,.25,9.77-2.48-1.91-4.35-8.49-5.52-10.01-.72-.93-6.05-3.78-6.29-4.13-.72-1.08.15-3.04-.19-3.87Z"/>
      <path class="cls-5" d="M781,211.99c-1.94,8.66-9.06,4.41-16,3.5-2.31-1.54,0-3.23,0-3.5,5.29,2.02,10.65.64,16,0Z"/>
      <path class="cls-4" d="M608,124.99c.19.16,2.15-.39,2.7.23,6.48,7.27,5.06,17.88,3.3,26.77-.09-8.43.49-9.1-2.32-16.2-.75-1.89-.28-4.82-.84-5.7-.28-.44-4.39,1.22-2.83-5.1Z"/>
      <path class="cls-4" d="M1189,248.99c6.64-1.01,2.85,2.17,3.92,4.43.49,1.04,2.24.2,2.82.82s-.1,2.01.92,2.78c1.28.96,10.2,1.97.33,2.97-1.31.13-2.68-.1-4,0,.26-3.89-.96-3.66-4-4,.27-2.17-.38-4.98,0-7Z"/>
      <path class="cls-5" d="M228,105.99c-.46,5.28-1.31,10.71-1,16l-5-1c-.03-.33.02-.67,0-1,4.16-2.41.52-8.88,2-13,1.39-.74,2.22-1.4,4-1Z"/>
      <path class="cls-5" d="M1249,160.99c-.38,3.77.14,8.11,0,12h-5c.21-4.87-2.32-13.3,5-12Z"/>
      <path class="cls-4" d="M1376,149.99c-.27,6.54.59,15.41-4,20,.43-4.94-2.74-20.13,4-20Z"/>
      <path class="cls-5" d="M1487,212.99c1.75.17,9.38.39,10.38.07.79-.26,1.16-3.03,1.62-4.07h3c-.79,7.38-7.98,7.53-15,8-.09-1.32.09-2.68,0-4-1.31-.13-2.68.1-3.99,0,.3-3.72,1.85-2.84,2.99-6.99,1.86,1.62.85,4.82,1,7Z"/>
      <path class="cls-4" d="M427,113.99c-5.43.61-5.22,2.09-7.78,2.72-4.96,1.24-9.96,1.97-14.22,4.28-1.15-5.16,6.02-3.99,6.44-4.15,1.28-.48,1.09-2.54,2.32-2.84,3.07-.76,10.33-1.77,13.25,0Z"/>
      <path class="cls-5" d="M1412,121.99c-.02,1.23-1.78,4-1.01,5.99-8.4-1.89-2.3-8.35-2.99-13.99.23,0,1.2-2,2.54-.04-.19,2.16,1.49,6.6,1.46,8.04Z"/>
      <path class="cls-5" d="M1225,73.99c2.28.09,4.63-.33,6.87.2l5.13,7.8c-4.14-2.24-12.28-1.57-12-8Z"/>
      <path class="cls-4" d="M1232,179.99c3.09-.55,1.95,1.54,1.93,3.46-.06,5.97-2.66,10.76-7.93,14.54,2.27-4.77,5.44-12.59,6-18Z"/>
      <path class="cls-4" d="M591,113.99c6.87.11,2.44.42,5.8,1.96,3.11,1.43,7.51-1.04,6.2,5.04-3.98-1.78-10.94-2.07-12-7Z"/>
      <path class="cls-5" d="M251,145.99v3c-4.05-.23-8.64.45-12.55,0-2.97-.34-2.61.65-2.45-3,4.98.14,10.02-.04,15,0Z"/>
      <path class="cls-5" d="M1193,133.99c3.98.06,8.76-.43,12.55,0,2.97.34,2.61-.65,2.45,3-4-.24-8.76.51-12.55,0-2.9-.39-2.64.75-2.45-3Z"/>
      <path class="cls-4" d="M1490,130.99c8.23,2.77,7.36,2.56,8,11-5.33-.36-4.41-6.72-5.13-7.94-.26-.44-4.1,1.18-2.87-3.06Z"/>
      <path class="cls-4" d="M401,115.99c1.09,2.44.57,3.52,1.03,4.99.07.22,1.92-.1,1.97.01.17.43-4.06,8.15-6,6.01.42-2.87-1.64-10.86,3-11.01Z"/>
      <path class="cls-4" d="M614,153.99c-.1,4.92,1.68,11.35-3,15,.2-4.36-1.99-14.5,3-15Z"/>
      <path class="cls-5" d="M1420,130.99c1.57,4.14-7.09,5.04-9,6-.21.82.35,2.24-.03,3.25l-7.97,10.75c1.28-9.88,1.09-3.7,2.85-6.09s-2.41-4.09,5.15-7.91c.2-.77-.37-2.5.06-2.93.34-.33,7.61-2.6,8.94-3.07Z"/>
      <path class="cls-4" d="M785,111.99c.33-5.14-.3-14.07,3-18-.08,1.49,1.45,4.32.76,8.28-.48,2.79-3.06,6.6-3.76,9.72Z"/>
      <path class="cls-5" d="M765,200.99c.63-8.57,1.87-11.38,5-19-.25,5.16.49,16.74-5,19Z"/>
      <path class="cls-2" d="M937,152.99c-.13.56.19,1.78,0,2-3.68,4.31-8.75,10.15-14,12,1.76-3.85,10.09-13.13,14-14Z"/>
      <path class="cls-5" d="M1549,113.99c-.41,5.12-9.56,5.46-12,7-.12.08-.34.73-2,2-.73-2.51,1.77-1.76,2-2,4.18-4.29,5.34-6.57,12-7Z"/>
      <path class="cls-4" d="M608,188.99c-.43,3.42-1.7,10.8-5,11,.34-4.57-1.91-11.12,5-11Z"/>
      <path class="cls-5" d="M1043,128.99c4.21-.91,3.48,11.29,3.07,12.46s-2.84.31-3.07.54c-.24-4.29.34-8.73,0-13Z"/>
      <path class="cls-5" d="M1034,117.99c5.86.79,8.12,1.55,9,8-3.77.38-5.62-5.81-9-8Z"/>
      <path class="cls-5" d="M1391,136.99c-.26,3.94,1.74,9.61-4,9,.24-3.94-1.72-9.61,4-9Z"/>
      <path class="cls-5" d="M1074,199.99c3.02-.61,3.74,4.41,4.15,4.81,1.76,1.75,2.85-2.77,3.85,3.19v1c-2.17-.41-6.96-3.63-8.11-5.46-1.45-2.32.18-3.06.11-3.54Z"/>
      <path class="cls-5" d="M785,112.99c-.25,3.83,1.85,11.77-3,12,.21-3.82-1.82-11.79,3-12Z"/>
      <path class="cls-4" d="M635,124.99c-.65,7.69.37,7.56-3,15-1.4-3.22.38-8.16.96-11.59.32-1.87-1.09-3.99,2.04-3.41Z"/>
      <path class="cls-4" d="M683,151.99c.52-5.83.56-10.59,3-16-.02.37,1.26,2.39.89,5.32-.48,3.81-1.47,7.6-3.89,10.68Z"/>
      <path class="cls-5" d="M1103,129.99c2.72-1.17,13.15-.8,12,4-4.9-.42-7.89-1.2-12-4Z"/>
      <path class="cls-5" d="M1427,113.99c-.54,3.46-8.79,6.13-12,7-.82-4.22,9.63-6.86,12-7Z"/>
      <path class="cls-4" d="M650,125.99c-.11,3.79,1.89,12.69-3,11,.3-3.99-1.56-9.08,3-11Z"/>
      <path class="cls-4" d="M627,157.99c.96-5.51.57-5.75,4-11,.69,4.55,1.71,9.29-4,11Z"/>
      <path class="cls-4" d="M1087,187.99c2.46,1.33,7.86,5.91,7,9-5.38-.93-2.37-1.54-4.3-3.77-1.68-1.94-2,2.79-2.7-5.23Z"/>
      <path class="cls-5" d="M779,139.99c-.16,5.05-.78,10.1-2,15-1.62-2.41-.89-12.11-.03-14.37.48-1.27,1.96-.49,2.03-.63Z"/>
      <path class="cls-4" d="M480,130.99c5.07,1.42,7.25,1.11,8,7-2.74-.46-9.06-4.38-8-7Z"/>
      <path class="cls-4" d="M1529,181.99v3h-10v-3c2.61-.43,7.1-.06,10,0Z"/>
      <path class="cls-4" d="M887,148.99c-.04,2.81,3.86,8.97-3,10,.36-3.11.55-11.18,3-10Z"/>
      <path class="cls-4" d="M639,113.99c-1.25,2.91.12,8.06-4,8,.16-2.66-.51-5.43.47-8.03,1.35-2.25,3.33.04,3.53.03Z"/>
      <path class="cls-5" d="M1274,116.99c-.7.86-.63,2.16-1,3-2.12-.25-2.25-.12-2,2-3.05,1.13-3.64,1.07-7,3-.26.7.3,2.71,0,3-.31.31-2.52-.3-3,0-.89-4.62,1.92-2.38,3-3,1.97-5.29,4.85-6.08,10-8Z"/>
      <path class="cls-4" d="M521,115.99c.34,2.86-6.23,4.08-9,5-.29-6.1,5.35-4.41,9-5Z"/>
      <path class="cls-4" d="M806,83.99c.16,4.08,1.7,15.92-3,14,.54-4.85,1.42-9.41,3-14Z"/>
      <path class="cls-4" d="M227,121.99c.08,1.31.83,2.7,1,4,.04.33-.08.7,0,1-5,.51-5.61-1.89-6-6l5,1Z"/>
      <path class="cls-4" d="M888,116.99c-4.25,3.7-6.28-3.91-10-3,.64.01,2.06-1.52,5.25-.81s3.61,3.12,4.75,3.81Z"/>
      <path class="cls-5" d="M353,94.99c.98.24,3.67-.32,4.01,0,.21.2-.1,3.03,0,4.01-3.21-.09-3.04-1.96-4-4-3.43-.82-2.86-1.96-7-4,5.84-5.75,5.77,1.39,7,4Z"/>
      <path class="cls-5" d="M1114,145.99l1,3c-3.24-.36-8.89,1.66-9-3,2.66-.01,5.34-.02,8,0Z"/>
      <path class="cls-5" d="M1222,140.99c1.56.27,4.72-.55,5.85.15.74.46.98,3.72,1.15,4.85-5.39,1.17-3.38-2-4.24-2.75-.99-.86-1.45-1.05-2.76-2.25Z"/>
      <path class="cls-5" d="M974,113.99c.89,3.71-5.82,1.45-9,2-.22-4.73,7-2.01,9-2Z"/>
      <path class="cls-4" d="M611,172.99c-.11,2.6.78,9.17-3,9,.16-2.7-1-9.33,3-9Z"/>
      <path class="cls-4" d="M1106,197.99v3c-3.42-.46-7.48,1.54-7-4,2.41.23,4.47.97,7,1Z"/>
      <path class="cls-5" d="M215,190.99c3.54-.25,8.39,2.28,7,6-2.13-.28-6.4-3.58-7-6Z"/>
      <path class="cls-5" d="M782,128.99c-.32,5.06.87,4.52-2,9-.68-3.16-2.19-10.93,2-9Z"/>
      <path class="cls-5" d="M1625,190.99c.21,4.64,1.3,6.9-4,6,.63-2.69-.57-7.1,4-6Z"/>
      <path class="cls-5" d="M1253,144.99c-.21,2.19-.62,3.18-1,5-.99.17-2.22.35-3,1-1.37-3.82-.4-7.27,4-6Z"/>
      <path class="cls-5" d="M773,172.99c-.32,2.77.1,5.53-3,7,.13-2.17-2.66-8.07,3-7Z"/>
      <path class="cls-5" d="M1250,199.99c3.18,2.65,2.06,2.63,3,6,2.01.75,3.63-1.73,3,3-.81-.12-2.77.23-3,0-.28-.28.21-2.23,0-3-.9-.34-2.02.52-3.47-.99-2.02-2.09-.47-4.22-.53-5.01h1Z"/>
      <path class="cls-5" d="M1221,271.99c7.81,2.08,4.42,4.34-2,5,1.13-1.82,1.36-3.23,2-5Z"/>
      <path class="cls-4" d="M357,73.99c-.28,2.31-.31,4,2,5-4.31-.31-5.7,2.08-5-5,.97.08,2.11-.16,3,0Z"/>
      <path class="cls-4" d="M1252,149.99c-.79,3.82-2.64,5.64-3,8,.66-3.39-4.41-3.32,0-7,.78-.65,2.01-.83,3-1Z"/>
      <path class="cls-4" d="M689,199.99c.34,3.99-7.92,2.81-7-2,1.54.66,5.3,1.8,7,2Z"/>
      <path class="cls-5" d="M362,78.99c-.98-.11-2.01.07-3,0-2.31-1-2.28-2.69-2-5,4.97.9,3.38,1.03,5,5Z"/>
      <path class="cls-4" d="M802,108.99c-1.31-2.85-2.32-8.44,1-10-.3,2.9-.87,7.39-1,10Z"/>
      <path class="cls-5" d="M1405,113.99c-2.23.17-5.94,1.98-9,1,.22-.33-.25-1.83,0-2,.38-.25,8.08-.56,9.01,1Z"/>
      <path class="cls-5" d="M1259,129.99c.52,3.9-1.28,3.06-3,4-.6,1.35-.32,5.01-3,7,.06-.82-1.26-5.53.1-6.92.49-.5,2.43.19,2.9-.08.19-.42-.1-1.67.49-3,.4-.88,2.24-.75,2.51-1Z"/>
      <path class="cls-4" d="M1074,197.99c-4.68.35-3.62-1.87-4-5,4.56-.34,3.7,1.78,4,5Z"/>
      <path class="cls-4" d="M901,156.99c-.28,4.39-1.32,8.7-2,13,.84-3.7-2.07-13.54,2-13Z"/>
      <path class="cls-5" d="M743,208.99c-.2,3.84-3.43,3.36-6,4-1.06-4.14,2.85-3.34,6-4Z"/>
      <path class="cls-4" d="M1086,208.99c3.47.33,5.77-1.54,5,3-1.43-.08-4.18,2.62-5-3Z"/>
      <path class="cls-4" d="M668,113.99c-.69,2.22-3.08,2.17-5,2,.01-.2-2.34-1.61.68-2.88,2.41-.87,3.93.88,4.32.88Z"/>
      <path class="cls-4" d="M488,154.99c-.29-5.28.41-10.74,0-16,2.29,5.1.9,11.02,0,16Z"/>
      <path class="cls-5" d="M386,190.99c-.52,3.72,1.94,8.09-3,7,.12-2.06.98-8.44,3-7Z"/>
      <path class="cls-5" d="M1220,139.99c-1.46,2.57-4.3.25-4-2,.13.02,1.21-1.38,2.36-.97,1.64.58,1.36,2.71,1.64,2.97Z"/>
      <path class="cls-5" d="M1031,117.99c-.85-.09-2.08.36-2.82-.16-.7-.49-.82-2.88-1.18-3.84,2.98.41,4.27,0,4,4Z"/>
      <path class="cls-4" d="M1376,147.99c-1.68-2.82-1.71-9.05,0-12,.23,3.92.07,8.06,0,12Z"/>
      <path class="cls-5" d="M1534,197.99c3.45-.06,4.56-.9,4,3-3-.52-3.17.53-4-3Z"/>
      <path class="cls-4" d="M397,113.99c-3.61-.32-7.38.23-11,0,2.49-1.68,8.4-1.71,11,0Z"/>
      <path class="cls-2" d="M1624.99,246c1.34,1.06-2.58,4.35-3.99,2.99-2.03-1.96,2.15-4.45,3.99-2.99Z"/>
      <path class="cls-4" d="M1090,91.99c-.89,1.76,2.13,3.76-4,3,.55-2.52,1.83-2.6,2-3h2Z"/>
      <path class="cls-4" d="M1502,205.99c-.06.99.11,2.02,0,3h-3c.7-1.57-1.75-3.76,3-3Z"/>
      <path class="cls-4" d="M683,159.99c-.35,2.25.27,3.98-3,4,.3-2.02.6-4.63,3-4Z"/>
      <path class="cls-4" d="M1526,154.99c3.66-.3,3.01-.17,3,3h-3c-.13-.94.05-2.02,0-3Z"/>
      <path class="cls-5" d="M1262,208.99c.14.73-.21,2.81,0,3,.19.17,1.4-.12,2,0,1.1.22,2.74-.06,4,0v1c-1.83-.07-3.97,1.24-5.35,1.06-.99-.13-.56-2-.65-2.06-1.05-.6-3.92,1.58-3-3,.95.12,2.15-.19,3,0Z"/>
      <path class="cls-2" d="M1529,157.99c0,1,0,2,0,3-.67-.22-2.48.38-2.91-.07s.03-2.1-.09-2.93h3Z"/>
      <path class="cls-5" d="M341,154.99v3c-1.14-.65-3.22.07-3-3,.8.22,2.09-.16,3,0Z"/>
      <path class="cls-2" d="M944,149.99c-.1.79.18,2.82,0,3-.2.2-2.2-.13-3,0-.06-1.98.98-3.06,3-3Z"/>
      <path class="cls-5" d="M1209,262.99c-2.36-.61-3.52,1.54-3-3,1.96.48,2.99.37,3,3Z"/>
      <path class="cls-4" d="M1621,197.99c-.12.45.2,1.87,0,2-.41.27-2.96-.1-4.01,0-.63-3,1.49-1.88,4-2Z"/>
      <path class="cls-4" d="M794,150.99c-.59,4.92-1.89,2.62-2,3-.05-2.36-.67-3.47,2-3Z"/>
      <path class="cls-4" d="M893,120.99c.86.82,1.37-1.95,3,2-2.1.22-3.49.42-3-2Z"/>
      <path class="cls-2" d="M1019,209.99c-.36.17,1.89.7-3,2-.52-2.49.84-2.18,3-2Z"/>
      <path class="cls-4" d="M1283,113.99c-.18.02,1.19,1.4-2,2-.25-2.12-.12-2.25,2-2Z"/>
      <path class="cls-4" d="M683,157.99c-1.48-.34-1.54-3.58,0-4-.1,1.32.1,2.68,0,4Z"/>
      <path class="cls-4" d="M362,173.99c-.03.66.04,1.34,0,2-3.13.56-2.97-2.61,0-2Z"/>
      <path class="cls-5" d="M228,125.99c2.12-.25,2.25-.12,2,2-.49-.17-1.38.11-2,0-.06-.32.08-.69,0-1s.04-.67,0-1Z"/>
      <path class="cls-4" d="M1337,211.99c-.73,1.37-2.69,1.11-4,1,.78-1.49,2.65-.96,4-1Z"/>
      <path class="cls-4" d="M1070,188.99c-.11-1.31.02-2.68,0-4,1.48.34,1.54,3.58,0,4Z"/>
      <path class="cls-4" d="M631,142.99c.02.67-.03,1.34,0,2-5.72-1.19-.14-1.76,0-2Z"/>
      <path class="cls-4" d="M589,113.99c-.61-.01-1.32.01-2,0h2Z"/>
      <path class="cls-5" d="M1279,115.99l-2,1c.1-.02-.1-1.96,0-1.99,1.28-.34,1.88,1.02,1.99.99Z"/>
      <path class="cls-4" d="M362,158.99c.04.66-.03,1.34,0,2-3.13.56-2.97-2.61,0-2Z"/>
      <path class="cls-5" d="M1287,113.99c-.99.06-2.02-.1-3,0,.15-1.49,2.85-1.49,3,0Z"/>
      <path class="cls-4" d="M884,163.99c.14-.95-.1-2.03,0-3v3Z"/>
      <path class="cls-4" d="M474,113.99c-.99-.07-2.01.05-3,0,.15-1.49,2.85-1.49,3,0Z"/>
      <path class="cls-4" d="M734,212.99c-2.1.22-2.22-.03-3,0h3Z"/>
      <path class="cls-4" d="M683,212.99c-.8-.26-1.76-.95-2-1,.74-.05,1.65.96,2,1Z"/>
      <path class="cls-4" d="M1083,208.99c-.33-.05-.68.06-1,0v-1c.04.21.8.63,1,1Z"/>
      <path class="cls-4" d="M1219,205.99l1-1c-.17.11-.25.67-1,1Z"/>
      <path class="cls-5" d="M357,102.99c-.02-.44,0-.87,0-1v1Z"/>
      <path class="cls-5" d="M1511,167.99v-1c0,.33,0,.67,0,1Z"/>
      <path class="cls-5" d="M782,196.99l1-1c-.08.41-.96.81-1,1Z"/>
      <path class="cls-4" d="M686,133.99v-1c-.01.29.01.65,0,1Z"/>
      <path class="cls-4" d="M650,120.99v-1c.03.44-.01.84,0,1Z"/>
      <path class="cls-4" d="M608,186.99v-1c-.04.33.04.67,0,1Z"/>
      <path class="cls-5" d="M776,158.99c.07-.32.94-.72,1-1l-1,1Z"/>
      <path class="cls-4" d="M1225,199.99l1-1c-.11.31-.76.63-1,1Z"/>
      <path class="cls-4" d="M1250,199.99h-1c-.02-.33.01-.67,0-1,.36.3.64.7,1,1Z"/>
      <path class="cls-4" d="M791,155.99l1-1c-.17.63-.98.92-1,1Z"/>
      <path class="cls-5" d="M784,192.99l1-1c-.12.61-.99.93-1,1Z"/>
      <path class="cls-4" d="M224,106.99c-1.48,4.12,2.16,10.59-2,13-.17-2.34-.49-10.83-.04-12.36.38-1.28,1.56-.38,2.04-.64Z"/>
      <path class="cls-5" d="M935,176.99c-.91,3.81-2.74,9.61-2.07,13.56.17.97,3.11,3.74,3.04,5.96,13.32,6.65,27.79,1.35,42.03,4.48-9.81.29-26.58,2.81-35.62,1.96-2.29-.21-1.85-2.61-3.09-2.98-1.5-.45-6.85.47-7.29.02-.85-.87-3.1-23,3.01-23.01Z"/>
      <path class="cls-5" d="M996,191.99c7.39.48,5.25,1.4,8.03,4.48.27.3,6.36,1.04,2,5.08-1.14,1.06-2.53-.57-3.03-.56l-7-9Z"/>
      <path class="cls-5" d="M983,181.99c1.04.44,4.04.12,4.85,1.19.59.77-.07,2.46.15,2.81,1.91.7,3.65-1.72,3,3-3.75-1.37-1.81-1.12-3-3-2.9-1.06-5.95.14-5-4Z"/>
      <path class="cls-4" d="M1648,125.99c5.58-.46,3.51.13,4,4-4.03.81-2.98-1.54-4-4Z"/>
      <polygon class="cls-4" points="1636 130.99 1636.5 129.99 1637 130.49 1636.5 130.99 1636 130.99"/>
      <path class="cls-4" d="M1278,201.99c15.3-.55,31.03-2.06,46.36-1.02,1.29.09.41,2,.64,2.02-.91,1.77-1.48,1.92-3.4,2.08-8.42.71-26.95.91-35.16,0-.46-.05-5.75-3.3-8.44-3.08Z"/>
      <path class="cls-4" d="M1360,137.99c4.77,2.92,4.96,17.61-1,20,.35-4.19,1.3-9.35,1.05-14.56-.12-2.46-2.16-3.55-2.09-4.94.04-.9,2.02-.4,2.04-.51Z"/>
      <path class="cls-4" d="M1261,191.99c4.58-1.31,2.95,3.62,4.23,4.76.88.79,9.46,2.91,10.77,5.24-7.26.38-13.99-1.17-15-10Z"/>
      <path class="cls-4" d="M1336,199.99c2.38,3.32-5.62,3.3-8,3-.61-3.54,5.65-2.55,8-3Z"/>
      <path class="cls-4" d="M1353,129.99c1.4.57,6.31,1.41,6.85,2.18.34,1.21.29,2.58.15,3.82-3.6-.78-4.76-3.58-7-6Z"/>
      <path class="cls-4" d="M1355,178.99c3.95.23,3.11,1.66,0,3-.76,5.42-.78,3.57-3,6-.34,2.55,1.02,3.51-3,3,1.92-2.63,2.18-2.1,3-3,.18-1.39-.33-5.6,0-6.01.22-.28,2.36.28,3,0,.14-.96-.08-2.02,0-3Z"/>
      <path class="cls-4" d="M1357,171.99c-.39,2.58,1.34,5.74-2,5,.17-2.67-1.15-5.75,2-5Z"/>
      <path class="cls-4" d="M1342,196.99c.6,2.98-2.86,2.63-5,3-.75-2.72,2.75-2.33,5-3Z"/>
      <path class="cls-4" d="M1348,192.99c-1.54,2.07-.25,2.63-4,4,.55-2.85.59-4.73,4-4Z"/>
      <path class="cls-4" d="M1262,208.99c.59.13,1.78-.21,2,0,.24.24-.13,2.26,0,3-.6-.12-1.81.17-2,0-.21-.19.14-2.27,0-3Z"/>
      <path class="cls-4" d="M1273,119.99c-.18.4.29,1.7-.03,1.97-.36.31-1.5-.14-1.97.03-.25-2.12-.12-2.25,2-2Z"/>
      <path class="cls-4" d="M1219.99,245c1.48,1.63-1.05,6.14-2.99,3.99-1.48-1.63,1.05-6.14,2.99-3.99Z"/>
    </g>
  </g>
</svg>