<?xml version="1.0" encoding="UTF-8"?>
<svg id="Layer_2" data-name="Layer 2" xmlns="http://www.w3.org/2000/svg" viewBox="0 0 1482.7 1442.54">
  <defs>
    <style>
      .cls-1 {
        fill: #fff;
      }
    </style>
  </defs>
  <g id="Layer_1-2" data-name="Layer 1">
    <g>
      <path class="cls-1" d="M304.61,1252.48c.07-.85-.41-1.48.58-2.09,3.68-2.28,19.35.02,20.41-.91-4.91-11.2-16.84-19.06-26.65-25.86-1.74-1.2-7.18-3.03-8.62-4.09-5.96-4.39-8.72-12.69-13.81-17.45s-11.91-6.89-17.56-9.99c-3.96-2.17-9.77-18.04-12.7-22.27-10.2-14.7-29.77-25.92-40.62-38.14-6.59-7.42-14.69-19.41-21.02-27.74-20.2-26.54-38.74-53.31-55.39-82.07-10.23-17.68-19.74-37.56-28.53-57.16-13.22-29.48-24.21-56.5-31.18-87.62-4.83-21.58-2.22-43.81-5.96-66.04-1.76-10.47-5.28-22.84-7.89-32.28-1.02-3.7.86-10.51-6.37-9.34-.26.04-3.67,3.41-3.69,3.66-.04.44.87,8,1.03,8.72,2.08,9.25,3.7,20.38,6.01,29.99.19.78,1.78.63,1.95,1.38,1.96,8.26-2.1,8.4-8.94,9.85-6.54,1.39-13.3.85-19.43,3.51l-9.62-10.73c-2.29-4.59-2.76-8.78-4.06-13.57-.28-1.05-3.24-1.28-1.89-7.05.17-.73,1.54-.74,1.89-1.48.52-1.07.42-2.61,1-3.52,2.98-4.64,13.74-4.17,4.29-12.71-5.46-4.94-7.74-4.8-11.29-12.22-.36-.75-1.75-.76-1.91-1.48-1.46-6.78-.11-16.26-.95-22.87-.24-1.91-1.92-.95-2.16-2.87-1.92-15.19-1.79-40.59-.96-56.11,1.2-22.65,8.73-46.09,10.08-68.92,1.09-18.43,1.54-34.14,6.03-51.78,13.29-52.24,31.72-104.11,55.84-151.54.92-1.81,3.38-10.03,4.32-10.98,3.97-4.03,16.4.07,19.66-4.85.61-.91,2.65-4.27,3.1-5.1,4.42-8.09,2.37-10.86,2.96-19.83.36-5.39,2.88-11.74,5.79-16.24,10.44-16.16,17.18-34,28.39-50.56,3.31-4.89,8.89-14.44,15.45-14.56,3.09-.05,9.49,2.71,12.65,3.97.8.32.43,1.79,2.22,2.01,2.4.29,9.66-1.95,11.31-3.38.58-.5,2.69-6.11,3.25-6.97.66-1.01,4.79-5.05,4.96-5.5.37-1.03,3.13-12.88,3.13-13.73,0-4.5-3-7.8-2.17-14.06.24-1.79,1.58-1.36,2-2.22,2.69-5.57,3.26-4.73,7.08-8.99s14.01-16.29,18.31-18.88c7.53-4.55,18.94-4.78,26.02-10.45,8.8-7.05,12.66-16.69,18.67-25.17,5.15-7.28,13.95-19.6,21.11-25.08,2.82-2.16,10.95-5.95,13.77-3.54,1.39,1.19,1.05,8.4.26,10.52-2.15,5.8-6.81,11.15-8.1,18.93-.26,1.59-.32,11.65.09,12.29,2.86,1.57,7.01.87,10.1.07.89-.23.41-1.77,2.19-2,2.61-.34,10.53-.34,13.13,0,1.85.24,1.31,1.87,2.12,2.06,1.58.37,7.07.3,8.87.09.9-.11,14.62-9.19,12.44-11.07-1.68.01-3.43.09-5.06-.43-15.39-4.88-.92-13.37,5.55-18.61,6.83,1.64-3.62,6.83-1.49,9.03.31.31,7.65.19,8.75-.27.88-.37,10.19-10.88,11.19-12.5,2.99-4.86,5.17-7.76,2.79-13.46-3.37-8.06-14.01-11.34-21.96-8.68-2.47.83-10.26,7.3-13.4,9.33-.6.39-.01,2.4-2.34,1.56.35-2.11-2.88-2.9-3.07-3.52-.81-2.74,1.73-2.18,1.99-3.16,5.07-19.21,13.84-30.74,32.28-38.37.79-.32.4-1.78,2.2-2,1.64-.2,6.41-.25,7.87.09.71.17.51,1.54,1.42,1.92s2.5-.19,3.6.23c1.25.47,1.25,1.91,2.04,2.5,2.19,1.62.9-.36,3.03,2.9.48.74,2.31.4,1.62,2.85-.52,1.84-10.4,6.9-11.04,14.18-.3,3.4,4.77,13.74,7.5,16.4,14.89,14.49,21.22-9.38,29.23-17.06,2.51-1.92,7.94-2.92,10.49-4.05,20.45-9.09,38.09-20.42,59.25-28.94,8.42-3.39,22.83-9.48,30.99-10.01,4.08-.26,10.31.81,13.85.03.36-.08,4.72-4.6,5.39-5,4.8-2.87,13.04-6.7,18.09-8.89,1.72-.75,3.93-.4,6.14-1.67,3.48-2,4.93-6.99,4.05-10.74-.19-.83-1.69-.78-1.99-1.39-.76-1.53-.5-2.9-1.72-4.35-3.77-4.48-10.76-4.36-15.94-3.11-3.85.93-14.17,4.57-17.55,6.19-5.58,2.68-2.89,9.9-13.15,8.88-8.13-.81-6.36-5.67-15.88.12-1.04.64-4.45,4.31-5.51,4.91-7.23,4.06-17.84,4.57-26.03,8.98-1.42.76-2.73.24-4.26,1.8-4.51,4.59-2.81,13.44-10.43,14.28-10.78,1.18-14.69.05-22.9-5.67-.79-.55-2.34-.18-2.53-.38-.64-.66.5-4.96,1-6.16.55-1.32,5.21-7.85,6.7-8.76,1.05-.64,3.09-.44,4.44-1.1,24.42-11.99,52.05-23.77,78.56-31.83,16.26-4.94,22.89-3.23,39.71-3,8.55.11,6.49-2.77,10.83-5.74,17.07-11.67,31.22-10.85,50.96-16.4.83-.23.65-1.74,1.41-1.92,22.34-5.43,49.73-1.75,72.62-7.05,21.32-4.93,45.19-.96,67-6,.75-.17.61-1.78,1.37-1.96,6.92-1.66,14.22,1.3,19.87,1.92,34.7,3.79,70.37-.03,105.89,4.11,12.5,1.46,25.85,5.66,38.13,7.87,20.73,3.73,43.12,2.97,60.64,16.06,5.01,3.75,2.63,6.55,12.33,5.08,3.49-.53,5.16-3.1,9.74-2.01.76.18.8,1.67,1.47,1.89,25.6,8.3,48.8,16.29,71.93,30.09,14.7,8.77,23.2,14.25,40.12,20.67,46.44,17.62,83.22,38.25,124.97,69.06,10.12,7.47,34.74,26,40.39,36.57,1.73,3.24,4.19,12.91,6.09,14.4,1.63,1.27,3.43.76,4.95,1.37,2.53,1.02,2.4,1.14,6.05,2.13,5.87,1.59,5.59,11.53,7.56,16.42.24.61,4.21,6.95,4.62,7.42,8.34,9.51,22.36,7.36,30.46,19.74.75,1.14.51,3.25,1.46,4.85,2.38,4.03,9.11,3.99,10.34,10.14.74,3.7.09,7.51.29,11.22-6.02,1.18-4.61-1.59-6.39-3.61-6.33-7.16-14.11-17.49-21.39-23.39s-22.62-13.26-27.86-21.35c-.99-1.53-.67-3.75-1.45-4.87-5.71-8.33-12.33-10.47-20.2-16.07-8.07-2.14-10.2,4.86-8.68,11.57.16.72,1.54.74,1.9,1.48,1.97,4.09,3.96,6.77,7.13,10.42,2.45,2.82,22.63,22.91,24.23,23.48,4.37,1.54,16.72-1.28,19.48,1.56,2.04,2.1,2.74,13.05,4.27,16.05.53,1.03,1.89.65,1.95.74.82,1.26-4.64,3.86-4.8,4.13-1.58,2.59,3.1,4.42,4.45,6.19,1.52,2.01,2.58,4.64,4.39,6.85,7.78,9.53,17.01,16.67,19.87,29.42.63,2.83,1.08,6.41,1.03,9.31-1.1,1.29-22.28,1.49-25.44,1.1-4.01-.49-9.77-6.86-10.51.43l14.34,15.77c2.35,4.51-.67,10.25-.31,14.18.53,5.78,13.12,12.06,17.22,15.59,10.32,8.87,11.73,12.7,17.12,23.67.44.9,4.18,2.96,4.61,4.12,2.65,7.17,3.43,9.63,7.44,16.82,7.46,13.37,15.15,27.92,22.52,42.17,2.55,4.93-.21,6.53,9.09,6.22v2.99c-1.12.23-4.69-.31-5.01,0-.26.25-.22,6.42,0,7.28.06.23,2.91,3.04,3.36,3.42,1.03.85,4.47-.57,2.06,3.33-5.16-.86-6.4.28-6.46,5.53-.09,7.69,11.78,34.35,16.07,41.66,1.26,2.15,10.48,9.37,10.95,11.48.98,4.4-.85,9.93.68,15.14,1.47,4.97,6.95,12.61,9.4,18.41.31.73,3.8,1.9,1.71,5.56-.35.62-7.28,2.67-4.78,5.2,1.11,1.12,15.86-3.2,19.36-2.93,3.77.28,14.12,2.21,17.8,3.28,2.64.77,4.97,2.37,6.79,4.39-.73,7.94.89,16.91.66,24.59-.19,6.39-4.14,12.85-3.57,19.05.14,1.55,3.12,8.35,4.01,9.82,4.99,8.21,5.92,6.79,9.02,17.06.25.84,1.72.69,1.9,1.45,3.2,13.38-.98,29.8.04,43.79.76,10.33,6.5,14.88,2.9,27.74-.23.83-1.58.78-1.83,1.55-2.72,8.49-5.23,15.33-3.82,24.49.56,3.63,4.86,5.99,3.63,10.06-1.08,3.59-13.6,2.85-11.89,8.99.23.82,1.69.79,1.99,1.37,4.69,9.26-4.33,11.79-7.91,18.1-4.42,7.8-2.31,14.44-4.1,22.53-2.2,9.95-2.84,22.49-5.9,32.24-4.61,14.71-1.14,18.48-2.09,31.92-.43,6.07-4.76,16.17-5.97,21.21-1.72,7.12,1.46,9.54-2.95,18.1-4.98,9.67-15.35,17.24-18.4,28.39-2.11,7.72,1.81,18.51.19,23.2-.23.65-9.28,5.3-11.23,6.81-9.54,7.37-15.76,22.32-19.7,33.06-.25.67-1.62.64-1.87,1.5-2.32,8.02-.02,15.36.03,22.77.04,6.49-4.53,4.48-8.29,6.58-5.65,3.15-14.27,13.01-18.45,18.23-22.48,28.1-43.26,57.5-63.68,86.84-24.04,34.54-49.7,61.81-81.06,91.42-19.42,18.34-36.68,33.06-58.82,46.49-35.53,21.56-74.63,50.84-112.02,66-38.46,15.6-76.62,27.29-116.56,40.83-12.77,4.33-15.66,5.94-26.91,12.11-10.43,5.71-19.8.97-30.56,4.05-.84.24-.73,1.67-2.09,2.11-18.28,5.95-39.46,8.2-58.87,13.1-9.22,2.33-10.02,9.06-21.3,8.79-5.82-.14-14.26-5.02-21.02-6-7.36-1.07-16.93-.08-24.01-.97-1.91-.24-.95-1.91-2.87-2.16-5.39-.68-16.58-1.14-22.11-.96-7.55.24-12.65,4.07-20.02,3.12-1.82-.23-1.24-1.76-2.15-2.03-4.15-1.24-17.47-3.83-21.74-4.09-5.99-.36-16.89,1.21-21.85.02-1.36-.33-7.29-2.26-9.9-3.07-8.94-2.78-18.65-7.58-28.61-10.58-7.5-2.26-16.7-4.45-24.75-3.4-1.78.23-1.29,1.77-2.19,2-11.93,3.14-14.99-3.17-24.01-7.67-12.8-6.39-26.35-8.64-40.46-13.34-33.55-11.17-67.92-24.69-101.01-38.99-21.91-9.47-39.87-16.64-54.79-37.13-1.76-2.41-13.13-18.08-14.24-18.51-2.3-.9-8.74-.58-12.14-1.39-3.57-.85-6.8-3.46-9.41-4.79-17.63-9.04-34.51-19.63-52.41-28.19-6.34-3.03-7.45-1.27-14.3-1.9-9.67-.89-1.86-5.71,4.5-4.01.67-5.86-5.1-4.5-8.2-6.08-1.56-.79-4.75-4.51-6.18-5.1-3.9-1.6-6.73.05-10.61.18l.54-8.01c-4.99-3.77-8.92-8.63-13.35-12.97-24.23-23.75-45.78-45.61-65.24-74.27-17.62-25.95-30.88-52.29-47.68-78.51-15.89-24.78-36.19-51.79-47.45-79.61-9-22.24-9.79-44.82-21.92-66.84-1.55-2.82-6.32-7.79-7.86-10.56-6.1-11.01-.71-21.08-3.09-31.53-.26-1.13-5.59-11.96-5.93-13.42-.18-.75-1.01-7.37-.98-7.88.15-2.62,3.43-3.24,5.49-3.44,5.51-.52,3.08,1.84,4.56,5.24,2.79,6.41,3.72,11.48,6,17.99,19.01,54.23,48.87,106.68,71.98,161.02,9.03,21.23,12.54,34.42,30.24,51.44.98.94,2.73.97,3.65,1.85,4.94,4.67,3.19,8.05,4.46,13.56,2.17,9.4,16.78,20.57,23.22,28.25.88,1.05.57,3.08,1.3,3.95,4.78,5.71,33.28,39.46,36.76,40.52s2.92.61,6.06,2.14c1.06.51,2.64.39,3.5,1.02,4.74,3.51,2.91,5.62,4.68,9.59,1.31,2.94,5.07,11.05,6.99,13.02,1.2,1.22,5.79,2.91,6.95,4.02,11.61,11.06,22.82,15.81,35.39,24.36,5.75,3.92,13.34,12.55,19.71,14.05-.07.83-.27,2.21.17,2.81.4.54,9.71,5.88,11.33,7.19h17.5c1.54,7.57-5.76,7.84-10.99,5-.87,5.4,1.09,3.18,2.61,4.32,2.23,1.67,4.84,5.87,7.15,7.68,11.49,9.02,32.15,19.49,45.46,25.07,5.8,2.43,6.57,1.61,12.08,2.95.78.19.62,1.77,1.38,1.95,2.19.51,4.4-.43,7.1.76,3.94,1.74,8.98,11.13,11.53,13.96,4.23,4.7,11.43,5.94,16.91,7.39.83.22.46,1.77,2.21,1.99,11.9,1.49,22.87,1.09,34.74,4.24,3.02.8,13.68,6.61,15.53,8.96,2,2.53.52,7.3,4.22,8.3,4.56,1.23,12.64-1.67,19.14-.15s12.53,8.54,17.69,11.52c9.11,5.26,28.76,8.91,39.02,11.96,23.9,7.12,48.01,15.78,73.73,19.08,4.24.54,8.75,1.82,10.92,2.09,4.78.6,17.58,1.26,21.78-.17.74-.25,7.67-6.27,8.05-7.11,2.05-4.5.57-7.14-3.07-9.76-7.33-5.28-25.99-7.88-35.59-10.13-34.41-8.09-67.26-14.26-99.84-23.98-43.16-12.88-88.06-29.68-127.96-51.02-24.41-13.05-48.66-33.31-73.61-43.79-1.27-.53-3.8-1.02-5.23-.69-2.2,1.59.58,6.16-2.48,5.6-2.36-.44-7.82-4.32-11.04-4.96s-6.46-.11-10.45-1.05ZM680.04,24.9c2.91-3.03,5.04-6.81-.9-7.49-12.86-1.47-26.4,16.75-6.42,12.62,2.28-.47,5.62-3.37,7.32-5.13ZM729.31,24.78c-4.27-3.11-15.96-.7-19.95,2.68s-6.18,15.11-7.97,16.79c-.92.86-2.82.68-4,1.3-5.44,2.84-6.32,1.53-11.06,2.98-.82.25-.63,1.65-1.44,1.9-3.23.98-10.59-.88-10.19,4.56s7.97,5.49,12.23,4.47c9.56-2.28,20.39-5.43,31.15-6.02,6.13-.34,12.4.32,18.54.05-1.09,5.04-3.94,3.08-6.26,4.05-.99.41-.39,1.8-2.17,2.02-12.62,1.6-27.19-.67-39.14.84-1.91.24-.95,1.91-2.87,2.16-7.56.96-17.72.14-25.57.92-.37-5.54,4.25-9.55,2.97-15.28-.09-.42-5.09-4.98-6.12-6.06-1.09-1.14-2.36-2.39-3.53-3.58-1.58-1.59-11.08-10.82-12.03-11.03-7.42-1.65-14.75.39-20.17,5.56-2.25,2.14-5.26,8.68-8.77,9.16s-7.99-8.02-10.58-9.11c-10.86-4.55-24.78,7.83-30.73,16.1-13.46,18.69.62,10.52,10.7,14.53,2.15.86,8.04,13.17,10.26,15.95,1,1.25,8.15,6.6,8.7,6.74,1.48.36,4.42-.89,4.29,1.02l-60,15.02v2.99c7.38-1.56,16.62.03,23.56-.94,4.46-.62,7.73-3.44,13.76-2.03.81.19.27,1.81,2.12,2.06,2.78.36,11.36.36,14.13,0,1.85-.24.91-2.95,5.98-2.16,1.9.3,1.32,1.83,2.14,2.05,2.78.77,9.56-3.9,13.1-4.69,4.81-1.08,10.07-.68,14.67-1.33,1.51-.21,2.76-1.66,5-2,8.11-1.24,6.77,6.28,12.01,5.07,3.82-.88,1.83-4.51,3.46-5.6,1.18-.78,3.14-.09,4.34-.47.97-.3.81-1.63,1.43-1.96,5.2-2.75,12.71-6.94,18.87-6.07,1.84.26,2.52,3.03,9,2.15,1.78-.24,1.3-1.79,2.18-2,11.07-2.72,23.73-4.82,34.81-6.01,8.82-.95,17.55-1.37,26.43-1.06,3.57,3.11-12.3,3.84-13.41,4.08l-6.58,2.91c2.45-.99,3.13,1.84,3.71,1.97,13.26,3.06,29.8-.75,42.85.96,1.85.24,1.29,1.86,2.12,2.05,5.74,1.32,3.64-.42,9.09,2.96.81.5,6.07.8,4.22,3.05-1.19,1.45-13.78,2.81-12.99,9.01,1.61-.03,3.16.35,4.72-.31.61-.26,5.6-4.52,5.96-4.7.92-.46,7.2-2.9,7.89-3.02,1.72-.3,1.3,1.65,2.17,1.97,1.59.6,7.27,3.08,7.7,3.14,2.22.28,10.91.33,12.85-.11.73-.17.66-1.71,2.07-2.13,10.58-3.2,20.06-.55,29.86,3.26.85.33.79,1.71,1.49,1.88,7.16,1.68,21.17-.8,29.67.16s42.01,8.33,48.41,11.79c2.45,1.33,5.12-.25,4.21,4.08-.88,1-7.07-4.31-7.99,0,3.5.73,11.82,8.21,15.08,5.59,1.03-.83.44-3.34,1.52-3.65,6.1-1.76,6.85,2.28,9.55,5.45,4.32,5.07,6.78,6.38,11.67,10.28,2.25,1.79,5.18,7.32,8.56,6.27,1.45-.45.83-2.89,3.11-3.05,2.64-.19,4.69,1.91,7.93,2.2,6.22.55,13.78-5.47,18.33-.15l16.19,6.11.05,2.96c-13.09-.84-1.17,4.55,3.23,7.06,4.07,2.32,12.26,6.61,16.53,7.86,3.68,1.08,11.26,0,12.85,3.42,1.03,2.22.29,3.7,2.45,6.1.61.68,14.89,8.86,15.91,9.16,3.25.98,8.99-1.27,14.25.49,14.37,4.82,26.1,16.2,39.7,23.53,15.39,8.29,25.78,15.91,37.42,28.99,1.97,2.21,9.02,11.48,9.69,11.86,4.27,2.42,10.89,4.53,15.23,7.5,1.47,1.01,3.2,4.54,5.11,5.2,3.57,1.23,16.43,2.23,12.94-3.13-1.89-2.89-7.98-6.64-10.52-9.09-37.93-36.59-81.41-69.41-126.61-94.85-10.86-6.11-20.9-10.28-31.4-16.17-24.81-13.91-52.82-23.58-80-33.02-41.36-14.37-88.38-25.99-133.24-31.96-11.75-1.56-24.29-2.15-36.04-2.96-19.83-1.36-39.82-1.01-59.79-1.03-.84-2.43-3.67-1.14-3.8-3.43-.33-5.91,4.76-6.12,9.28-4.43,1.1.41,6.07,4.79,6.49,4.88,4.19.95,33.78.74,38.87.09,1.76-.23,1.34-1.7,2.21-1.99,3.11-1.04,18.4-3.58,11.98-8.84-.97-.8-3.54-.59-4.97-1.32-4.18-2.14-9.38-5.88-13.55-7.85-8.34-3.94-17.49-4.63-26.78-6.02-3.57-.54-6.88.5-10.66-1.13-5.56-2.39-5.8-16.5-10.09-19.62ZM681.35,44.23c1.65-1.42,1.91-5.77-1.15-5.7-4.1,1.84-9.97,3.45-12.58,6.94,3.14-.22,11.46.71,13.73-1.24ZM965.53,48.56c-2.63,0-5.27-4.02-7.73-2.87-.24.12-3.2,3.81-3.27,4.29-.21,1.4,1.42,5.82,2.23,6.3,2.65,1.57,2.7-1.21,3.58-1.8,1.53-1.01,6.97-3.24,5.18-5.93ZM843.33,60.81c-2.71-1.23-27.95-1.7-32.2-1.31-3.18.29-8.26.76-9.52,3.97,2.43-.92,3.01,1.69,3.78,1.92,4.05,1.23,8.74.59,12.68,1.13,7.53,1.03,14.49,3.15,23.1,2.01,2.28-.3,13.8-3.68,7.47-5.55-3.25-.97-3.4-1.31-5.3-2.17ZM906.35,72.74c-2.41-2.04-16.96-6.11-18.74-4.26-.89,4.33,1.75,2.74,4.22,4.08.72.39.69,1.54,1.56,1.83,1.91.64,13.34,1.73,14.23,1.07-.35-.73-.84-2.37-1.26-2.73ZM1037.21,69.89c-2.76-1.24-11.81-2.28-13.49-.31-2.66,3.12,1.87,12.02,4.34,14.93,6.94,8.18,23.24,9.87,19.08-4.09-.79-2.67-7.41-9.4-9.94-10.54ZM717.61,98.48c1.44.84,12.24-.62,15,0,1.01-4.36-6.22-5.64-9.51-5.98-3.05-.32-7.16.58-9.8-.04-.81-.19-.27-1.82-2.12-2.06s-8.25-.27-9.86.11c-.7.16-.65,1.55-1.48,1.88-2.71,1.09-5.38-.28-6.23,4.07,5.68,1.73,11.67-3.49,16.53-3.09,1.76.15,1.44,1.7,2.23,2.03,3.8,1.61,3.86,2.26,5.24,3.07ZM683.62,95.48c-.82-.86-14.36.28-11,2.99h11s0-2.99,0-2.99ZM521.55,99.56c-1.1-1.79-15.77-1.26-18.56-.24-1.35.49-1.33,1.6-2.17,2.08-2.96,1.7-5.39.08-5.21,6.07-2.61.77-2.4-2.82-3.68-3.06-7.09-1.35-12.27,13.16-4.82,13.16,5.32,0,2.54-4.11,3.65-5.94,1.57-2.59,10.64,0,13.35-.06,9.18-.23,6.98-11.77,17.51-9.09-.14-.88.26-2.37-.07-2.91ZM469.69,110.4c-2.5-4.13,11.64-5.03,11.91-6.44.63-3.26-6.92-3-8.99-1.94-1.12.57-6.55,7.66-6.86,9.19-.85,4.16,3.31,4.93,2.86,6.74-.24.97-6.2,4.73-7.46,4.57-.35-.05-.35-3.41-5.85-2.02-.28.07-2.57,3.99-4.68,1.97-1.26-1.2,3.55-7.11-5.24-6.75-9.96.41-7.65,5.03-12.78,10.23-2.89,2.93-7.25,3.44-11.3,2.49-.81-.19-.26-1.8-2.12-2.05-2.29-.31-6.29-.15-8.51.63-3.4,1.18-12.07,9.08-11.98,12.82.1,4.11,1.06,9.93,5.49,10.52,18.99,2.53,46.78-15.17,62.23-23.81l17.21-6.1c-.13-1.92-3.51-.62-5.25-1.23-6.74-2.35-4.7-3.9-6.78-8.04-.45-.89-1.82-.71-1.87-.8ZM731.61,104.48h15v-3c-4.22.4-9.86-.93-13.76.74-1.44.62-1.49.26-1.24,2.26ZM694.61,102.48c-4.91-.31-8.01-.47-11.88,2.57-5.6,4.41,4.74,3.7,8.09,2.34.43-.18,4.65-4.18,3.79-4.91ZM1096.38,102.75c-6.1-1.18-9.28,2.72-6.35,8.36.22.42,5.56,4.76,6.37,5.3,6.9,4.63,16.64,8.56,24.5,13.07,3.5,2.01,7.85,6.58,12.09,8.15,2.74,1.02,6.14.7,8.94,2.65,4.75-2.73,11.87-3.28,9.16-10.76-.58-1.6-7.41-8.17-8.79-8.7-2.31-.88-5.49-.8-8.07-1.46-10.67-2.75-19.92-5.22-29.82-8.97l-8.02-7.66ZM574.51,110.39c.48-.29,1.46-3.55-.42-3.91-1.34-.26-5.8,1.25-6.47,2.51-1.27,2.41,6.53,1.61,6.89,1.4ZM556.61,108.48c-1.95-1.08-16.44.81-20,0,.36,2.32,4.33,6.54.35,7.84-5.06,1.65-5.28-1.55-6.1-1.77-5.52-1.46-13.95-1.65-19.45.03-.76.23-.83,1.56-1.58,1.81-3.23,1.04-11.4,2.55-13.93,4.38-1.21.88-2.11,5.14-3.87,5.54s-5.45-1.62-10.05,0c-10.86,3.84-25.01,12.24-35.14,17.09-1.07.51-7.39,2.5-8.05,3.19-.77.8.23,6.19-.2,8.17-.28,1.3-7.29,6.43-8.97,4.7-2.51-2.58,2.94-3.2,3.03-3.49,1.68-5.34-4.39-3.62-7.24-2.42-5.19,2.19-12.56,7.6-17.58,10.83-2.37,1.52-8.28,1.71-7.21,6.08,11.12.41,23.25,2.54,34.21-.29,7.77-2.01,10.4-6.51,15.46-12.1.42-.46.13-1.82.64-2.31.94-.89,5.44-2.11,5.65-2.34,1.03-1.1-2.59-6.97-1.94-8.96,4.74-1.69,2.85,4.82,4.1,5.88,2.91,2.49,13.97-3.78,17.66-4.12,5.01-16.05,7.64-3.84,10.95-2.77,5.64,1.81.92-4.49,6.1-7.91.52-.34,5.72-3.56,6.08-3.66,2.67-.71,5.41-.43,8.11-.43v2.99s-5.01,0-5.01,0v2.99c4.54.6,9.05-1.32,13.23-3.08,11.5-4.82,21.42-14.7,34.07-17.96.79-.2.62-1.71,1.42-1.92,2.62-.68,6.17.62,8.27-2.54-2.3-.44-2.77-3.38-2.98-3.5ZM616.61,110.49c-2.1-.13-4.14-.06-6.22.28-8.33,1.37-1.28,5.22,3.57,3.55,1.38-.48,2.07-2.56,2.65-3.83ZM741.62,120.48h-5.01v2.99h5.01v-2.99ZM1166.35,177.72c-1.12-.88-4.29-.74-5.98-1.51-1.77-.81-4.95-2.41-6.66-3.34-2.87-1.55-13.23-10.79-16.1-8.39-.5,2.18,1.16,2.26,2.36,3.17,6.2,4.72,10.4,9,16.93,12.81.73.43.76,1.86,1.92,2.33,5.35,2.16,11.55-1.91,7.52-5.07ZM1223.39,171.7c-11.52-1.58-35.48-10.51-46.14-7.05-.36.12-4.64,4.59-4.66,5.27-.23,6.75,13.75,9.07,18.25,10.65.79.28.69,1.62,1.51,1.86,8.05,2.32,11.28,1.49,18.93,7.42,9.03,7,14.34,20.68,28.63,17.42,1.59-.36,7.51-5.73,7.68-6.49,2.27-10.3-11.12-11.98-17-16.77-3.19-2.59-5.49-8.68-7.19-12.31ZM1011.32,165.81c-4.85-2.13-4.54,2.67-2.45,4.41,1.49,1.24,8.76,3.47,10.96,4.34,1.22.48,2.42,3.52,6.78,1.91,1.86-1.53-9.01-8.12-9.96-8.55-1.71-.76-3.54-1.33-5.33-2.11ZM1038.25,177.85c-1.06-.59-5.13-1.88-5.63-1.37-.86.87,3.81,7.32,3.63,8.91,3.02,4.31,16.59,7.16,18.65,11.3,2.34,4.7-.35,8.41-1.28,12.78,5.2,2.32,6.78-4.39,8.99-5.46,2.06-1,3.67-.15,5.34-.54.79-.18.67-1.71.83-1.79,1.7-.85,11.27,6.39,13.49,7.66,2.65,1.51,5.92,2.8,8.65,4.13,1.19.58,1.93,3.62,6.7,2,1.29-4.89-3.61-5.96-3-11h7c2.81-2.97-5.21-4.06-7.46-4.04-3.32.03-8.37,1.88-11.9,1.68-2.58-.14-29.04-9.87-32.18-11.61-4.97-2.74-8.49-10.81-11.83-12.66ZM417.58,186.44c.25-1.08-.01-1.88-.96-2.48-1.25-.79-17.87-.83-20.55-.52-2.45.28-4.2,1.83-6.02,1.98-9.97.82-20.87-3.3-25.45,8.53,3.17,3.02,7.57,3.37,11.24,4.61.87.29.43,1.73,2.2,1.99,1.27.18,4.72.22,5.84-.07,1-.27,4.66-7.05,6.72-4.99,2.4,2.39-4.46,4.14-3.99,6.48,2.4,3.89,7.78-.24,7.02-2.99-.25-.93-2.47.17-2.03-1.49,5.35,2.09,6.23-4.09,9.38-5.17,4.02-1.38,7.55-.18,10.9-.87.88-.18,3.48-5.27,5.68-5.01ZM360.78,203.67c-.46.28-.58,1.87-1.12,2.31-2.12,1.76-5.83-5.33-10.36-4.53-1.64,2.72-7.79,4.62-9,7.28-2.13,4.67,3.31,3.34,6.1,4.43.31.12,3.86,2.54,5.45,3.38,1.11.59.48,2.69,3.24,1.95.44-.12.33-1.74,1.22-1.97,7.52-2.01,18.85.51,24.57-1.04.25-.07,3.65-3.49,3.73-3.74.75-2.4-1.94-6.76-3.72-7.26-6.11-1.7-9.14,3.05-11.8,2.99-2.49-.06-4.81-5.9-8.31-3.8ZM262.34,204.77c-6.81-7.28-17.47,11.77-21.55,15.33-.57.85-8.79,14.07-5.66,14.38,7.28,1.35,12.88-8.1,18.97-7.05,6.76,1.17-2.06,15.05-4.82,17.69-1.81,1.73-7.2,3.67-8,5.59-2.67,6.41,1.97,7.97,7.63,6.71.45-.1,6.16-5.16,7.07-6.07,1.75-1.75,3.76-6.16,6-7.52,4.38-2.66,8.02-3.1,12.8-6.71.7-.53,1.99-.42,2.56-1,1.57-1.58,2.79-5.7,2.24-7.93-.13-.52-5.99-7.19-6.91-8.26-2.29-2.64-5.96-5.06-7.77-8.19-.85-1.48-1.43-5.8-2.54-6.98ZM303.29,206.78c-2.91-3.98-10.92-2.52-11.73,2.19-2.23,12.82,19.27,8.09,11.73-2.19ZM345.38,216.7c-.54-.46-13.25-3.72-13.76-3.22-.23,5.1,6.95,6.9,10.99,8.01-1.31,3.91-9,3.6-12.46,2.94-2.39-.45-4.48-3.59-6.92-2.87-.62.18-3.86,4.59-4.99,5.53-1.69,1.4-5.82,2.44-7.12,5.4-2.03,4.61,1.94,6.88-5.94,10.07-12.02,4.87-8.16,4.05-16.94,11.53-1.61,1.37-5.01,2.79-7.25,4.79s-6.96,6.43-8.78,8.59c-3.06,3.64,8.8,4.09,10.4,5.48,1.85,1.61.61,5.12.98,5.52s10.09.23,11.3-.03c.39-.08,3.98-4.37,5.96-5.23,12.76-5.51,24.75-17.28,32.73-28.54.56-.79.27-2.5,1.36-3.9,3.89-5.01,11.4-9.77,16.65-13.33v-1.47c-4.42-.79-5.27-8.47-6.22-9.28ZM1125.21,231.88c-3.78-2.59-8.26-3.94-12.1-6.4-2.45,3.78,4.12,4.38,6.2,6.31,2.45,2.27,3.22,7.72,5.24,9.98,1.12,1.24,6.08,3.29,6.78,4,2.01,2.03,5.06,9.4,6.64,11.39,7.28,9.23,19.21,15.46,27.92,22.28,1.51,1.18,8.47,10.29,10.72,8.04-1.11-2.4,2.01-3.26,2.06-3.61.43-3.18-4.37-6.02-4.91-8.12-.58-2.27,1.4-4.5.05-7.85-.73-1.82-2.32-1.79-3-3.07-1.22-2.31-.61-4.95-2.62-7.42-2.92-3.59-11.09-4.05-14.8-5.95-2.85-1.46-10.35-8.48-14.5-10.95-5.7-3.4-8.35-4.97-13.68-8.62ZM1289.61,314.48c3.87,1.75,24.21-1.32,30,0-.51-4.28-5.17-6.51-7.63-9.4-7.56-8.89-15.85-18.05-25.02-25.5-4.03-3.28-15.07-11.24-19.44-5.7-6.28,7.98,9.84,10.3,13.38,13.58,4.25,3.95,2.6,12.41,3.73,17.34.17.75,1.78.59,1.96,1.37.93,4.02-1.37,3.18,2.66,6.7.54.48.29,1.57.37,1.61ZM225.39,278.68c-.91-1.6-9.08-3.25-11.24-3.23-2.86.04-7.24,2.3-8.58,4.74-3.7,6.72-6.41,20.3-10.04,28.5-.61,1.38-2.08,4.15-2.98,6.02-.45.93-2.01.86-2.51,2.65-1.26,4.47-1.17,7.32,3.93,7.04,6.2-.34,3.79-2.44,5.64-5.21,5.86-8.74,8.84-18.51,15.62-25.55,1.91-1.99,2.83-2.53,5.02-5.02s7.38-6.01,5.14-9.94ZM1218.11,275.48c-3.93-.84-10.24.61-14.5,0-.27,1.55-.05,1.89.75,3.04,1.92,2.78,10.15,7.95,10.3,11.42.02.37-4.63,4.49-5.1,5.24-.76,1.21-.69,3.88-1.05,4.2-.86.76-10.34-.47-10.9.09-.76.75-.67,18.76.06,21.27.24.83,1.51.78,1.87,1.52.61,1.24.4,2.71,1.36,3.95,1.95,2.52,12.76,8.72,17.07,13.38,14.61,15.82,24.73,32.81,36.65,50.14,14.56,21.18,18.82,42.68,30.1,64.94,3.14,6.2,7.85,12.31,11.07,19.13,6.51,13.79,9.8,28.98,14.74,42.45.59,1.6.4,4.4,1.04,5.59.69,1.28,2.9.08,3.11,1.15.38,2.02-.93,4.19-.86,5.98.19,4.79,2.69,19.86,3.82,24.82.17.74,1.77.59,1.96,1.37,2.02,8.37-2.09,21.06,12.02,18.31.65,4.56-9.6,2.11-10.86,4.13-.65,1.05.16,5.86-.35,8.15-1.88,8.61-14.61,9.36-14.87,11.3s1.79,3.24,2.04,4.94c3.13,20.78,6.28,46,7.08,66.92.47,12.37-1.05,25.94-.08,38.08.33,4.13,3.49,11.65,2.36,14.23-.57,1.29-2.16.74-2.4,2.68-.72,5.97.66,13.39.07,19.55l5.99-3.99-7,61c7.28-2.37,2.55,7.58,4,9,.34.33,4.76-.25,6.01,0v2.99c-7.99-2.19-8.24,5.47-7.07,11.46.23,1.21,2.93-.12,3.14,1.1.74,4.31.21,10.77.98,14.9.35,1.89,2.03,3.45,2.52,5.47,3.14,12.92-7.29,37.03-11.46,49.69s-7.4,26.38-12.03,38.15c.67,3.59-7.08,22.02-6.03,23.19,1.82,2.04,5.82.3,7.43-1.99,3.82-5.47,5.31-12.34,8.14-17.84,15.31-29.7,35.41-70.55,43.31-100.88.38-1.47,1.54-9.77,1.08-10.24-12.11-.15-4.43-1.61-.41-4.4,10.66-7.41-3.24-6.06-7.02-6.67-3.31-.54-6.71-2.44-10.2-2.76l-4.37-4.15c5.82,2,11.01-.48,16.49-.02,3.54.3,6.68,2.77,10.43,1.94.09-4.58,3.15-8.32,3.81-12.68,1.58-10.45,3.31-20.51,5.16-30.84,1.63-9.13,2.76-18.48,4.15-27.65,2.52-2.03,4.6-6.46,8-3.09.9,5.3-.12,15.03.97,19.66.19.81,1.81.27,2.06,2.12,2.15,16.45-7.63,55.45-11.02,73.13-2.79,14.56-8.19,26.16-11.97,39.23-1.22,4.21-.4,8.14-1.1,11.52-.07.36-4.5,4.59-4.92,5.46-.47.98-4.09,12.04-4.09,12.71,0,.57,9.29,1.42,7.01,7.51-2.58.51-5.29-2.26-7.74-1.34-2.57.96-9.67,18.98-11.34,22.56-2.2,4.72-6.53,9.16-6.73,15.27-.15,4.7,3.15,5.81-1.63,10.11-.52.46-1.92.26-2.26.65-.26.3-3.24,6.86-3.32,7.25-.59,3.04,7.14.9,9.02,1.52v2.99c-7.98.34-11.8-3.87-15.34,5.18-.87,2.24-1.91,4.81-2.58,6.61-5.49,14.82,7.88,3.05,14.9,6.2.84-2.11,2.18-6.55,3.07-8.22,11.44-21.47,19.14-41.51,27.04-63.97.8-2.26,2.92-3.15,2.99-8.3.02-1.6-1.52-5.98-1.05-6.44.3-.3,2.17.51,3.77-1.73,3.13-4.36,4.76-16.99,6.27-22.56,6.62-24.5,13.49-49.72,16.98-75.2,5.8-42.3,6.96-84.28,3.96-127.07-2.07-29.52-4.59-55.42-10.12-83.88-3.73-19.18-14.07-64.53-22.82-80.39-.68-1.23-.46-3.95-1.73-4.26-1.93-.47-5.16.39-7.35.05v3.99c9.39-3.43,10.34,4.1,2.51,4.11-4.58,0-7.65-5.76-6.43-9.47,1.02-3.1,11.33.46,8.9-9.92-.06-.25-3.37-3.45-3.61-3.53-3.05-.99-17.79.47-19.34-2.69-.47-2.19,3.24-2.4,4.48-2.49,6.26-.47,16.59,4.67,12.66-5.62-10.39-27.26-26.12-56.48-41.08-81.16-2.65-4.37-.67-5.92-9.08-5.21-1.08-4.6,2.28-2.35,2.91-3.05,1.95-2.17-4.53-10.95-6.08-13.32-4.45-6.84-9.95-13.48-14.77-20.4-3.83-5.48-16.82-27.88-21.77-29.02-3.05-.7-19.88-.48-21.29-2.22-.09-.12-.11-2.79,0-2.97,1.25-1.98,19.29,3.95,15.33-4.76-6.19-7.25-13.6-13.62-19.97-20.66-1.19-1.31-3.47-5.88-4.72-7.27-1.55-1.73-9.86-10.05-11.14-10.32ZM291.61,284.49c-8.14-1.13-23.11-8.53-30.76-5.35-1.37.57-6.48,8.56-8.26,10.53-24.15,26.69-44.3,55.38-64.83,83.47-137.27,216.05-129,496.63,22.47,700.71,4.21,5.67,12.42,20.61,19.11,22.41,2.91.78,7.54.3,10.49,1.31,1.05.36,12.49,8.68,5.35,7.85l-13.56-4.94c-1.54,1.54,3.82,7.76,5.23,8.34,2.31.94,4.84.29,7.02.9,4.51,1.26,18.36,5.86,20.78,9.47s2.72,11.86-2.97,9.76c-1.09-.4-10.03-5.61-8.1,0,7.62,6.72,13.76,14.92,21.15,21.86,6.08,5.72,12.41,10.82,19.08,15.67,1.39,1.01,2.07,3.14,4.21,4.08,7.61,3.33,19.03.35,25.88,1.95.38.09,3.77,3.81,6.7,2.98.84,1.23-1.2,4.46-2.5,4.98-.78.32-.14-1.47-1.22-1.95-1.27-.56-5.46-1.83-6.74-1.88-1.35-.05-13.1,1.33-13.53,1.86-.15.19-.12,2.23.21,2.81,4.11,1.69,6.26,5.22,9.84,7.63,1.75,1.18,9.15,4.16,9.98,5.01,1.15,1.18.68,3.18,1.59,4.46,1.29,1.83,10.61,8.9,12.37,7.08v-4.01s12,1.01,12,1.01c.38,1.38-1.6,5.35-1,5.99.14.15,5.48-.31,3,1.99-1.04.97-8.23-.42-5.79,3.83.54.94,15.47,10.58,18.04,12.19.7.44.67,1.79,1.44,1.97,1.77.4,7.86-.41,8.3.02.22.21-.97,4.72.01,5.99,4.26-.99,7.28-2.93,11.99-1.99,1.42,3.15-2.94,5.19-3.02,5.52-.94,3.72,2.14,2.28,4.25,3.54,21.76,13.07,43.48,25.58,66,36.01,2.51,1.16,6.52,4.23,9.95,5.26,4.67,1.4,6.2-.16,8.26-4.42,1.87-3.85-1.44-4.57,6.56-3.91,1.59,4.65-1.47,5.51-2.17,7.36-3.31,8.78.79,5.83,5.37,7.74,103.92,43.11,201.12,58.9,316.28,50.89,35.51-2.47,76.64-10.52,109.9-19.1,132.15-34.08,262.33-114.95,347.99-226.52,1.39-1.81,8.23-7.56,8.2-9.83-.08-5.05-4.83-1.05-8.16-.63-7.99,1.01-10.53-3.24-17.78-2.76-15.42,13.76-28.48,31.58-43.76,45.2-2.79,2.48-8.14,4.93-10.52,7.03-8.55,7.52-16.33,18.22-25.02,25.52-12.22,10.26-23,16.81-34.99,28.5-9.73,9.48-18.66,12.23-29.57,20.61-7.85,6.04-12.45,12.88-21,18.06-5.01,3.03-13.61,8.56-18.58,10.85-6,2.77-14.97,4.4-20.43,7.11-1.33.66-3.87,4.65-5.42,5.79-5.03,3.7-9.96,1.46-16.03,3.02-3.94,1.02-8.14,4.4-10.7,5.33-6,2.17-11.63,3.35-17.4,5.76-9.66,4.04-18.47,10.11-27.02,15-9.43,5.39-23.18,15.42-34.67,16.11-3.12.19-9.79,1.11-9.53-3.03,3.83-.07,8.39-.28,10.99-3.51-2.68.36-6.81-2.5-8.49-2.45-.8.02-12.26,5.13-14.73,6.04-7.04,2.6-14.88,5.7-23.28,5.91-5.67.14-11.65-2.16-16.72.08-.79.35-.93,1.67-1.49,1.91-12.19,5.31-24.98,2.32-37.84,3.95-1.91.24-.95,1.91-2.87,2.16-15.78,2.01-33.72,1.24-49.94,3.05-4.14.46-7.29,2.5-11.06,2.94-6.4.75-11.38-1.98-17.84-3.31-24.25-4.99-61.3-8.33-86.25-5.77-4.62.47-3.68,2.19-5.25,2.94-2.21,1.04-36.4.39-41.72.06-6.28-.39-13.43-3.55-20.51-1.99-1.34-5.86,2.7-9.6,3.01-15-3.31-1.07-7.9,1.12-9.28,4.21-.98,2.19-.23,6.34-1.66,7.36s-10.98,1.5-10.06-2.56c6.7.96,7.37-4.72,10.32-8.71.32-.43,5.52-3.13,1.14-4.29-2.75-.73-5.31,3.44-7.86,3.07-1.19-.17-2.58-6.58-4.58-7.59-1.77-.89-4.65-.35-6.85-1.15-16.41-5.94-32-8.85-47.86-15.12-4.34-1.72-13.8-7.41-17.01-8.17s-7.05-.37-11.17-1.65c-6.06-1.88-9.71-7.58-14.87-10.33-2.37-1.26-8.45-2.76-10.56-3.99-1.22-.71-2.5-4.57-4.7-5.55-2.73-1.21-11.86-1.48-16.03-2.97-9.12-3.27-17.12-14.74-26.47-15.53-6.8-.57-13.35-1.41-19.97-2.03-6.02-.56-13.86.68-19.78-1.03-.38-.11-4.95-4.7-6.1-5.12-2.92-1.07-4.74-.71-7.61.16l1.5-4.04c4.59,1.48,9.53.49,13.94,1.09,1.55.21,2.75,1.73,5,2,5.76.71,12.89,1.27,18.55.45-2.92-4.89-6.37-2.8-10.42-3.58-6.5-1.25-15.07-3.93-21.13-4.87-3.86-.6-8.47.32-12.44-.06-.22-4.42,9.21-3.28,12.41-2.91,3.03.34,19.74,5.29,20.58,1.4.95-4.44-9.07-4.95-11.25-5.55-.85-.23-.73-1.78-1.44-1.94-2.1-.48-7.57,1.74-8.3,1-.85-.85,2.33-6.23-.52-6.99-3.25-.87-3.88,3.73-5.92,5.07-4.2,2.76-15,.16-19.57-2.09,3.92-5.71,14.19-1.75,19.97-6.06,1.62-2.42-13.61-8.84-15.24-9.94-1.5-1.01-6.68-7.78-7.46-7.99-1.61-.42-6.85.44-7.27,0-.22-.23.21-4.31-.95-6.3-.47-.81-13.16-11.27-14.36-11.89-3.05-1.58-12.13-4.18-15.44-4.67-2.44-.36-5.98,4.16-8.76.87-1.17-1.38-2.41-6.22.13-6.92,4.53-1.25,15.82,7.91,17.37.45-2.56-2.07-5.41-3.93-7.56-6.48-1.17-1.38-1.34-3.69-1.57-3.9-.93-.84-16.57.36-23.52-6.55-.14-.14-2.26-3.12-2.3-3.32-.77-3.51.73-7.44-1.12-11.49-.76-1.68-6.59-5.63-7.97-7.51-2.36-3.22-2.98-8.71-4.57-12.16-10.58-22.98-30.54-44.05-43.84-66.16-.93-1.54-3.68-10.73-5.54-14.67-2.28-4.84-2.44-9.76-4.08-13.5-.56-1.28-6.43-5.83-7.9-7.6-9.32-11.13-20.59-24.12-24.19-38.54-2-8.01,4.97-15.72-8.84-13.65,1.76-9.79-3.61-17.68-2.99-27.01-11.22.77-7.68-1.4-10.1-8.2-2.03-5.69-5.84-11.62-5.99-18.29-.05-2.3,1.36-4.42.94-6.77-.81-4.57-10.03-20.06-12.02-25.1-8.7-22.04-7.07-43.33-8.85-66.12-.53-6.81-3.43-13.21-3.98-20.02-.48-6.01.81-13.37.04-19.04s-5.98-18.65-5.01-23.89,2.89-8.36,2.04-15.13c-.24-1.91-1.92-.95-2.16-2.87-.37-2.9-.51-19.67.03-21.91.41-1.69,4.75-.94,5.11-2.24.54-3.89-2.43-6.23-2.98-10-.51-3.47-.49-11.38-.09-14.91.53-4.65,3.41-6.73,3.95-10.05,2.43-15.07,1.55-29.89,4.97-45.03,3.05-13.54,4.67-25.1,7.14-38.86,1.54-8.58,5.62-14.89,9-22.82.35-.82,1.99-.68,1.98-1.25-.09-3.55-4.78-4.14-1.94-13.7.7-2.35,3.77-8.09,4.83-10.54.4-.93-.17-2.57.63-4.22.66-1.38,8.44-5.79,8.5-6.63.17-2.12-2.81-4.96-2.13-9.96.24-1.75,1.76-1.4,1.98-2.22,1.57-5.67,3.56-14.89,7.05-19.5.98-1.29,5.55-4.36,5.87-5.36.81-2.55-.55-5.64.46-8.11.53-1.31,7.62-5.47,7.74-5.96.65-2.65-.78-5.63-.58-8.35.86-11.44,15.31-28.39,21.73-38.33,8.04-12.46,15.09-27.33,23.43-40.01,2.55-3.88,4.93-8.19,7.34-12.17,2.04-1.51,6.88,1.52,8.01.52.33-.29,2.15-6.32,3.3-8.25.71-1.19,2.07-1.5,2.4-2.04,1.95-3.14,2.6-10.58,8.13-7.99,1.23.58,1.62,4.66,4.27-.13,1.67-3.01.42-5.13,1.16-7.84,1.34-4.94,9.94-7.66,13.43-11.07,4.25-4.15,9.35-12.1,13.46-16.99,1.85-2.2,5.73-3.42,4.9-6.64ZM286.61,302.48c-1.59-1.65-7.93,4.69-5.99,6.99,1.06,1.27,7.66-5.26,5.99-6.99ZM147.49,314.35c2.58-2.21-.01-8.98-4.65-4.62-3.17,2.98,2.02,6.87,4.65,4.62ZM265.01,330.87c1.16-1.01,6.09-2.69,6.59-4.92.28-1.23-1.25-2.75-2.47-2.47-.37.08-5.42,3.75-6.18,4.36-2.87,2.27-13.27,13.1-10.33,16.63,2.19.51,2.26-1.18,3.17-2.36,3.03-3.91,5.41-7.92,9.22-11.23ZM1089.29,333.83c-44.61-11.67-90.73.47-119.11,36.73-21.05,26.9-27.53,56.61-25.61,91.45,3.24,59,54.83,116.99,115.49,117.5,32.03.27,68.96-14.53,93.78-34.04,7.39-5.81,4.99-15.85,3.67-24.4-3.22-20.76-9.15-44.49-13.81-65.19-.68-3.03-2.09-17.43-4.72-18.32l-67.62,10.15c-5.95,1.74-6.62,6.68-5.69,12.21.25,1.46,1.59,2.59,1.84,4.15.95,5.94,3.09,25.94,6.68,29.32,6.33,5.94,20.61-3.65,25.02-.02,2.26,1.86,3.96,16.1,1.81,19.02-3.76,5.13-27.29,10.05-33.87,10.12-42.15.51-71.23-38.18-67.59-78.59,2-22.16,14.39-45.88,35.28-54.52.7-.29.72-1.74,1.46-1.9,6-1.29,21.43-2.19,27.84-2.07,10.39.2,17.6,3.28,26.71,7.29,2.81,1.24,3.36,4.05,8.06,2.57,3.12-.99,11.13-17.56,13.44-21.6,2.64-4.6,7.29-9.99,9.41-15.59,1.67-4.42.64-7.58-3.39-9.94-3.6-2.11-16.61-6.02-19.11-8.63-.9-.94-.46-2.5-.83-2.83s-8.53-2.71-9.14-2.87ZM1206.29,350.86c-2.5-2.47-7.64-5.42-11.18-8.37-4.88-4.06-13.32-3.92-19.48-3.51l17.41,19.59c4.44,3.17,15.61,10.04,18.25,14.23,1.67,2.66,2.14,6.77,4.34,9.93.32.45,4.15,4.66,4.99,3.77,1.24-1.31.7-10.12,1.06-12.45s2.95-3.99,1.98-7.84c-.45-1.78-8.99-4.16-10.74-5.99-1.49-1.56-5.15-7.89-6.61-9.33ZM884.3,365.78c-3.49-4.9-10-1.04-13.42-.53-8.54,1.28-18.17,2.38-26.5,4.5-4.39,1.12-8.61,2.39-9.76,7.26,15.65,77.02,30.12,154.38,45.23,231.21l6.24,3.35c13.27-4.45,29.09-3.79,41.39-9.73l2.21-4.87c-13.72-69.59-26.51-138.92-40.85-208.24-.87-4.22-2.61-20.24-4.55-22.96ZM129.29,366.83c-4.34-2.85-10.8-2-13.67,2.38s-4.61,12.51-7.04,16.49c-1.61,2.62-8.32,6.04-8.81,7.45-.98,2.86.5,7.57-.2,10.62-.16.72-1.49.73-1.88,1.49-.65,1.25-.49,3.02-1.58,4.22-1.89,2.07-12.19,2.76-13.38,4.12-1.07,1.22,1.17,12.79-1.04,16.22-1.53,2.37-12.66,2.65-14.59,6.65-1.33,2.76-.5,9.3.59,12.22.23.62,1.5.76,1.81,1.59,2.66,7.01-.12,11.29-3,17.39-2.22,4.71-6.02,10.53-7.8,15.61-2.34,6.67-2.29,13.93,4.91,16.69,5.88,2.26,16.02,4.66,22.03,3.05,5.44-1.46,4.46-4.35,6.04-7.77,2.29-4.95,6.81-14.62,7.9-19.47,1-4.47.11-12.52,1.05-16.62.16-.7,1.64-.58,1.91-1.43.46-1.43.07-3.26.75-5.05,1.24-3.27,11.83-11.57,14.28-14.98,6.08-8.48,11.21-20.06,15.79-28.94,2.84-5.51,9.27-17.27,9.32-22.77.06-6.66-.58-5.05-3.74-8.9-1.86-2.27-1.83-1.82-3.26-3.3-1.51-1.56-5.05-6.08-6.39-6.96ZM762.24,396.87c-24.73-10.65-43.81-4.49-68.87-.13-17.67,3.08-35.59,7.27-53.32,10.68-6.14,1.18-14.67-.68-16.97,7.03,6.16,39.28,14.74,77.81,22.29,116.76,6.32,32.61,11.44,65.86,18.51,98.49.9,4.15,2.07,11.29,3.18,14.82.43,1.38,1.81,3.32,3.24,3.75,4.15,1.26,25.09-2.79,30.56-4.05,19.66-4.54,16.74-4.83,13.48-23.98-3.95-23.15-9.99-46.11-13.76-69.32-1-6.33,7.84-5.06,12.3-5.68,1.75-.25,3.49-1.65,5.32-1.73,5.88-.28,11.6,12.34,14.78,16.6,14.05,18.85,27.8,39.73,42.2,58.27,2.53,3.26,7.4,11.37,11.67,10.93,14.34-4.44,29.27-6.18,43.99-8.87.5-.18,3.48-4.2,3.63-4.71.75-2.68-7.73-14.73-9.89-17.73-11.28-15.68-23.94-30.79-35.34-46.12-4.9-6.58-10.71-12.53-14.98-19.63-1.16-4.55,5.58-6.65,7.87-8.78,39.95-37.2,29.18-105.49-19.88-126.62ZM564.23,435.88c-30.09-15.45-71.25-1.44-103.2,4.52-4.53.84-20.53.86-21.98,5.99-1.95,6.91,1.27,10.93,2.32,16.83,11.99,67.46,25.16,134.1,39,201,1.35,6.54.12,14.81,6.97,19.11,6.24-1.87,42.43-5.77,44.27-9.6,2.44-5.11-4.45-29.07-5.74-36-.69-3.72-1.29-7.37-1.99-11.01-2.42-12.71-4.63-25.53-6.84-38.27,1.14-1.55,32.86-5.92,37.82-7.23,45.03-11.83,63.18-66.63,45.24-107.73-5.32-12.2-23.91-31.47-35.86-37.61ZM318.22,515.14c1.93-1.68,2.59-4,5.95-4.61,9.95-1.81,20.82,2.27,30.75,2.15,6.2,1.91,16.84,8.62,22.68,9.41s7.59-2.73,9.76-7.36c2.17-4.61,10.26-26.71,10.33-30.75.13-7.33-5.48-9.58-11.41-12.65-35.82-18.58-95.92-12.79-117.5,24.84-23.36,40.72-.15,85.2,38.61,103.26,16.41,7.64,34.59,7.9,51.13,16.67,17.81,9.45,26.68,25.87,10.41,42.4-4.26.32-5.84,3.4-9.91,3.87-5.51.64-16.16-.02-21.66-1.12-9.13-1.83-19.12-8.38-27.66-10.35-10.43-2.41-11.55,8.5-13.97,16.18-1.8,5.71-4.67,14.56-5.86,20.14-1.13,5.27,1.73,6.87,5.81,9.71,23.52,16.34,65.15,17.81,91.86,6.97,37.75-15.33,55.43-59.09,38.79-95.62-13.49-29.61-37.19-40.43-67.31-49.69-13.01-4-35.24-6.91-43.64-18.33-.57-.78-4.77-7.75-4.83-8.22-.95-8.16.17-8.62,4.72-13.96.46-.54.16-1.85.63-2.32s1.84-.19,2.33-.61ZM1271.48,474.61c-5.9-4.24-.08,6.69.07,7.42.55,2.61-1.15,10.66,3.45,9.44.18-.05,2.53-2.52,2.58-2.7.89-3.57-1.42-2.95-1.88-4.06-.67-1.61-3.03-9.23-4.22-10.09ZM70.33,510.8c-1.42-.63-7.4-.66-9.01-.3-.72.16-.74,1.53-1.48,1.9-1.17.59-3.2.46-4.02,1.27s-.68,2.85-1.28,4.01c-3.47,6.84-4.52,18.19-4.94,26.27-.35,6.78-3.79,11.41,6.5,11.58,8.69.14,7.68-8.62,11.52-14.34l13.76-16.44c2.32-3.35-2.9-9.92-5.47-11.29-1.59-.85-3.19-.55-4.53-1.08-.8-.32-.82-1.48-1.06-1.59ZM163.61,515.48c-3.22-2.9-9.08,10.87-6.99,12.99.36.37,2.8.15,3.52-.96.95-1.46.14-3.7.51-5.32.09-.38,4.54-5.28,2.96-6.71ZM53.02,570.88c.8-.96,2.29-.76,2.65-2.89,1.07-6.39-9.64-5.45-11.58-3.53-4.23,4.18-.42,17.62,8.93,6.43ZM1179.24,624.89c-2.73-1.44-6.09-1.68-9.12-1.43-6.97.58-18.42,4.63-26.11,5.91-3.95.66-7.89-1.33-10.97,2.03-4.33,4.73-.59,11.79.3,16.84,5.5,31.06,12.21,61.41,18,92,1.1,5.81,1.34,11.6,3.26,17.23-1.44.27-2.45-.25-3.71-.78-5.98-2.54-12.65-9.36-17.91-13.04-40.31-28.25-81.24-55.96-120.96-84.54-5.8-4.17-5.41-9.53-15.87-7.58-7.58,1.42-6.36,10.61-5.47,16.38.26,1.69,1.42,2.94,1.66,4.33,10.62,61.32,23.45,122.45,36,183,1.97,9.52,3.6,28.65,7.48,36.56s12.66,2.8,18.35,1.74c5.11-.95,9.97-1.96,15-3,5.81-1.2,13.92.72,16.31-6.81l-23.87-127.26c3.8-.84,5.49,3.36,7.36,4.63,46.74,31.86,89.49,69.89,136.17,101.38,1.32.89,4.23,3.29,4.48,3.43,4.47,2.42,13.99,1.6,16.96-3.16l-47.34-237.87ZM1405,647.1c-1.89-2.47-1.03-5.93-6.43-1.95,1.29,12.47-1.57,27.81-.04,39.9.24,1.91,1.92.95,2.16,2.87,1.59,12.55-.96,28.93-.12,42.11.33,5.23.06,12.43,6.53,12.54,4.07.07,7.57-2.94,9.91-5.73.55-.66,2.06.35,1.62-1.85-.17-.84-1.53-.3-1.98-1.22-7.9-16.28-1.83-33.97-3.04-51.77-.36-5.29-1.8-9.39-2.95-14.06-1.32-5.38,2.33-6.01-7.05-6.46-.91-4.12,5.96-.2,6.96-3.59.64-2.16-4.22-9.01-5.57-10.78ZM930.25,689.84c-26.15-19.62-51.63-11.8-80.4-6.62-22.83,4.11-45.7,7.93-68.48,12.28-5.9,5.56-2.13,10.43-1.02,16.73,11.69,66.7,24.8,133.96,39,200,1.24,5.77,1.75,13.78,3.31,19.5.07.24,3.35,3.48,3.59,3.56,1.8.6,3.89.2,5.73.05,7.19-.58,17.83-4.26,25.18-5.81,5.2-1.1,12.18.86,15.04-6.03l-16.62-87.53c.48-4.42,17.85-6.2,21.53-5.5,3.09.59,3.96,5.16,5.66,7.38,1.15,1.51,2.13,2.73,3.21,4.2,17.34,23.64,34.67,47.31,51.28,71.51,3.06,1.24,6.51,1.16,9.73.8,6.96-.79,17.02-4.41,24.16-5.83,4.68-.93,17.23.05,19.05-6.03,1.41-4.71-3.08-7.16-4.94-10.16-6.13-9.93-11.95-15.85-18.5-24.5-12.07-15.92-23.43-32.46-36.35-47.79-.46-1.57-1.07-2.89-.36-4.55s11.72-9.54,14.48-12.84c29.03-34.83,21.57-85.92-14.3-112.83ZM738.37,755.24c.7-.59,1.01-2.36,1.14-3.33,1.12-8.42-3.89-31.53-6.35-40.48s-18.91-2.84-26.06-1.96c-9.59,1.18-16.54,2.14-26.09,3.91-1.66.31-3.49-.21-4.84.03-1.22.21.14,2.9-1.13,3.13-6.82,1.25-14.91.95-21.79,2.07-18.49,3.01-37.5,6.57-55.9,10.1-11.55,2.22-7.16,7.9-5.97,15.5,8.1,51.47,19.9,102.8,29.99,154.01,3.49,17.71,5.58,35.88,9.5,53.5.69,3.09,2.53,12.48,3.47,14.53s3.39,2.82,5.27,3.82c11.04-2.06,22.15-3.93,33.24-5.85,29.38-5.09,59.02-11.09,88.35-16.65,7.27-1.38,16.16,1.37,15.43-9.56-.52-7.73-3.97-28.63-6.12-35.91-1.71-5.8-3.05-6.78-9.4-6.71-10.52.13-21.84,4.09-32.1,5.99-17.05,3.15-34.16,6.13-51.13,9.85-6.19-1.73-4.5-9.36-5.5-14.01-.95-4.39-7.41-29.61-5.63-31.62l73.16-14.33c4.27-1.71,2.08-12.02,1.46-16.03-1.54-9.98-4.95-20.47-6.4-30.55-.48-1.13-4.95-2.79-6.09-2.97-3.46-.57-14.59,1.19-18.67,1.85-16.5,2.65-33.87,7.45-50.34,10.77-6.59-.36-4.49-6.08-5.47-10.12-2.43-9.97-5.69-20.9-5.63-31.1l89.62-17.87ZM561.38,787.25c1.97-1.92.54-10.15.12-13.15-1.12-7.83-4.39-16.36-5.66-23.35-1.03-5.68,1.97-10.14-5.8-12.25-17.21,2.7-34.61,4.91-51.72,8.19-1.93.37-3.08,2.29-5.29,2.71-23.98,4.55-50.21,7.04-73.7,12.3-12.84,2.88-6.43,11.23-4.96,19.5,10.51,59.02,21.51,118.3,33.35,176.65,2.29,11.29,4.24,24.03,6.99,35.01.26,1.05,2.2,7.25,2.4,7.6,2.24,3.81,16.37.4,20.72-.26,1.34-.2,2.66-1.38,4.32-1.68,13.91-2.51,25.93,2.09,22.35-17.46-1.12-6.12-3.47-13.12-4.64-19.36-3.53-18.69-6.75-37.46-10.19-56.15,3.21-.51,6.61-2.25,9.66-2.85,18.96-3.67,40.73-5.93,59.29-10.71,3.8-.98,7.41-1.56,7.65-6.18-1.17-8.02-3.3-15.98-4.55-23.98-1.04-6.64-1.35-6.7-2.93-12.07-1.22-4.15,1.61-7.08-5.18-8.83-3.31-.86-14.14,1.06-18.28,1.77-16.31,2.79-32.98,8.03-49.47,10.53-2.42.37-4.84.31-7.26.22-1.06-9.25-2.45-18.27-4.08-27.42-.76-4.24-5.58-17.47-3.02-20.91l89.85-17.88ZM1410.61,803.48c1.75-8.95,4.31-22.7-.24-31.25-3.33-6.26-7.83,3.81-8.48,7.03-.34,1.68-.72,11.8-.28,12.23.46.46,5.06-.63,5.89.17.22.21,2.48,5.45,2.11,5.82-.51.52-3.55-.48-4.43-1.1-.46-.32-3.14-5.34-3.57-2.39-.5,3.49,4.8,10.04,9,9.5ZM1418.34,831.21c3.9-3.76-1.53-5.47-5.01-4.7-.8.18-1.06,2.41-2.71,1.98,1.38,3.05,4.87,5.46,7.72,2.71ZM312.45,839.64c-3.36-2.13-14.53,1.67-18.6,2.58-5.04,1.13-10.76-.61-13.01,6.02l8.35,50.31c-7.43,4.27-44.05,6.54-47.49,11.5-.77,1.11-1.09,2.55-1.11,3.9-.04,3.1,3.31,20.35,4.33,23.72.66,2.16,2.43,5.75,4.66,6.42l47.09-8.19c4.2,14.54,5.45,29.99,9.63,44.38,1.27,4.39-.35,7.71,5.85,9.16,5.13-2.24,25.62-2.7,27.29-7.63s-.99-9.25-1.57-13.1c-1.59-10.69-4.04-21.58-6.24-30.92-.26-1.11-.25-7.59.12-8.17,1.3-2.05,40.14-7.77,45.63-9.8,3.78-1.58,1.81-14.96,1.16-18.77-.25-1.44-1.46-2.57-1.84-4.16-1.96-8.25.37-13.84-11.52-12.31-10.73,1.38-22.52,4.45-33.85,6.14-1.3.19-2.69,1.54-4.35,1.79-5.76.85-4.72-10.76-5.43-14.45-1.2-6.22-3.58-13.88-4.84-20.16-.8-3.97-1.14-16.25-4.26-18.23ZM1394.2,866.09c1.92-3.91,9.28-16.86.15-15.43-5.34.83-4.22,3.24-5.82,6.02-10.73,18.71-14.41,43.06-21.02,63-2.83,8.53-7.5,17.29-10.82,25.57-1.22,3.04-3.72,8.62-3.07,11.52.16.72,6.44,3.64-.09,7.12-5.16,2.76-7.39.06-6.92,9.57,4.75.51,7.91-3.25,13-1.99-.13.82.21,2.71,0,2.98-1,1.2-15.53,2.33-16,3.03-.75,3.6,3.76,4.4,2.99,7.98-8.76.89-8.45,6.42-12.04,12.25-1.71,2.78-6.55,4.59-4.96,9.76,2.92.02,7.45-.01,9.01,2.99-2.98-.81-14.12.61-15.04,3.55-1.25,4.01,4.65,2.6,5.04,3.97.72,2.47-4.93,2.29-5,4.48,6.82-.22,11.49,2.22,17.99-.98-1.22,8.33-.09,11.63-10.45,9.94-2.66-.43-12.62-7.69-14.43-2.31-1.92,5.67,4.86,5.91,5.86,8.9.64,1.91-2.1,1.46-3.25,3.7-2.65,5.16,1.57,3.87,3.93,5.14.4.22.44,1.36,1.7,1.8,1.36.47,7.14,1.39,7.63.84.2-.22-.29-2.44.27-3.73.15-.34,4.85-5.14,5.17-5.33,11.02-6.33,1.82,10.52,2.55,11.05l2.93-.04,15.09-31.43c.41-2.87-2.49-.27-5.01-.92-.77-.2-8.68-3.72-9.03-4.06-3.85-3.72,3.33-10.46,5.47-13.64.98-1.45-.3-3.95,3.06-2.92.63.19.71,2.38,2.12,2.87,6.78,2.38,15.16-5.29,18.3-10.64.71-1.21.48-3.13,1.16-4.44,19.75-38.15,31.04-81.44,39.03-124.17.32-1.72,1.59-2.89,1.95-5.05,1.5-9.11-3.16-8.73-3.13-.32-3.98,2.64-6.46,19.55-10.14,21.1-7.61,3.2-12.82-3.13-9.69-10.54.28-.65,1.34-.84,1.5-1.17ZM1201.05,953.06c-29.74-24.85-73.43-4.89-70.42,33.9,1.62,20.88,19.87,34.74,39.43,37.56,3.36.48,13.19-1.4,16.6-2.51,29.84-9.75,38.85-48.52,14.4-68.96ZM1109.41,963.67c-.22-.37-6.64-3.57-7.62-3.86-19.81-5.98-39.27.99-51.14,17.43-25.78,46.03,33.78,84.79,68.44,48.23,3.12-6.79-4.07-7.8-7.18-12-1.99.18-4.8-.46-6.58,0-.36.09-4.44,4.43-5.42,5-1.56.92-3.18.56-4.52,1.09-.92.37-.46,1.77-2.21,1.99-14.31,1.82-27.93-6.54-28.48-21.75-.38-10.47,5.7-21.08,16.65-23.1,6.54-1.2,17.45,2.03,21.61.6,2.02-.69,7.94-11.1,6.46-13.64ZM1295.62,961.48l-4.91.1c-.16,3.75-2.47,6.51-3.67,9.84-.48,1.35-.1,3.06-.49,4.31-.23.74-3.52,1.9-1.93,5.74,1.49.31,4.32-3.77,4.91-4.78,1.3-2.23,3.02-7.86,4.15-10.46.4-.93,3.19-1.19,1.94-4.75ZM986.53,986.55c-.54-.76-15.72-5.56-17.66-5.84-37.53-5.33-63.42,39.01-38.24,67.96,11.79,13.55,28.87,16.7,45.64,11.95,8.01-2.26,15.56-6.26,22.03-11.41-.53-11.12-4.19-22.38-5.78-33.64-1.32-1.11-25.58,3.59-26.47,4.82-.95,1.32.23,11.99,1,13.13,2.05,3.04,11.71-2.38,11.53,4.49-.06,2.27-6.45,5.06-8.53,5.39-11.1,1.74-23.75-2.3-27.14-13.74s-1.42-20.39,8.19-27.21c4.81-3.42,11.09-4.85,16.95-3.92,2.93.46,6.88,3.62,9.87,3,.87-.18,10.12-12.88,8.61-14.99ZM1248.36,989.76c-7.14-2.95-16.24,3.97-15.54,11.93.82,9.24,10.05,13.12,17.7,8.16,4.33-2.8,5.29-8.82,3.88-13.66-.17-.59-5.63-6.26-6.04-6.43ZM1322.24,999.12c.84-1.35,2.48-6.52.87-6.66-2.1,4.06-4.35,4.43-7.72,6.08-.76.37-.76,1.74-1.48,1.91-5.1,1.19-6.53-2.67-9.85-2.96-8.89-.76-1.34,7.7-2.44,8.97-3.06-1.19-8.78,3.84-8.04,6.47,1.12,3.92,9.04,1.44,10.47,1.51.36.02,1.34,4.4,5.98,1.14,1.44-1.01-.16-5.45,1.15-8.09,1.18-2.39,8.95-4.95,11.07-8.37ZM882.97,1063.11c1.22.76,2.75.75,3.99,1.51,2.64,1.6,17.6,14.13,19.57,7.24l-15.85-76.93c-1.71-1.21-16.36.69-17.07,3.27l6,39.29c-1.78.35-2.88-.48-4.33-1.16-15.09-7.18-32.15-23.46-47.73-31.27l-4.94-.56c.1,3.74-.3,7.53.23,11.27,2.59,18.23,7.87,42.78,12.02,60.98,2.49,10.94,4.68,8.23,13.31,5.81,1.96-.55,5.42.95,6.32-1.71l-6.87-40.35c.81-.81,6.49,2.7,7.6,3.39,9.38,5.84,18.55,13.53,27.75,19.23ZM789.62,1093.47c4.77.95,7.69-.6,11.73-1.75,2.94-.83,6.51.99,6.33-3.72l-14.56-74.53c-1.18-1.44-10.3-.13-12.55.47-1.32.36-5.44,2.61-5.61,4l14.65,75.53ZM740.22,1100.88c2.62,2.37,5.18,5.29,7.4.1-.74-9.54,9.4-78.75,6.06-81.07-1.06-.73-3.18-.59-4.49-.41-1.13.16-7.81,1.83-8.86,2.18-5.86,2-4.23,19.06-4.73,24.27s-2.22,10.28-1.99,15.51c-1.79.36-2.51-.89-3.46-2.05-4.37-5.32-8.34-12.08-12.36-17.57-2.42-3.31-8.94-17.19-14.2-13.91-1.94,1.21-9.03,30.61-9.89,35.12-.64,3.33,1.59,8.56-3.13,5.75-4.39-5.57-13.63-31.56-18.17-34.14-.66-.38-14.39,2.81-14.89,3.46-1.07,1.39.49,5.9,1.19,7.55.3.7,1.45.83,1.81,1.59,3.67,7.8,29.83,63.1,33.09,64.7,1.54.76,4.51,1.05,5.56-.47l12.97-48.04c1.63-.34,1.98,1.39,2.72,2.27,8.55,10.16,15.63,26.32,25.37,35.13ZM1302.61,1030.48c-6.62,1.93-13.58-4.54-19.57-2.2-.62.24-9.19,8.4-9.7,9.13-5.28,7.62,12.09.22,13.73.01,3.33-.42,11.76,2.64,12.48,1.96.2-.19-.17-1.77.38-2.54,1.28-1.78,3.65-2.36,2.68-6.37ZM609.87,1063.72c.27-.22,4.74-1.82,5.5-1.99,6.77-1.58,15.47-2.05,22.31-3.69,2-.48,3.65-.82,3.99-3.08.28-1.82-1.78-14.35-4.58-14.52l-49.06,9.97,13.06,76.08c2.5,4.17,17.07-1.22,21.08-1.94,8.27-1.49,18.84-2.19,26.85-4.16,9.16-2.25,1.63-10.14,2.58-16.9-3.36.25-7.16-.45-10.44.04-4.23.64-9.98,2.16-14.99,3.01-2.52.43-5.87,4.11-9.09.96-1.49-1.46-2.83-12.75-1.26-13.82,6.16-2.37,12.78-1.97,18.97-3.51.94-.23,6.54-1.97,6.84-2.16,2.42-1.53-2.86-12.11-2.07-15.48-4.78-1.51-26.53,5.8-28.86,3.84-.59-.49-2.52-11.24-.85-12.64ZM1289.23,1054.11c4.43-6.53,8.01-13.4-4-10.53-3.64.87-16.11,4.06-18.55,5.5-3.78,2.22-13.42,16.05-16.43,20.05-1.72,2.28-7.41,4.59-4.5,9.21.25.39,6.15,1.89,7.23,1.82,3-.19,5.2-3.17,7.35-3.53,3.77-.62,9,4.92,14-.46,1.61-1.73,3.3-6.39,4.35-7.93,3.26-4.76,7.35-9.4,10.56-14.15ZM1319.25,1049.85c-.9-.69-2.24-.61-3.15-1.32-1.29-1.01-1.61-3.45-3.16-3.95-4.8-1.57-10.36,5.68-8.33,7.9.13.15,5.77-.2,2.99,2-.31.24-4.22-2.26-7.28.96-2.01,2.12-2.22,9.64-.08,11.13,3.81,2.66,12.83.76,10.36,9.91-7.21,2.18-4.1-4.61-7.66-5.84-1.37-.47-10.91-.46-12.09.11s-4.53,5.54-4.15,7.17c.16.69,10.26,6.19,8.9,10.56-6.68-.21-14.76-7.84-17.98,2.47,4.32,3.9,10.71,2.19,15.98,2.54,2.79,2.73-12.43,14.4-15.75,14.84-7.03.94-7.73-10.67-15.35,5.34-.35.74-1.52.8-1.8,1.6-1.9,5.42-1.99,14.29-.18,19.75.22.66,6.28,9.21,6.78,9.51,1.9,1.12,5.29,1.51,7.28.38,1.51-2.46,4.47-5.04,6.07-7.15.72-.95.43-2.86,1.27-3.98,11.42-15.16,26.94-26.5,38.3-42.24.83-1.15,4.03-1.21,1.85-4.09-5.07,2.78-8.2-2.69-2.93-3.93,6.01-1.41,6.07.69,9.62-5.44.34-.58,3.02-5.5,3.14-5.83,4.3-10.78-4.9-8.26-11.06-11.5-.28-.15-4.11-3.54-4.24-3.8-1.83-3.52,8.64-.17,8.99-.49,1.59-1.5-.87-1.9-1.12-2.19-.94-1.06-3.98-3.48-5.24-4.44ZM559.06,1100.95c1.56-1.85,3.51-3.27,4.96-5.57,13.04-20.69-9.86-43.73-31.02-35.01l-28.68,4.32-2.21,1.78,14.64,77.86c3.44,1.49,5.87-1.26,8.42-1.8,3.47-.73,10.31,1.12,9.25-5.32-.72-4.34-2.05-9.15-2.87-14.18-.51-3.14-5.26-13.02,1.63-13.62,5.81-.5,19.14,21,23.22,26.03,6.77,2.65,13.49-1.17,20.2-2.01.11-1.39.24-2.88-.2-4.24-1.4-4.39-16.78-16.98-20.13-22.01-1.45-3.39,1.13-4.25,2.81-6.24ZM472.26,1079.84c-13.92-9.37-32.77-1.57-47.89-.29l-2.78,2.64,14.17,73.63c1.26,4.03,16.26,1.24,20.26.57,11.35-1.89,25.69-5.31,31.08-16.92,3.07-6.61,3.29-11.85-.58-18.19-2.59-4.24-13.68-8.53-13.94-9.49-.94-3.49,1.39-3.05,1.98-4.06,2.04-3.43,6.13-9.93,6.08-13.78-.05-4.15-4.96-11.81-8.39-14.12ZM1259.33,1142.74c-3.04-3.81-12.08-4.93-16.44-2.96-3.5,4.22-8.3,8.06-11.92,12.09-4.1,4.56-26.45,30.32-27.31,33.34-1.36,4.8-.23,7.89-3.74,13.13-4.3,6.43-11.68,2.73-14.18,4.27-1.77,1.09-.71,11.63-1.71,14.84s-10.71,10.18-13.07,14.37c-2.2,3.91-4.26,9.21-.63,12.7,6.05,5.82,13.96-2.08,18.68-5.68,16.14-12.3,36.95-36.32,50.95-52,6.7-7.5,16.39-16.92,20.71-25.58.37-.73,1.59-.67,1.87-1.52.72-2.23.8-9.25-.02-11.49-.32-.87-1.46-.83-1.84-1.56-.64-1.23-.41-2.77-1.35-3.95ZM1148.34,1247.79c-1.42-.61-11.25-.66-13-.27-.46.1-6.83,5.59-7.1,6.04-4.37,7.48,4.22,18.06-5.05,21.99-4.42,1.87-13.2.95-18.79,2.21-3.52.8-6.81,3.15-9.59,4.62-1.98,1.05-6.53,2.44-7.89,4.39-3.94,5.65-3.72,26.1-10.71,28.88-14.38,5.73-5.89-16.49-7.6-18.18-8.61.41-13.65,11.35-23.27,10.05-60.97,25.16-121.72,45.9-187.33,61.84-54.88,13.33-93.86,20.37-151.96,13.17-12.53-1.55-32.28-3.53-27.19,16.19,1.44,5.57,7.29,7.49,12.32,6.82,1.76-.23,1.34-1.7,2.2-1.99,5.64-1.92,9.57-2.76,15.48-4.16.83-.2.74-1.73,1.45-1.9,7.55-1.8,29.44-.9,38.76-1.07,26.74-.47,57.2.98,82.23-4.93,15.45-3.65,28.89,4.21,45.79,2.96,7.21-.53,14.87-4.72,22.08-5.93,12.23-2.04,25.78-2.02,37.87-4.13,10.41-1.81,24.63-7.6,35.17-10.83,9.11-2.8,20.49-3.31,26.03-12.45,1.73-2.84,2.61-9.29,5.97-11.56,1.03-.7,2.54-.62,3.61-1.18.76-.39.78-1.74,1.48-1.89,6.33-1.36,17.18.2,22.59-1.06.55-.13,8.2-4.33,9.48-4.89,26.83-11.72,53.45-28.08,76.97-45.08,11.83-8.55,29-19.42,39.78-28.97,2.16-1.92,3.89-3.79,2.74-6.71-2.52-6.37-5.94-7.74-11.48-10.41-.72-.35-.81-1.49-1.06-1.6ZM999.61,1307.48c-2.93-.71-5.07,1.56-7.54,1.95-10.52,1.64-14.83.89-24.25,5.97-2.23,1.21-5.25.82-6,4.83-1.36,7.28,10.59,5.63,15.03,4.16,3.06-1.01,11.28-6.01,14.56-7.84,3.93-2.19,9.8-3.11,8.2-9.07ZM941.61,1328.47c-.98-1.01-14.5,2.07-16.26,2.99-1.21.63-1.47,2.24-1.71,3.43,3.58,4.68,7.23-.3,7.66-.4,5.1-1.2,12.18,1.81,10.31-6.03Z"/>
      <path class="cls-1" d="M1382.58,426.49c.27.28-.48,3.03.99,4.52s7.01,1.76,8.03,4.45c-5.35.72-21.51.69-20-6.98,2.49,1.24,9.41-3.59,10.98-1.99Z"/>
      <path class="cls-1" d="M262.4,1199.75c.2.1,3.05,3.14,3.12,3.36,1.18,3.94-3.73,6.02-6.9,5.36-.07-3.16-.59-10.91,3.78-8.72Z"/>
      <path class="cls-1" d="M1455.61,495.48c2.11,7.03-12.81,7.86-8.34,2.94.86-.94,7.6-3.71,8.34-2.94Z"/>
      <path class="cls-1" d="M1425.61,489.47c-.56.56-3.44-.01-3.7-1.66l-5.29-5.33c2.25-.95,11.27,4.7,8.99,6.99Z"/>
      <path class="cls-1" d="M189.62,1115.48c.53,4.22-.84,5.52-5,5v-5.01s5,0,5,0Z"/>
      <path class="cls-1" d="M1400.6,501.49c-.84,2.77-8.75,2.73-7.99-1.01l7.99,1.01Z"/>
      <path class="cls-1" d="M426.61,1241.49c1.9,2.05-3.4,2.9-4.49,2.99-2.27.2-13.04.7-13.5-1.52-.86-4.07,16.85-2.7,17.99-1.47Z"/>
      <path class="cls-1" d="M267.37,1103.74c.56.27,4.3,4.41,3.24,5.73-4.12.15-11.01,1.05-12.02-4.48-.46-2.55,7.63-1.81,8.78-1.25Z"/>
      <path class="cls-1" d="M309.46,1148.63c4.24,2.6-1.69,11-5.41,4.85-1.97-3.26,2.13-6.86,5.41-4.85Z"/>
      <path class="cls-1" d="M281.14,1131.48c2.61-.52,6.31,3.42,3.47,6.5-5.14,5.59-6.8-5.84-3.47-6.5Z"/>
      <path class="cls-1" d="M324.62,1163.48c1.29,5.68-3.57,4.97-8.01,5v-5.01s8.01,0,8.01,0Z"/>
      <path class="cls-1" d="M459.58,1244.53c1.82,2.75-5.22,7.11-7.96,4.94-1.32-4.2,6.08-7.78,7.96-4.94Z"/>
      <path class="cls-1" d="M286.61,1147.48c-2.32,1.85-8.67-4.37-6.99-5.99,5.49-.51,7.82-.15,6.99,5.99Z"/>
      <path class="cls-1" d="M441.61,1241.5c2.78,3.26-5.79,4.57-6.99,2.97-1.94-2.56,5.28-4.97,6.99-2.97Z"/>
      <path class="cls-1" d="M469.61,1250.47c-.42.4-8.39,1.01-5.91-2.9,1.77-2.8,8.46.48,5.91,2.9Z"/>
      <path class="cls-1" d="M321.45,1154.63c.34.2,1.51,3.49,1.16,3.84-9.4.5-6.29-6.89-1.16-3.84Z"/>
      <path class="cls-1" d="M349.61,1180.47c-2.64-.02-7.1,1.02-6.99-2.99,2.64.02,7.1-1.02,6.99,2.99Z"/>
      <path class="cls-1" d="M1342.04,707.03c.97.88,2.54,3,3.24,3.24,2.22.77,7.96-.59,7.33,3.2-3.9.4-9.12-.85-12.76.67s-6.79,12.34-16.34,5.68c-2.01-7.82,6.42-8.07,10.39-10.31.99-.56,3.92-5.03,4.25-5.07,2.92-.29,2.5,1.31,3.89,2.59Z"/>
      <path class="cls-1" d="M1329.61,450.48c.86,5.91-7,6.69-11.18,9.1-3.44,1.98-7.47,5.01-10.9,7.18s-3.73-.64-2.74-3.64c.11-.33,4.36-4.38,5.04-4.9,2.67-2.04,17.68-9.74,19.78-7.74Z"/>
      <path class="cls-1" d="M1358.47,653.62c.6.38,1.58,5.3,1.12,5.83-.52.6-13.51,4.2-15.39,3.1-.37-2.73-3.09-3.23-2.6-5.51.05-.24,3.42-3.3,3.66-3.37,1.26-.41,12.58-.43,13.21-.03Z"/>
      <path class="cls-1" d="M1382.5,660.38c-.78.62-5.33-.28-7.18.13-.38.08-3.71,4.3-6.7,2.96-1.52-12.69,7.14-12.19,14.9-5.52-.77.53-.76,2.22-1.02,2.43Z"/>
      <path class="cls-1" d="M1358.47,734.62c3.6,5.92-5.88,6.69-10.11,5.6-1.93-.5-6.96-4.4-4.1-5.73,2.14-1,13.1-1.7,14.21.13Z"/>
      <path class="cls-1" d="M1349.61,793.49c-1.46,2.87-6.11,5.21-9.09,6.4-.94.38-6.25,2.38-6.59,2.44-2.52.42-3.04-4.69-2.16-5.71,1.78-2.06,14.65-3.74,17.83-3.13Z"/>
      <path class="cls-1" d="M1320.61,548.48c-.17-.11-1.18-3.82-1-3.99,5.09-.66,9.95,1.14,15,1v3c-2.21,0-13.43.39-14.01,0Z"/>
      <path class="cls-1" d="M1362.83,716.29c-2.07-3.62,3.38-3.35,6.28-2.81,3.76.7,3.02,5.46.93,5.95-.8.18-6.94-2.67-7.21-3.14Z"/>
      <path class="cls-1" d="M1326.61,779.47c-2.32-4.52,6.92-8.18,7.99-4.46,1.19,4.11-5.3,5.17-7.99,4.46Z"/>
      <path class="cls-1" d="M1343.62,782.48c1.7,5.66-4.84,4.74-9.01,3.99.12-5.96,4.47-3.71,9.01-3.99Z"/>
      <path class="cls-1" d="M1326.48,495.62c3.51,2.25-.5,8.66-5.84,4.81-1.33-2.1,3.3-6.44,5.84-4.81Z"/>
      <path class="cls-1" d="M1332.61,516.48c2.07,2.13-4.1,8.02-5.99,5.99-2.61-2.8,4.72-7.3,5.99-5.99Z"/>
      <path class="cls-1" d="M1337.61,504.48c2.15,2.27-2.98,7.08-4.99,4.99-2.55-2.66,3.58-6.48,4.99-4.99Z"/>
      <path class="cls-1" d="M1323.44,482.63c.22.13,1.21,2.79,1.12,3.25-3.03,3.78-5.7.61-4.94-3.4,1.16.14,2.93-.39,3.83.15Z"/>
      <path class="cls-1" d="M1323.6,531.48c-4.6-.95-2.76-4.15-2.98-7.99,4.29-.07,2.85,5.05,2.98,7.99Z"/>
      <path class="cls-1" d="M1329.61,564.48c.2.21-.11,2.18.01,2.99h-6c-1.36-2.9,5.62-3.37,5.99-2.99Z"/>
      <path class="cls-1" d="M897.23,729.88c.75.3,7.33,4.3,8.03,4.94,6.26,5.71,8.48,17.8,7.11,25.91-1.91,11.33-12.28,18.6-22.9,21.1-9.77,2.3-25.69,5.48-35.48,6.52-2.41.25-4.88.28-7.28.02l-8.99-45.5c-1.67-10.45,4.14-7.23,10.31-8.47,13.62-2.75,36.44-9.52,49.2-4.52Z"/>
      <path class="cls-1" d="M750.29,449.85c.91.94,5.85,9.17,6.11,10.33,2.45,10.85-1.33,20.81-8.43,28.72-.43.47-.19,1.84-.64,2.25-.26.24-5.66,3.12-6.25,3.31-11.64,3.8-26.38,3.35-38.75,6.25-3.43.8-7.12,5.03-11.29,1.83l-9.3-51.92c5.21-.46,9.85-2.9,14.62-3.88,8.85-1.83,18.77-2.21,27.7-3.3,2.29-.28,3.84-1.94,7.04-2.04,5.48-.17,15.44,4.57,19.19,8.47Z"/>
      <path class="cls-1" d="M549.22,486.89c3.28,2.98,2.7,3.61,4.39,6.88.3.57,1.56.47,1.93,1.46,1.14,3.05,1.22,10.34,1.11,13.8-.39,12-9.13,21.24-20.8,24.19-4.07,1.03-21.15,4.24-24.8,4.3-1.47.02-2.84.07-4.04-.94l-9.98-50.14c6.03-3.23,12.83-2.95,19.01-4.03,13.13-2.3,21.55-6.09,33.19,4.5Z"/>
      <path class="cls-1" d="M624.61,78.47c-.53.54-6.65-.67-7.86.13-.86.57-1.24,10.3-7.13,7.88-2.4-8.36,5.49-14.33,13.34-11.84,1.63.52,2.31,3.16,1.65,3.83Z"/>
      <path class="cls-1" d="M621.38,90.69c1.99,1.38,1.44,6.65-1.27,7.77-1.85-1.65-5.06-4.77-4.5-7.46.38-1.81,4.99-.85,5.77-.3Z"/>
      <path class="cls-1" d="M612.61,95.48c2.52,2.59-4.99,7.02-5.99,5.99-2.69-2.77,3.44-8.61,5.99-5.99Z"/>
      <path class="cls-1" d="M809.51,92.37c-.24.39-3.42,1.65-4.41.11-1.72-2.67,1.63-7.52,4.04-4.04.58.84.86,3.13.37,3.92Z"/>
      <path class="cls-1" d="M1368.45,980.68c2.7,1.65,2.14,6.85-1.45,7.55-1.9.37-12.06-1.85-14.38-3.27-.48-2.41,1.95-1.44,3.48-1.49,2.3-.08,6.01.51,7.89-.14,1.51-.52,1.5-4.46,4.46-2.65Z"/>
      <path class="cls-1" d="M1377.61,965.48c.72,3.98-6.54,3.76-6.99,1.48-.73-3.67,5.4-1.75,6.99-1.48Z"/>
      <path class="cls-1" d="M1400.61,896.48c2.23,7.21-7.69,8.07-4.23,2.97.22-.32,3.46-3.99,4.23-2.97Z"/>
      <path class="cls-1" d="M1184.33,962.78c1.49,2.37,4.17,3.09,6.15,5.35,2.3,2.63,6.12,11.65,6.23,14.88.03.88-2.35,9.29-2.79,10.25-.34.74-5.1,6.34-5.97,7.11-11.62,10.19-34.92,4.18-38.11-11.62-4.03-19.93,15.97-33.27,34.5-25.97Z"/>
      <path class="cls-1" d="M546.27,1076.84c.21.11,3.28,3.14,3.34,3.37,3.7,14.03-13.88,13.92-23.02,15.85-2.41-1.55-5.01-14.43-3.51-16.61,2.41-3.51,19.03-4.85,23.19-2.61Z"/>
      <path class="cls-1" d="M468.33,1133.22c-.14.34-5.02,4.34-5.8,4.67-2,.85-8.34,2.1-10.27,1.46-2.52-.84-1.48-5.69-1.87-8.15-.42-2.69-3.05-4.47-.32-6.75,7.71-6.43,22.51-1.55,18.26,8.76Z"/>
      <path class="cls-1" d="M459.39,1105.25c-1.73,1.69-11.45,4.45-13.63,3.09-.57-.36-3.24-12.57-3.04-13.22,1.67-5.52,17.91-5.83,18.69,3.11.13,1.46-1.15,6.18-2.02,7.03Z"/>
      <path class="cls-1" d="M1299.61,1103.48c.31,4.86-2.44,6.33-6.99,5.99-.15-6.11,1.15-6.67,6.99-5.99Z"/>
      <path class="cls-1" d="M494.61,129.48c.13.1.23,2.2,1,2.99-3.28-1.55-6.87,2-8.49,2.05-.58.02-.3-1.73-1.21-2.01-1.98-.61-5.55.89-5.3-3.03,2.26.45,13.2-.61,14,0Z"/>
      <path class="cls-1" d="M522.61,119.47c-.43.58-6.11,1.26-7.43,1.03-3.6-5.66,10.06-4.52,7.43-1.03Z"/>
      <rect class="cls-1" x="465.61" y="140.48" width="6.01" height="2.99"/>
      <path class="cls-1" d="M328.47,240.32c-1.03,1.63-7.06,1.33-8.37-.84-3.74-6.25,5.04-12.4,8.07-8.07.66.93.8,8.11.29,8.91Z"/>
      <path class="cls-1" d="M447.47,125.34c-.39.62-5.47,1.52-5.86,1.13-1.42-9.92,9.59-7.12,5.86-1.13Z"/>
    </g>
  </g>
</svg>