<?xml version="1.0" encoding="UTF-8"?>
<svg id="Layer_2" data-name="Layer 2" xmlns="http://www.w3.org/2000/svg" viewBox="0 0 1660.23 296.32">
  <defs>
    <style>
      .cls-1 {
        fill: #eb3539;
      }

      .cls-2 {
        fill: #4b3e3e;
      }

      .cls-3 {
        fill: #b53235;
      }

      .cls-4 {
        fill: #dfdfde;
      }
    </style>
  </defs>
  <g id="Layer_1-2" data-name="Layer 1">
    <g>
      <path class="cls-2" d="M0,.14C3.76-.22,8.12.23,12,.14s8.01.04,12,0,8.01.03,12,0,8.01.02,12,0,8.01.02,12,0,8.01.01,12,0,8.01,0,12,0,8.01,0,12,0,8.01,0,12,0,8.01,0,12,0,8.01,0,12,0,8.01,0,12,0,8.01,0,12,0,8.01,0,12,0,8.01,0,12,0,8.01,0,12,0,8.01,0,12,0,8.01,0,12,0,8.01,0,12,0,8.01,0,12,0,8.01,0,12,0,8.01,0,12,0,8.01,0,12,0,8.01,0,12,0,8.01,0,12,0,8.01,0,12,0,8.01,0,12,0,8.01,0,12,0,8.01,0,12,0,8.01,0,12,0,8.01,0,12,0,8.01,0,12,0,8.01,0,12,0,8.01,0,12,0,8.01,0,12,0,8.01,0,12,0,8.01,0,12,0,8.01,0,12,0,8.01,0,12,0,8.01,0,12,0,8.01,0,12,0,8.01,0,12,0,8.01,0,12,0,8.01,0,12,0,8.01,0,12,0,8.01,0,12,0,8.01,0,12,0,8.01,0,12,0,8.01,0,12,0,8.01,0,12,0,8.01,0,12,0,8.01,0,12,0,8.01,0,12,0,8.01,0,12,0h12c3.99,0,8.01,0,12,0h12c3.99,0,8.01,0,12,0s8.01,0,12,0h12c3.99,0,8.01,0,12,0h12c3.99,0,8.01,0,12,0h12c3.99,0,8.01,0,12,0h12c3.99,0,8.01,0,12,0h12c3.99,0,8.01,0,12,0h12c3.99,0,8.01,0,12,0h12c3.99,0,8.01,0,12,0h12c3.99,0,8.01,0,12,0h12c3.99,0,8.01,0,12,0h12c3.99,0,8.01,0,12,0h12c3.99,0,8.01,0,12,0h12c3.99,0,8.01,0,12,0h12c3.99,0,8.01,0,12,0s8.01,0,12,0,8.01,0,12,0,8.01,0,12,0,8.01,0,12,0,8.01,0,12,0,8.01,0,12,0,8.01,0,12,0,8.01,0,12,0,8.01,0,12,0,8.01,0,12,0,8.01,0,12,0,8.01,0,12,0,8.01,0,12,0,8.01,0,12,0,8.01,0,12,0,8.01,0,12,0,8.01,0,12,0,8.01,0,12,0,8.01,0,12,0,8.01,0,12,0,8.01,0,12,0,8.01,0,12,0,8.01,0,12,0,8.01,0,12,0,8.01,0,12,0,8.01,0,12,0,8.01,0,12,0,8.01,0,12,0,8.01,0,12,0,8.01,0,12,0,8.01,0,12,0,8.01,0,12,0,8.01,0,12,0,8.01,0,12,0,8.01,0,12,0,8.01,0,12,0,8.01,0,12,0,8.01,0,12,0,8.01,0,12,0,8.01,0,12,0,8.01,0,12,0,8.01,0,12,0,8.01,0,12,0,8.01,0,12,0,8.01,0,12,0,8.01,0,12,0,8.01-.01,12,0,8.01-.02,12,0,8.01-.02,12,0,8.01-.03,12,0,8.01-.05,12,0,8.01-.09,12,0,8.23-.36,12,0c.98.09,2.01-.06,3,0l1,1c0,1,.01,2,0,3-.04,4.11-.03,7.9,0,12s-.02,8.01,0,12,0,8.05,0,12-.01,8.01,0,12,0,8.04,0,12,0,8.01,0,12,0,8.03,0,12,0,8.01,0,12,0,8.04,0,12,0,8.01,0,12,0,8.04,0,12,0,8.01,0,12,0,8.05,0,12,0,8.01,0,12,0,8.04,0,12,0,8.01,0,12,0,8.05,0,12,.01,8.01,0,12,0,8.04,0,12,.01,8.01,0,12,.02,8.07,0,12,.03,8.01,0,12,.07,8.18,0,12c-.07,3.6.55,8.77,0,12-.15.87-1.42,2.41-1.11,3.88-.62.49-2.01.01-2.89.12-3.63.44-8.18-.1-12,0s-8.01-.05-12,0-8.01-.03-12,0-8.01-.02-12,0-8.01-.02-12,0-8.01-.01-12,0-8.01-.01-12,0-8.01,0-12,0-8.01,0-12,0-8.01,0-12,0-8.01,0-12,0-8.01,0-12,0-8.01,0-12,0-8.01,0-12,0-8.01,0-12,0-8.01,0-12,0-8.01,0-12,0-8.01,0-12,0-8.01,0-12,0-8.01,0-12,0-8.01,0-12,0-8.01,0-12,0-8.01,0-12,0-8.01,0-12,0-8.01,0-12,0-8.01,0-12,0-8.01,0-12,0-8.01,0-12,0-8.01,0-12,0-8.01,0-12,0-8.01,0-12,0-8.01,0-12,0-8.01,0-12,0-8.01,0-12,0-8.01,0-12,0-8.01,0-12,0-8.01,0-12,0-8.01,0-12,0-8.01,0-12,0-8.01,0-12,0-8.01,0-12,0-8.01,0-12,0-8.01,0-12,0-8.01,0-12,0-8.01,0-12,0-8.01,0-12,0-8.01,0-12,0-8.01,0-12,0-8.01,0-12,0-8.01,0-12,0-8.01,0-12,0-8.01,0-12,0-8.01,0-12,0-8.01,0-12,0-8.01,0-12,0-8.01,0-12,0-8.01,0-12,0-8.01,0-12,0-8.01,0-12,0-8.01,0-12,0h-12c-3.99,0-8.01,0-12,0h-12c-3.99,0-8.01,0-12,0h-12c-3.99,0-8.01,0-12,0h-12c-3.99,0-8.01,0-12,0h-12c-3.99,0-8.01,0-12,0h-12c-3.99,0-8.01,0-12,0s-8.01,0-12,0h-12c-3.99,0-8.01,0-12,0h-12c-3.99,0-8.01,0-12,0h-12c-3.99,0-8.01,0-12,0h-12c-3.99,0-8.01,0-12,0h-12c-3.99,0-8.01,0-12,0h-12c-3.99,0-8.01,0-12,0s-8.01,0-12,0-8.01,0-12,0-8.01,0-12,0-8.01,0-12,0-8.01,0-12,0-8.01,0-12,0-8.01,0-12,0-8.01,0-12,0-8.01,0-12,0-8.01,0-12,0-8.01,0-12,0-8.01,0-12,0-8.01,0-12,0-8.01,0-12,0-8.01,0-12,0-8.01,0-12,0-8.01,0-12,0-8.01,0-12,0-8.01,0-12,0-8.01,0-12,0-8.01,0-12,0-8.01,0-12,0-8.01,0-12,0-8.01,0-12,0-8.01,0-12,0-8.01,0-12,0-8.01,0-12,0-8.01,0-12,0-8.01,0-12,0-8.01,0-12,0-8.01,0-12,0-8.01,0-12,0-8.01,0-12,0-8.01,0-12,0-8.01,0-12,0-8.01,0-12,0-8.01,0-12,0-8.01,0-12,0-8.01,0-12,0-8.01,0-12,0-8.01,0-12,0-8.01,0-12,0-8.01,0-12,0-8.01,0-12,0-8.01,0-12,0-8.01,0-12,0-8.01.01-12,0-8.01.02-12,0-8.01.02-12,0-8.01.03-12,0-8.01.04-12,0-8.01.09-12,0-8.24.36-12,0M1645,12.14H11v272h1634V12.14Z"/>
      <path class="cls-4" d="M1660,1.14l-1-1,1,1Z"/>
      <path class="cls-4" d="M241,44.14v198h160V44.14c5.05,1.06-1.56,11.64,9,9-3,62.13,2.24,126.63,0,189h161c-1.81-62.59,2.42-126.57,0-189,4.89-1.16,6.48,3.1,10,0-3.18,62.02,2.38,126.71,0,189h159.5c1.45-.84,1.31-2.06,1.55-3.45,3.9-22.25-1.01-65.62-1.15-90.05-.18-31.65,1.75-63.95,1.1-95.5h9c-2.42,62.43,1.81,126.41,0,189h160V44.14h2s.01,35,.01,35c6.76-6.66.98-22.66,2.98-31.52.44-1.93,1.05-2.43,3.01-2.48l-1,197h160V45.14c3.86-1.47.6,8,3.5,8h14.5v196.5l-1.5,1.5h-158c-1.7,0-2.03-6.7-3.1-7.07-7.48-2.61-3.26,7.58-8.85,7.12-18.25-3.14-150.39,4.33-156.06-1.04-2.13-2.02.92-5.58-5.95-6.06s-3.73.57-4.98,6.12l-159.57.94c2.88-9.46-11.48-10.18-10.44-.96l-160.11.02c1.43-9.7-10.96-8.57-10.01.95-53.35-.81-107.18,1.53-160.26-1.19,1.13-8.52-11.48-8.83-9.6.23H88.43c1.37-11.6-15.03-2.06-17.43-8.07h161.01c-1.82-62.58,2.42-126.57,0-189h7.01c1.02-.99-2.06-10.44,1.99-9Z"/>
      <path class="cls-2" d="M1333,132.14c5.58-.15,35.38-.84,38,1l1,1c.21.24,1.74,5.25,2,6,5.47,15.41,9.37,31.61,15.01,46.99,4.55-5.71,6.47-16.38,8.99-23.99,3.4-10.27,6.56-20.66,10.14-30.87,22.6-.29,45.26-.08,67.86-.13,9.97-.02,20.03.23,30,0v8c0,33.32,0,66.69,0,100.01h-48.01c-.08-.3.04-.67,0-1.01-3.84-30.87,2.64-69.62,0-101.51-.13-1.57.99-3.92-1.49-3.5l-43.49,105.53-48.02.48c-3.36-2.53-5.81-9.12-7.89-13.82-7.91-17.82-14.8-37.89-22.11-56.18-4.99-12.49-10.88-24.63-15.01-37.49.22-.97,11.09-.46,13.01-.51ZM1366.5,137.14h-37.5c9.16,28.02,21.44,55.27,33.16,82.38,1.94,4.49,2.67,14.94,8.23,15.69,11.73,1.59,27.34-1.25,39.5-.19l39.11-97.89h-36l-23.49,66.01-23.01-66.01ZM1500,137.14h-36v98h36v-98Z"/>
      <path class="cls-2" d="M410,53.14c.13-2.61-.31-5.26.15-7.85l6.3-1.2,154.55.04c.08,2.99-.12,6.02,0,9.01,2.42,62.43-1.81,126.41,0,189h-161c2.24-62.37-3-126.87,0-189ZM566,169.14c.34-30.09,4.37-87.49.01-114.51-.26-1.62-.38-3.19-1.49-4.51-49.01-1.51-99.29-1.86-148.38.18-.05,36.92-.45,73.92-.15,110.85.21,25.7-.52,51.47,2,77h147c-.2-23.03.74-46.02,1-69Z"/>
      <path class="cls-2" d="M71,242.14l-1.01-198.01h162.01c.08,2.99-.12,6.02,0,9.01,2.42,62.43-1.82,126.42,0,189.01H71ZM76,164.14c.08,24.63-.88,49.43,1,74h149c-1.02-13.29.93-26.81,1-40,.28-49.89-2.29-100.06-1-150H77.5c-1.45.84-1.31,2.06-1.55,3.45-4.46,25.49-.04,83.52.05,112.55Z"/>
      <path class="cls-2" d="M911,44.14v198h-160c1.81-62.59-2.42-126.57,0-189,.12-2.99-.09-6.02,0-9.01h160.01ZM757,173.14c.06,16.34-2.56,47.19-.05,61.55.24,1.39.1,2.61,1.55,3.45h146c1.45-.84,1.31-2.06,1.55-3.45,2.71-15.48-.11-48.94-.05-66.55.13-38.83-.16-77.69.08-116.52.37-1.26-1.98-2.48-2.58-2.48h-145l-1.55,3.45c.21,40.18-.1,80.38.05,120.55Z"/>
      <path class="cls-2" d="M584,45.14h154c.35.22,2.02-.44,2.78.16.58,2.58,1.17,5.17,1.22,7.84.65,31.55-1.27,63.86-1.1,95.5.14,24.43,5.05,67.8,1.15,90.05-.24,1.39-.1,2.61-1.55,3.45h-159.5c2.38-62.29-3.18-126.98,0-189,.13-2.47-.09-4.98-.07-7.46.42-1.22,2.64-.26,3.07-.54ZM586,168.14c.29,23.29,1.78,46.66,1,70h149c.05-14.98-.07-30.02,0-45,.22-47.65-.17-95.35,0-143h-149c-1.46,39.23-1.5,78.73-1,118Z"/>
      <path class="cls-2" d="M1078,45.14v197h-160l1-197h159ZM925,50.14c-.3.3-1.73-.85-2.09,1.43-1.9,12.15.17,35.05.09,48.57-.27,46.02.89,92,1,138h148c1.06-13.38-.05-27.07-.07-40.5,0-2.27,2.22-3.9,2.19-6.03s-2.12-1.34-2.12-1.47c-.14-46.65.1-93.35,0-140l-.61-2.02-144.96-.07c-1.97-.22-1.27,1.93-1.43,2.09Z"/>
      <path class="cls-4" d="M1524,87.14v152l-2.57,9.02c-2.04.93-42.76.82-44.86.03-.51-.19-.74-5.41-3.33-5.98-5.12-1.13-14.1,2.24-15.23-2.07h48.01c-.01-33.31,0-66.68,0-100,2.39-.42,15.44.57,16.01,0,.3-.3.18-8.04.01-8.42-.95-2.17-13.82.36-16.02.42-9.97.23-20.03-.02-30,0,1.1-4.56-1.55-6.32-3-10,10.98.2,22.02-.15,33.01,0-.27-8.97.34-18.04,0-27.01,2.39-.42,15.44.57,16.01,0,1.28-1.3-2.54-5.91,1.99-8.01Z"/>
      <path class="cls-2" d="M401,44.14v198h-160V44.14h160ZM247,50.14c-.16.16-2.31-.54-2.09,1.43l2.09,52.57c0,1.67,0,3.33,0,5-3.13-.56-2.97,2.61,0,2,0,.67,0,1.33,0,2-3.23-.92-2.97,5.09,0,4-.02,4.65-.02,9.35,0,14-3.3-1.08-2.96,7.43,0,6,.03,4.32-.05,8.68,0,13-3.13-.56-2.97,2.61,0,2,0,.67,0,1.33,0,2-3.35-1.19-3,11.74,0,10,.06,2.99-.09,6.01,0,9-3.27-1-2.94,6.28,0,5,.04.66-.05,1.34,0,2v58h148c2.41-62.4,1.98-124.91,2.02-187.38.13-1.18-1.34-.44-2.02-.62-.31-.08-.68.06-1,0l-145.57-2.09c-1.97-.22-1.27,1.93-1.43,2.09Z"/>
      <path class="cls-4" d="M1317,95.14h16.01s0,37,0,37c-1.92.05-12.79-.45-13.01.51,4.14,12.86,10.03,25,15.01,37.49l-1.99,78.01c-5.86-1.32-46.33,1.72-48.01,0-.28-.29.19-6.5-1-8,10.42.04,22.25-2.1,33-1v-104.5c0-.83-2.46-2.19-3.53-2.47-2.18-.56-23.84-1.12-27.47-1.03l-1-8c4.14.24,30.81.56,31.85-1.15.03-8.9.5-17.95.15-26.85Z"/>
      <path class="cls-4" d="M1572,95.14c1.64.59,16-.8,16,0v153h-45.5c-3.65,0-2.4-5.52-2.5-8,4.41.18,31.15.9,32.04-1.68-1.45-47.66,1.81-95.7-.04-143.32Z"/>
      <path class="cls-2" d="M1255,141.14c.81,8.66-1.63,20.66-4,29-.81-.17-2.04.04-3,0,.1-2.08-8.92-5.29-9.98-5.52-3.44-.76-9.04-1.59-12.52-1.54-29.65.43-33.63,40.26-4.5,45.07,16.29,2.69,17.63-2.36,31-6,1.02-.28,1.89-.99,2-1,.31-.04.69-.03,1,0l.13,35.58c-13.63,5.15-27.77,5.48-42.13,5.42-5.87-.03-10.21-.3-16-1-.96-1.53-2.42-1.67-4-2-41.13-8.49-55-66.73-23.7-93.33,22.74-19.33,57.8-19.76,84.73-10.2,1.58,1.62.79,3.66.97,5.53ZM1198,173.14c.22-.51,6.27-7.56,7.29-8.34,13.66-10.43,27.96-6.7,42.71-1.67l.86-23.85c-30.57-10.37-74.41-6.23-86.86,27.86-14.94,40.92,15.24,71.08,57.47,71.04,4,0,31.53-3.36,31.53-6.04v-23c-8.75,1.74-15.03,5.38-24.54,5.05-22.33-.77-37.92-19.23-28.46-41.05Z"/>
      <path class="cls-4" d="M1365,240.14l48.02-.48,43.49-105.53c2.47-.43,1.36,1.93,1.49,3.5,2.64,31.89-3.84,70.64,0,101.51l-2.5-54.01-24.61,62.9c-13.93-1.71-35.41,2.68-48.41.12-3.26-.64-4.69-5.96-5.07-6.07-2.76-.78-8.55.78-11.73.07-1.07-.24-.58-1.95-.67-2.01Z"/>
      <path class="cls-2" d="M1524,87.14c8.81-4.07,37.09.99,48.01-1.01.08,2.99-.12,6.02,0,9.01,1.85,47.62-1.41,95.66.04,143.32-.89,2.59-27.63,1.86-32.04,1.68-4.92-.2-10.66-1.89-16-1V87.14ZM1566,92.14c-.15-.71.54-2.14-.61-2.02l-37.24,1.17c-.18,25.26-.28,50.58-.15,75.85,0,.67,0,1.33,0,2,.09,16.6-2.62,47.98-.06,62.53.22,1.24,3.34,4.24,4.54,4.48,3.33.64,32.51.26,33.37-1.16.34-20.59.07-41.25.15-61.85.08-19.02,3.32-65.27,0-81Z"/>
      <path class="cls-4" d="M1267,142.14c.02.2,1.93-.62,2.03.6,2.63,31.12-2.74,65.22.02,96.35,2.59-.82,5.29.86,6.95,1.06-6.04,8.38-22.52,10.47-32.46,11.04-4.23.24-29.62-.97-31.54-3.04-.49-.53,1.16-4.69,1.01-5.99,14.35.07,28.5-.27,42.13-5.42l-.13-35.58c.65.06,1.34-.1,2,0l.47,13.04c.25.41,9.53-.55,9.53-1.03v-36c-5.43-.72-10.16-3.27-15.24-5.06-1.13-.4-.66-1.92-.76-1.94,2.37-8.34,4.81-20.34,4-29l12,1Z"/>
      <path class="cls-2" d="M1286,131.14c3.62-.09,25.28.48,27.47,1.03,1.08.28,3.53,1.63,3.53,2.47v104.5c-10.75-1.1-22.58,1.04-33,1-2.54,0-5.59.28-8,0-1.67-.2-4.36-1.88-6.95-1.06-2.76-31.13,2.61-65.23-.02-96.35-.1-1.22-2.01-.4-2.03-.6-.31-2.54.22-5.41,0-8,2.18.49,1.86-1.96,2-2,1.23-.34,14.4-.94,17-1ZM1311,137.14h-36.5l-1.5,1.5v94c0,.35,1.29,1.54,1,2.5h37v-98Z"/>
      <path class="cls-2" d="M1285,123.14c-5.88-.34-12.16-1.14-18-2v-34c.96.29,2.15-1,2.5-1h47.5c.08,2.98-.12,6.02,0,9,.35,8.9-.12,17.95-.15,26.85-1.04,1.71-27.71,1.39-31.85,1.15ZM1311,92.14h-38v24.5l1.5,1.5h36.5v-26Z"/>
      <path class="cls-2" d="M1473,122.14c-4.98-.09-10.02.06-15,0v-36h48.01c.08,2.98-.12,6.01,0,9,.35,8.96-.26,18.04,0,27.01-10.98-.16-22.03.19-33.01,0ZM1500,92.14h-36v26h36v-26Z"/>
      <path class="cls-4" d="M1374,140.14c21.6-4.74,12.84,13.59,24,23-2.52,7.61-4.43,18.29-8.99,23.99-5.64-15.38-9.55-31.58-15.01-46.99Z"/>
      <path class="cls-4" d="M584,45.14c.11-.07-.45-2.31,1.43-2.09h151.15c1.87-.22,1.32,2.03,1.43,2.09h-154Z"/>
      <path class="cls-4" d="M1197,241.14c-.39-.05-3.62,3.08-4-2,1.58.33,3.04.47,4,2Z"/>
      <path class="cls-4" d="M1269,132.14c-.14.04.18,2.49-2,2-.47-2.29.36-4.64,2-2Z"/>
      <path class="cls-4" d="M1372,134.14l-1-1c.48.19.68.65,1,1Z"/>
      <path class="cls-3" d="M1366.5,137.14l23.01,66.01,23.49-66.01h36l-39.11,97.89c-12.16-1.06-27.77,1.79-39.5.19-5.56-.76-6.29-11.21-8.23-15.69-11.72-27.12-24-54.37-33.16-82.38h37.5Z"/>
      <rect class="cls-3" x="1464" y="137.14" width="36" height="98"/>
      <path class="cls-1" d="M566,169.14l-45-1c-6.74-24.84-43.26-22.98-45.09-35.53-.31-2.11,1.95-5.41,3.25-6.79,9.7-10.31,31.41,2.39,34.72.2,6.91-18.35,4.91-21.13-14.41-22.86-24.26-2.17-54.78,7.91-48.04,38.04,4.82,21.58,41.62,20.02,44.93,34.14,4.34,18.53-32.77,13.93-41.73,6.87-2.26.36-4.11,7.87-4.63,9.92l-32.01-1.99c-.2-8.49.29-17.06,0-25.56-.06-1.92,1.02-4.01-2-3.45-.3-36.92.1-73.92.15-110.85,49.08-2.04,99.37-1.69,148.38-.18,1.11,1.33,1.22,2.89,1.49,4.51,4.35,27.03.33,84.42-.01,114.51Z"/>
      <path class="cls-3" d="M416,161.14c3.02-.56,1.94,1.53,2,3.45.28,8.5-.21,17.06,0,25.56l32.01,1.99c-.56,2.2-2.56,6.13-1.55,7.99,25.51,15.23,83.32,7.7,72.55-31.99l45,1c-.26,22.98-1.2,45.97-1,69h-147c-2.52-25.53-1.79-51.3-2-77Z"/>
      <path class="cls-1" d="M76,164.14c-.09-29.03-4.52-87.06-.05-112.55.24-1.39.1-2.61,1.55-3.45h148.5c-1.29,49.94,1.28,100.11,1,150-14.26,2.22-28.73,2.71-43,5-3.25-5.59-1.7-11.81-1.99-18.01-.61-.61-14.27.59-17.34-.19-2.12-.54-6.66-10.32-6.66-11.3v-48.5h26v-20c-.96.29-2.15-1-2.5-1h-23.5v-24c-3.32-.46-27,5.61-27,7v17c0,.79-15-1.74-15,2.5v17.5c0,1.62,14.48.46,15.01.99,1.66,1.67-.59,40.25,0,47.01-11.3-.14-23.27.09-34.39-2.11-7.09-1.41-13.42-5.73-20.61-5.89Z"/>
      <path class="cls-3" d="M131,172.14c.03.32,1.65.33,2,3v1c2.76,19.02,5.08,29.24,27.47,31.03,12.38.99,14.74-2.62,23.53-4.03,14.27-2.29,28.74-2.78,43-5-.07,13.19-2.02,26.71-1,40H77c-1.88-24.57-.92-49.37-1-74,7.19.15,13.53,4.48,20.61,5.89,11.12,2.21,23.08,1.97,34.39,2.11Z"/>
      <path class="cls-1" d="M757,173.14c-.16-40.17.16-80.37-.05-120.55l1.55-3.45h145c.6,0,2.95,1.22,2.58,2.48-.24,38.84.05,77.7-.08,116.52h-40c-.14-15.78,2.48-36.32-6.81-49.72-14.84-21.41-54.14-17.57-74.77-7.31-.89,1.31,4.17,16.38,6.23,16.98,10.9-6.02,41.58-11.59,46.57,3.34.63,1.9,1.75,8.72-.71,8.72h-18c-1.95,0-18.26,5.5-21.16,6.84-12.37,5.68-20.23,15.09-20.34,29.16l-20-3Z"/>
      <path class="cls-3" d="M906,168.14c-.06,17.62,2.76,51.07.05,66.55-.24,1.39-.1,2.61-1.55,3.45h-146c-1.45-.84-1.31-2.06-1.55-3.45-2.51-14.36.11-45.21.05-61.55l20,3c-.26,33.48,42.76,40.5,62.51,18.99,2.52,0,2.37,10.01,4.99,10.01h21l1.54-2.53c-1.83-11.4-.94-23-1.04-34.47h40Z"/>
      <path class="cls-1" d="M586,168.14c-.5-39.27-.46-78.77,1-118h149c-.17,47.65.22,95.35,0,143l-11,4c.94-20.46,3.38-67.67-7.43-83.56-12.15-17.88-39.7-11.05-50.06,5.62-1.61-.23-6.79-9.89-10.36-11.98-9.53-5.57-22.38-5.68-31.77.31-4.58,2.92-6.77,9.27-11.38,11.61-.68-4.74,1.61-11.22-1.51-14.99h-17.5c0,21.93-.18,44.03,0,66l-9-2Z"/>
      <path class="cls-3" d="M595,170.14c.09,11.32-1.3,24.47,1.5,35h19c2.54-2.27,1.36-6.04,1.5-9l32-2c.14,2.81-.91,8.08,1,10,2.45,2.46,16.93.24,21.01,1.01.1-1.99-.14-4.02,0-6.01l32,1c.18,1.3.22,4.55,1.68,5.04l20.32-.03c.09-2.65-.13-5.35,0-8.01l11-4c-.07,14.98.05,30.02,0,45h-149c.78-23.34-.71-46.71-1-70l9,2Z"/>
      <path class="cls-1" d="M925,50.14h147c.1,46.65-.14,93.35,0,140,.56,3.02-1.53,1.93-3.45,2-9.27.32-18.3-1.44-27.55-1,.6-14.08.33-54.17-3.3-66.2-8.72-28.94-46.66-32.04-63.21-8.8-3.77,1.08,1.2-10.63-3.72-13.27-2.66-1.43-19.7-1.53-21.27,1.27-.72,26.92-.75,54.12.5,81-3.18.72-25.35-3.13-25.73-4.46l-1.27-80.54c.08-13.52-1.99-36.41-.09-48.57.36-2.28,1.79-1.13,2.09-1.43Z"/>
      <path class="cls-3" d="M923,100.14l1.27,80.54c.38,1.32,22.55,5.18,25.73,4.46.26,5.59,1.88,12.03,1,18h23.5c2.57-2.33,1.36-6.69,1.5-10,13.1,2.61,26.49-2.23,39,3,.13,2.32-.1,4.69,0,7.01,4.16-.82,23.57,1.77,24.86-1.65.78-2.06-.2-5.93.14-8.36.01-.07.96-.47,1-1,.02-.33-.01-.67,0-1,9.25-.44,18.28,1.32,27.55,1,1.92-.07,4.01,1.02,3.45-2,0,.13,2.09-.7,2.12,1.47s-2.19,3.76-2.19,6.03c.03,13.43,1.13,27.12.07,40.5h-148c-.11-46-1.27-91.98-1-138Z"/>
      <path class="cls-3" d="M925,50.14c.16-.16-.54-2.31,1.43-2.09l144.96.07.61,2.02h-147Z"/>
      <path class="cls-1" d="M394,50.14c.32.06.69-.08,1,0v120.01s-36-3.01-36-3.01c-.48-19.68,4.17-44.34-14.71-56.79s-46.23-7.65-66.2-.13l5.04,17.78c15.04-6.45,49.68-14.21,48.87,11.14-17.13,1.18-36.71,1.7-50.6,13.41-11.47,9.67-14.48,28.55-6.41,41.59-5.25-.4-25.99-1.59-27.82-6.68-.7-1.96,0-5.09-.18-7.32-.05-.66.04-1.34,0-2-.09-1.66.05-3.34,0-5-.09-2.99.06-6.01,0-9-.06-3.32.04-6.68,0-10,0-.67,0-1.33,0-2s0-1.33,0-2c-.05-4.32.03-8.68,0-13-.01-2,.01-4,0-6-.02-4.65-.02-9.35,0-14,0-1.33,0-2.67,0-4,0-.67,0-1.33,0-2s0-1.33,0-2c0-1.67,0-3.33,0-5,.07-17.98-.05-36.02,0-54h147Z"/>
      <path class="cls-3" d="M395,50.14c.68.18,2.15-.57,2.02.62-.04,62.47.39,124.98-2.02,187.38h-148v-58c.18,2.23-.52,5.36.18,7.32,1.83,5.09,22.56,6.28,27.82,6.68.63,1.01,8.5,8.12,9.71,8.75,17.25,9.04,36.09,4.04,50.28-7.75,0,.94,1.5,10,2.01,10h21.5c5.55,0,.61-17.01.52-19.52-.23-6.15.13-12.34-.02-18.48l36.01,3.01V50.14Z"/>
      <path class="cls-3" d="M247,50.14c.16-.16-.54-2.31,1.43-2.09l145.57,2.09h-147c-.05,17.98.07,36.02,0,54l-2.09-52.57c-.22-1.97,1.93-1.27,2.09-1.43Z"/>
      <path class="cls-3" d="M247,154.14c.04,3.32-.06,6.68,0,10-3,1.74-3.35-11.19,0-10Z"/>
      <path class="cls-3" d="M247,131.14c.01,2-.01,4,0,6-2.96,1.43-3.3-7.08,0-6Z"/>
      <path class="cls-3" d="M247,173.14c.05,1.66-.09,3.34,0,5-2.94,1.28-3.27-6,0-5Z"/>
      <path class="cls-3" d="M247,113.14c0,1.33,0,2.67,0,4-2.97,1.09-3.23-4.92,0-4Z"/>
      <path class="cls-3" d="M247,150.14c0,.67,0,1.33,0,2-2.97.61-3.13-2.56,0-2Z"/>
      <path class="cls-3" d="M247,109.14c0,.67,0,1.33,0,2-2.97.61-3.13-2.56,0-2Z"/>
      <path class="cls-3" d="M1162,167.14c9.99,5.96,24.67,2.28,36,6-9.46,21.82,6.13,40.27,28.46,41.05,9.51.33,15.79-3.31,24.54-5.05v23c0,2.68-27.53,6.03-31.53,6.04-42.22.05-72.41-30.11-57.47-71.04Z"/>
      <path class="cls-1" d="M1162,167.14c12.44-34.09,56.29-38.23,86.86-27.86l-.86,23.85c-14.74-5.04-29.05-8.76-42.71,1.67-1.01.77-7.07,7.83-7.29,8.34-11.33-3.72-26.01-.04-36-6Z"/>
      <path class="cls-4" d="M1221,208.14c-29.13-4.81-25.15-44.64,4.5-45.07,3.48-.05,9.08.79,12.52,1.54,1.05.23,10.07,3.45,9.98,5.52-23.34-1.06-36.16,16.42-27,38Z"/>
      <path class="cls-4" d="M1254,201.14c-.11.01-.98.72-2,1-.37-2.26.44-2.84,2-1Z"/>
      <path class="cls-1" d="M1566,92.14c3.32,15.73.08,61.98,0,81-12.74,2.71-25.49-1.89-38-4,0-.67,0-1.33,0-2l1.99-75.01h36.01Z"/>
      <path class="cls-3" d="M1566,173.14c-.08,20.6.19,41.25-.15,61.85-.87,1.43-30.04,1.8-33.37,1.16-1.2-.23-4.32-3.23-4.54-4.48-2.56-14.56.15-45.93.06-62.53,12.51,2.11,25.26,6.71,38,4Z"/>
      <path class="cls-3" d="M1528,167.14c-.13-25.26-.03-50.59.15-75.85l37.24-1.17c1.15-.12.46,1.32.61,2.02h-36.01s-1.99,75-1.99,75Z"/>
      <path class="cls-3" d="M1311,137.14v98h-37c.29-.96-1-2.15-1-2.5v-94l1.5-1.5h36.5Z"/>
      <polygon class="cls-1" points="1311 92.14 1311 118.14 1274.5 118.14 1273 116.64 1273 92.14 1311 92.14"/>
      <rect class="cls-1" x="1464" y="92.14" width="36" height="26"/>
      <path class="cls-1" d="M133,176.14v-1c.04.33-.05.67,0,1Z"/>
      <path class="cls-1" d="M671,199.14c1.19-17.72-3.29-48.89,2.27-64.23,3.74-10.32,18.06-15.8,25.33-6.41,9.19,11.86,2.03,54.81,4.4,71.64l-32-1Z"/>
      <path class="cls-1" d="M617,196.14c.73-15.01-3.75-58.25,6.36-67.64,13.48-12.52,24.38-.26,25.64,14.64,1.38,16.26-.81,34.44,0,51l-32,2Z"/>
      <path class="cls-4" d="M650,204.14c-1.91-1.92-.86-7.19-1-10-.81-16.56,1.38-34.74,0-51l1,61Z"/>
      <path class="cls-1" d="M976,193.14c.65-15.31-2.57-42.46.68-55.82,3.25-13.36,19.95-20.23,31.19-11.49,11.62,9.03,6.28,54.72,7.13,70.32-12.51-5.23-25.9-.39-39-3Z"/>
      <path class="cls-1" d="M1040,193.14l1-1c-.04.53-.99.93-1,1Z"/>
      <path class="cls-1" d="M806.31,165.44c4.23-5.76,31.56-14.03,33.65-5.76,4.33,17.12-10.56,34.17-28.21,28.2-9-3.05-10.59-15.44-5.44-22.44Z"/>
      <path class="cls-1" d="M326.44,183.58c-16.34,14.28-38.94-.73-27.5-17.73,4.28-6.35,32.91-14.53,35.02-6.17,1.98,7.85-1.57,18.69-7.52,23.9Z"/>
    </g>
  </g>
</svg>