<?xml version="1.0" encoding="UTF-8"?>
<svg id="Layer_2" data-name="Layer 2" xmlns="http://www.w3.org/2000/svg" viewBox="0 0 2214.7 646.91">
  <defs>
    <style>
      .cls-1 {
        fill: #fff;
      }

      .cls-2 {
        fill: #bb8248;
      }

      .cls-3 {
        fill: #aaa9a9;
      }
    </style>
  </defs>
  <g id="Layer_1-2" data-name="Layer 1">
    <g>
      <path class="cls-2" d="M469.29,643.25c-.51,2.43-3.68,4.78-6.07,3.07-1.31-.94-1.9-7.12-1.97-9.03V8.21c.02-2.27.97-6.95,3.04-8.04,1.57-.82,5,1.44,5,2.08v641Z"/>
      <path class="cls-1" d="M205.29,160.75c-17.43,2.91-15.43-2.55-25.02-13.19-12.59-13.96-34.49-37.68-29.77-58.1,3.2-13.86,29.81-9.99,39.79-6.2,8.35,3.17,19.93,12.94,27.74,14.26,6.15,1.04,13.43-.27,19.75.25,9.58.79,19.69,3.24,29.51,3l-9.26,1.23c-34.42,6.74-34.71,37.06-52.74,58.76,1.66-.28,3.23-1.22,4.99-1-.64,3.04.95,14.11-.13,15.85-1.23,1.97-19.38,3.36-14.36-6.86.28-.56,7.49-5.57,9.5-7.99Z"/>
      <path class="cls-1" d="M267.29,265.75c.28-.9,5.91-7.39,2.49-7.99-3.01-.17-2.85,3.67-3.77,4.71-4.08,4.6-11.81,3.03-15.57-1.36-1.86-2.17-2.93-6.31-4.22-8.56-6.27-10.93-11.73-23.65-13.87-36.34-.54-3.2,1.23-13.14,2.85-15.81,3.59-5.9,42.67.4,52.74-5.02.58-.31,8.62-8.48,9.32-9.44,12.67-17.27,21.65-47.23,8.64-66.8-3.1-4.67-9.54-5.73-7.6-12.39,3.18-.78,1.79,2.53,3.27,3.74,8.62,7.03,10.53,8.51,14.8,19.49.27.69,1.62.66,1.87,1.51,6.43,22.1-11.38,48.95-26.28,64.5-2.66,14.19-1.41,32.77-9.65,45.05-.38.57-12.36,12.54-4.51,9.73.57-.2,2.54-5.15,7.5-3.03.04,4.68,1.1,8.76,1.05,13.55-.03,2.42-.62,9.66-1.08,11.75-.16.71-1.62.68-1.89,1.47-3.86,11.35-13.02,27.51-22.08,36.23-.11.11-1.08-.18-1.66.33l-4.35,4.16c-1.06-3.79,2.42-5.95,3.09-7.95,1.23-3.69,2.49-16.03,2.92-20.54.16-1.62-.08-3.35,0-5,1.32-.51.94-1.9,1-3,.02-.33-.04-.67,0-1,2.67.47,2.04-.63,2-3,.16-.09-.14-.74,0-1l1-2c.1-.31-.11-.72,0-1,2.84.32,1.72-.2,2-2,.05-.32-.07-.68,0-1l.99-1.49-.99-.51Z"/>
      <path class="cls-1" d="M171.28,355.75c.79.75.77,10.53,1.05,12.46,1.72,11.9,3.87,23.45,2.94,36.03-.68,9.22-5.18,21.04-5.97,32.03-.24,3.39.78,20.75,0,21.49-.62.58-4.81-1.3-3.99,1.47.97,3.31,9.76,12.87,13.05,14.96,7.12,4.54,35.69,12.01,38.46,16.57,4.14,6.82-11.11,10.09-15.26,10.75-27.87,4.48-39.72-3.15-64.87-7.66-3.37-.61-11.61.95-13.22-3.78-1.85-5.4-.78-20.97.92-26.55.24-.79,1.71-.78,1.88-1.49,1.05-4.5-.11-13.44,1.07-18.58,3.14-4.67,7.61-8.71,13.52-9.65,1.81-.29,14.75-.44,15.33.05.92.78.72,6.68,1.16,8.16.68,2.29,3.96,9.79,5.52,12.7.71,1.33-.32,2.57,2.42,2.02,1.24-4.64-1.44-8.68-1.92-12.57-3.07-25.16,0-57.48,4.88-81.97.41-2.04-.12-4.37.05-6.46.81.13,2.78-.2,2.99,0Z"/>
      <path class="cls-1" d="M139.76,85.28c3.39,3.93,1.53,4.93,2.58,8.75,1.94,7.07,3.32,16.46,6.05,23.92.63,1.72,4.29,6.32,4.85,9.35,1.63,8.87-2.58,13.71-10.05,17.84-16.61,9.18-36.08,9.63-53.58,2.79-6.62-2.59-13.94-5.71-14.36-13.73-.09-1.68.71-10.23,1.07-11.77.32-1.43,3.99-8.42,4.88-10.49,8.38-19.55,23.38-28.08,44.65-31.14,5.56-.8,10.32.32,13.92,4.48Z"/>
      <path class="cls-1" d="M1686.54,230.51c-1.26-1.08-2.62-15.62-3.48-18.54-2.8-1.55-5.52-3.89-8.6-4.89-6.2-1.99-38.56-2.37-44.36-.22-.57.21-6.49,5.1-6.73,5.69-5.44,13.61.11,21.98,13.68,24.93,21.84,4.76,55.99.95,60.99,30.01,1.85,10.77-4.1,25.39-14.09,30.44-12.35,6.24-45.61,4.89-58.87.52-3.54-1.17-6.92-4.75-10.47-5.97-5.03-7.31-12.96-32.82,3.18-29.73,6.37,1.22,3.24,15.79,5.78,19.72.17.26,4.47,3.3,4.98,3.52,7.7,3.37,36.48,4.09,45,2.52,11.87-2.18,14.11-18.07,9.03-27.51-2.65-4.92-13.38-6.01-18.91-7.12-11.92-2.41-32.86-4.13-43.28-9.72-14.38-7.71-16.3-32.88-4.12-42.93,13.51-11.16,52.93-11.45,68.03-3.97,9.64,4.78,19.24,23.73,11.59,32.58-2.08,2.4-7.26,2.46-9.34.68Z"/>
      <path class="cls-1" d="M1250.91,200.15c6.44,4.96,10.77,20.69,7.48,28.21-2.23,5.1-8.01,5.46-10.9.7-3.92-6.45.56-16.01-6.95-20.02-8.16-4.36-33.08-4.17-42.79-3.32-10.54.92-15.8,8.1-14.48,18.57,1.11,8.85,7.71,11.68,15.63,13.36,13.83,2.93,29.08,3,42.63,7.37,25.33,8.17,24.24,52.15-6.8,56.68-13.68,2-43.61.5-55.12-6.29-.36-.21-5.8-5.58-6-5.95-.29-.55-3.13-9.42-3.26-10.26-.52-3.37-1.21-15.11,2.63-16.23,16.4-4.79,3.79,17.28,18.29,23.31,7.39,3.07,33.27,3.67,41.56,2.53,1.11-.15,7.23-2.24,8.19-2.74,6.39-3.3,7.09-25.03-.76-28.79-15.78-4.72-34.68-5.17-50.18-9.82-9.72-2.91-18.51-9.44-19.82-20.18-2.63-21.55,9.89-32.9,30.54-34.52,13.61-1.06,39.06-1.12,50.11,7.38Z"/>
      <path class="cls-1" d="M2209.79,286.75c.3.08,4.15,3.07,4.36,3.67,2.08,6.03-1.94,9.56-7.45,10.25-21.2,2.65-47.21-1.82-68.94.11-4.73-.63-7.07-2.69-7.54-7.46-2.87-29.32,2.31-63.29.01-93.11.27-3.94,3.92-6.05,7.53-6.47,21.59-2.54,47.95,1.98,70.07-.03,8.14,1.07,7.74,13.05,2.95,13.05h-66c-.11,0-1.5,1.39-1.5,1.5v24c0,.33,1.32,1.52,1,2.5h47.5c1.18,0,2.43,4.76,2.28,6.26-.36,3.81-3.14,3.81-3.78,6.74h-47v39h66.5Z"/>
      <path class="cls-1" d="M1515.29,298.25c-.14.43-4.02,3.14-4.76,3.32-3.41.85-7-2.95-7.29-6.27l-.02-97.1c3.62-6.71,9.87-5.78,14.08.04,18.71,26.68,37.66,53.64,56.99,79.51v-79.5c0-4.88,11.93-7.77,13.05.95v96.1c-1.44,6.31-6.97,8.73-12,3.86-5.32-5.16-11.78-17.62-16.44-24.02-13.35-18.32-27.09-36.31-40.28-54.76-1.07-1.5,1.05-3.38-3.32-2.63v80.5Z"/>
      <path class="cls-1" d="M1386.69,202.34c15.88,14.53,14.33,43.49,12.58,63.89-4.18,48.67-79.68,45.75-83.02,3.05-.79-10.08-1.26-42.29,1.32-50.76,8.44-27.77,49.14-34.47,69.13-16.19ZM1379.94,213.1c-11.87-12.74-42.39-10.11-49.84,6.97-4.54,10.41-4.11,44.45.35,55.02,8.93,21.14,52.89,18.63,55.83-6.83.83-7.22.84-41.26-1.27-46.74-.62-1.61-3.93-7.18-5.08-8.42Z"/>
      <path class="cls-1" d="M175.72,151.33c7.33,6.38,11.69,14.42,8.11,24.47-.67,1.89-10.17,12.7-12.21,14.83-4.59,4.8-17.73,16.77-23.51,18.45-11.04,3.21-30.7-4.28-36.03-14.63-3.5-6.81-2.33-11.69-3.83-18-.2-.84-1.81-.28-2.05-2.12-.17-1.3-.11-8.9.22-9.43.48-.76,11.44-2.01,13.86-2.64,14.58-3.77,27.37-11.74,40.74-18.34,6.75.9,9.91,3.25,14.69,7.42Z"/>
      <path class="cls-1" d="M1953.6,282.44c9.42,8.43,33.43,8.61,42.99.38,1.31-1.13,1-2.39,1.7-3.33,3.69-4.93,5.51-9.5,6.04-16.2,1.67-21.15-1.34-44.44,0-65.82,7.51-7.69,12.17-4.2,13.01,5.75,1.21,14.42,1.64,60.52-2,73.07-9.97,34.45-70.12,34.06-79.99-.09-4.28-14.81-4.8-57.1-3.11-73.02.15-1.38,2.79-9.03,3.2-9.3.84-.55,6.73-.33,7.88.36.83.5,2.54,4.14,2.76,5.24,4.13,20.72-4.42,53.48,2.18,73.82.77,2.37,3.61,7.56,5.36,9.13Z"/>
      <path class="cls-1" d="M885.29,298.75c-.08.12-1.36.02-1.9.65-.64.74-1.11,2.2-1.81,2.39-3.5.93-9-2.78-9.23-6.6,1.94-30.61-2.79-64.8-.11-94.98.33-3.66.36-6.03,4.49-6.51,9.15-1.07,39.13-1.19,48,.12,1.87.28,9.56,2.73,11.45,3.55,11.71,5.08,13.86,14.81,13.15,26.93-.4,6.86-3.35,12.72-9.11,16.89-2.04,1.48-14.66,6.57-16.43,6.57h-38.5c-1.24,6.62,1.62,48.57,0,51ZM924.79,205.75c-11.38-1.88-27.58,1.4-39.5,0v29h38.5c1.77,0,9.05-3.75,10.55-5.45,3.3-3.71,4.21-13.32,1.66-17.27-.81-1.25-9.54-6-11.22-6.28Z"/>
      <path class="cls-1" d="M980.29,295.25c-1.59,8.99-10.64,8.12-11.9-1.1,1.67-30.11-2.55-63.18-.14-92.94.14-1.74.61-6.09,2-7,1.17-.76,7.4-.99,8.15.12,5.02,7.4-.63,33.89,2.88,43.42h57c5.47-11.02-.98-30.51,2.45-41.05,1.36-4.19,8.15-4.27,9.81-.71,1.55,33.49.57,67.43.5,101.08-1.68,5.18-8.01,6.63-10.55.98-1.08-16.36,1.17-33.14-1.21-49.29h-59v46.5Z"/>
      <path class="cls-1" d="M50.9,174.17c6.95,4.29,17.07,12.28,23.62,17.61,1.98,1.61,15.08,13.26,15.48,14.23.58,1.41.61,9.34.26,11.03-.09.44-5.81,6.26-6.21,6.46-1.32.65-11.19.5-13.03.02-5.86-1.53-24.87-11.51-30.93-14.87-7.45-4.13-16.27-9.72-23.05-14.89-5.35-4.08-10.73-10.17-15.76-14.71-3.63-9.33.59-16.39,10.5-17.3,10.88-1,29.75,6.64,39.12,12.42Z"/>
      <path class="cls-1" d="M72.29,235.75c2-.82,5.8-3,7.53-2.92,1.52.07,10.3,4.14,13.08,4.81,11.7,2.81,26.9,3.4,38.67.88,2.46-.53,4.27-2.36,6.28-2.72,2.36-.43,11.63-.48,13.92-.04,7.8,1.51,9.76,13.37,7.52,19.98l-15,4c-1.66.07-3.34-.04-5,0-5.18.12-10.21.79-15,3-1,.03-2-.05-3,0-6.38.3-12.31,1.45-18,2-.98.1-2.01-.08-3,0-3.2.24-7.63-1-10,1-3.97-.07-8.05.24-12,0-7.47-.45-16.04-2.69-24-2-2.23-.88-3.92-3.58-6-4-.11-2.32.16-4.69,0-7l1-2c.16-.14-.1-1.4,0-2,1.46-.01,2.62-.53,3-2,.15-.07-.14-.73,0-1,3.58.33,4.5-2.28,6.26-3.28,4.07-2.31,9.42-4.96,13.74-6.72Z"/>
      <path class="cls-1" d="M2038.79,206.75c-1.72-.3-4.78-5.23-4.5-6.43.1-.42,4.97-5.37,5.72-6.54l65.85-.1c7.15.87,8.64,13.07,1.93,13.07h-26.5v89.5c0,2.23-6.3,5.36-8.55,5.59-1.54.16-6.45-4.18-6.45-4.59v-90.5c-8.25-1.02-19.67,1.38-27.5,0Z"/>
      <path class="cls-1" d="M1716.79,206.75c-7.41-1.02-4.25-12.29,1.93-13.07l65.88.32c6.19,1.21,4.55,12.76,2.2,12.76h-28.5v88.5c0,1.58-3.83,6.31-5.51,6.57-1.46.23-9.49-3.55-9.49-4.07v-91c-8.27-.81-18.49,1.1-26.5,0Z"/>
      <path class="cls-1" d="M221.88,186.18c.94.62,6.26,4.83,6.37,5.3.82,3.45,1.6,13.51.01,16.5l-15.6,13.61c-4.81,3.62-16.02,11.04-21.87,11.04-1.52,0-8.76-2.56-10.49-3.38-3.28-1.55-15.65-12.28-16.91-15.29-2.08-4.97-.87-8.38,2.07-12.57,3.89-5.55,9.49-5.64,14.71-8.24,5.68-2.82,19.68-11.34,24.86-12.15,7.17-1.12,11.34,1.57,16.84,5.19Z"/>
      <path class="cls-1" d="M1154.95,205.43c-1.13,1.79-6,5.95-7.63,8.07-8.91,11.58-17.67,23.53-26.99,34.97-1.04,14.41,1.32,30.45-.17,44.66-.75,7.2-7.84,12.44-11.92,5.17-3.69-6.56,1.27-38.51-2.02-49.79-9.85-13.63-22.55-26.39-32.23-40.02-1.13-1.59-4.13-5.04-4.49-6.51-1.53-6.17,5.06-10.93,10.51-6.94,5.2,8.29,11.94,15.47,17.91,23.12,2.35,3.01,4.86,7.68,7.39,10.81,1.06,1.32,7.02,8.6,7.58,8.72,1.26.27,1.69-.8,2.4-1.47,5.77-5.4,13.79-18.91,19.17-25.87,3.56-4.6,7.7-9.6,11.52-14.01,1.13-1.3-.08-4.07,5.38-3.19s6.18,8.19,3.61,12.25Z"/>
      <path class="cls-1" d="M1884.29,206.75v89.5c0,5.21-13,5.97-13,0v-89.5h-29.5c-4.19,0-5.76-11.98,4.94-13.07,19.74-2,42.92,1.6,63.04.09,3.56,1.27,7.82,6.11,6.03,9.95-.22.48-2.8,3.03-3.01,3.03h-28.5Z"/>
      <path class="cls-1" d="M135.16,286.88c2.16,3.46-3.44,8.22-4.86,10.6-8.93,15.03-14.21,25.82-30.84,34.17-7.75,3.9-28.15,13.05-31.95.34-1.15-3.85,1.31-2.83,1.72-3.97,4.77-13.49,10.31-28.69,23.55-37.28,8.49-5.51,20.45-3.72,30.05-3.95,2.52-.06,10.79-2.37,12.32.09Z"/>
      <path class="cls-1" d="M145.29,267.75c-.62,19.19-22.93,11.83-36.49,13.02-7.39.64-18.17,3.79-23.15,9.35-2.54,2.84-4.75,7.77-7.39,10.83-4.58,5.32-11.7,11.26-18.73,12.61-1.47.28-13.16-2.41-15.45-3.1-1.83-.55-14.9-5.42-15.54-5.95-1.03-.85-1.91-4.33-.28-5.29,4.33-1.19,11.59-2.63,15.41-4.59s7.7-10.99,11.7-13.25c8.07-4.57,43.98-11.28,54.5-12.55,11.46-1.38,23.87-.9,35.42-1.08Z"/>
      <path class="cls-1" d="M266.97,379.48c-1.53,3.46-4.05,12.46-4.63,16.82-.76,5.68,1.22,16.23-.21,20.79-1.88,6.01-8.09-7.6-9.02-9.66-14.1-31.36-18.26-55.93,3.63-85.71,2.83-3.85,6.05-7.31,9.06-10.97,4.4.75,1.55,5.3,1.45,8.46-.44,14.11,4.29,27.12,2.99,39.99-.22,2.23-2.84,19.34-3.26,20.29Z"/>
      <path class="cls-1" d="M168.03,272c.83,1.42.8,6.78,1.33,9,.2.83,1.75.74,1.9,1.44,3.21,14.3.13,30.06-1.92,43.87-2.93,19.76-5.97,37.55-9.01,56.99-.71,4.53,1.83,13.22-5.38,11.49-.98-.24-1.25-1.87-1.4-2.76-4.99-28.37-5.43-68.66,1.03-96.48.83-3.57,7.11-25.35,9.24-25.8.93.28,3.91,1.73,4.21,2.25Z"/>
      <path class="cls-1" d="M261.12,436.93c1.27,6.74,3.03,13.29,4.47,20.02.99,4.64,2.61,8.93,2.74,14.26.34,13.55-4.98,14.66-17.56,15.53-7.28.5-11.98-.82-17.84-5.17-14.2-10.52-6.67-29.55,2.39-41.05,5.85-7.42,17.38-5.12,25.8-3.59Z"/>
      <path class="cls-1" d="M16.7,378.36c6.29,6.29,14.43,16.02,19.02,23.45,1.45,2.35,3.81,6.36,3.55,8.9-8.88-.24-7.12,4.7-9.08,10.25-.27.78-1.59.72-1.83,1.55-.53,1.88-1.28,6.82-1.15,8.71.26,4.02,3.56,5.69,4.04,9.09,1.31,9.26-7.6,16.14-15.58,11.02-9.94-6.39-10.51-16.16-9.38-27.08.41-3.94,2.43-6.34,2.92-9.07,1.51-8.31-5.53-20.77-7.89-28.95,1.95-3.51,1.78-10.75,5.76-12.39,6.46-2.66,6.11,1.01,9.6,4.51Z"/>
      <path class="cls-1" d="M816.79,195.75c4.77.87,2.97,8,2.5,8h-43.5c-.11,0-1.5,1.39-1.5,1.5v15.5h29.5c.2,0,3.18,2.03,3.28,2.2,2.32,3.88-2.85,7.8-6.28,7.8h-26.5v24h41.5c3.73,0,6.48,8.72-1.06,9.94-7.99,1.3-32.33.85-40.98.09-1.56-.14-8.46-1.04-8.46-2.54v-65c0-.11,1.39-1.5,1.5-1.5h50Z"/>
      <path class="cls-1" d="M112.61,346.48c2.09,4.52,1.02,3.77,1.69,8.76,2.63,19.79,8.73,43.91,6.04,64.06-.29,2.19-.78,3.13-2.56,4.44l-8.46-10.75c-10.1-16.17-19.24-43.77-21.04-62.74-1.15-12.05,10.48-10.62,18.56-15.46,10.91-1.74,3.22,6.17,5.77,11.69Z"/>
      <path class="cls-1" d="M740.29,198.25c.31-1.46,2.85-4.4,4.54-4.56,2.72-.25,2.55,1.2,3.84,2.7.47.54,1.61.28,1.61.36v66c0,.66-10,4.44-10-1.5v-28.5c-11.83-1.64-25.17-1.64-37,0v31c0,.63-8.02,3.89-9.05-4.46-2.23-18.03,1.8-40.55,0-59.09-.14-5.01,7.08-9.7,8.84-3.75,1.93,6.54-1.89,17.87,2.14,24.86,1.28.93,28.23.88,31.62.48,1.01-.12,3.45-.46,3.45-1.55,0-5.64-1-17.31,0-22Z"/>
      <path class="cls-1" d="M153.28,283.76c-.49,3.35.72,8.25-.02,11.31-4.58,19.01-9.79,41.44-8.02,63.23,1.52,18.82,5.31,38.44,8.12,55.88.34,2.09,1.81,4.24,1.8,6.07-.02,10.51-14.15,14.94-18.75,5.87-2.63-5.19-.75-24.55-1.09-31.91-1.65-35.4-.74-72.62,14.86-105.26.88-1.83-.21-5.99,3.1-5.2Z"/>
      <path class="cls-1" d="M250.29,318.75c-1.05,2.82-2.26,5.42-3.33,8.19-.51,1.32-.54,4.6-.72,4.76-.24.22-4.28.26-4.82-.08-.78-.49-.69-3.93-1.24-5.07-11.17-23.54-13.4-49.92-9.12-75.52.54-3.24-.29-6.63,1.21-9.74,1.36-1.97,4.1,2.17,4.83,3.14,5.75,7.68,11.25,20.83,16.28,29.51.94,1.62,2.63,5.6,2.9,5.81-.33,5.74.44,11.84.04,17.54-.57,8.16-3.28,14.01-6.04,21.46Z"/>
      <path class="cls-1" d="M71.97,119.49c-1.67,3.74-3.51,10.92-4.64,14.98-.45,1.63-.11,7.13-1.23,8.1-.67.57-14.74,3.6-17.04,4.27-6.36,1.87-12.8,3.69-20.02,5.17-4.81.98-19.57,7.38-18.81-2.7.1-1.27,6.82-7.67,8.46-9.18,10.63-9.82,23.2-23.66,36.42-30.27,3.66-1.83,17.25-7.54,18.23-.57.09.62-1.16,9.74-1.37,10.21Z"/>
      <path class="cls-1" d="M1476.08,193.96c1.57.9,3.05,7.2,3.24,9.25,2.71,28.46-2.12,61.14-.02,90.06-1.82,10.35-12.81,11.44-14.02-.03,2.17-29.45-2.91-63.06-.01-92,.13-1.25,1.62-7.02,2.15-7.36.63-.4,7.86-.39,8.66.07Z"/>
      <path class="cls-1" d="M91.02,392.08c2.63.85,2.56,6.94,3.36,8.89,7.55,18.27,17.86,34.68,26.9,52.09.46.89,3.26.85,2.01,4.69-7.11,1.64-10.69-4.99-15.41-8.65-9.88-7.65-20.71-13.05-30.38-20.08-7.16-5.21-7.92-17.91-4.21-25.57.12-.26,3.1-4.2,3.29-4.41,3.15-3.4,9.7-8.51,14.45-6.96Z"/>
      <path class="cls-1" d="M1293.29,298.75c-.15.23-4.46,2.75-4.73,2.83-3.39,1.02-8.11-1.62-8.19-5.38,1.93-30.91-2.87-65.53-.14-96,1.06-11.85,13.05-5.15,13.05-2.95v101.5Z"/>
      <path class="cls-1" d="M235.72,328.34c.29.49,1.43.18,1.64,1.86,1.5,12-.92,27.52-.11,40.1.87,13.55,10.09,30.93,14.96,43.24,2.11,5.34,3.73,11.02,6.07,16.19-4.31,2.31-10.44,2.88-15.27,1.81-7.17-1.58-7.17-18.65-10.61-24.39-5.62-24.1-7.81-46.3-3.98-70.77.22-1.43,2.45-11.21,2.88-11.63,2.16-2.13,3.79,2.53,4.43,3.6Z"/>
      <path class="cls-1" d="M87.29,164.75c-1.64.61-3.64,1.54-5,2-2.29.77-4.46,2.01-6.77,2.73-1.51.47-7.74.82-8.23,1.28-2.76,2.64,4.13,1.21,5.02,1.38,6.24,1.2,3.3,5.52,4.03,10.07.3,1.88,2.51,3.25,1.95,5.54-3.01,2.7-12.03-7.53-14.89-9.63-.69-3.23,1.69-3.47,2.89-5.35-7.49,1.23-13.76-2.93-20.19-6.11-.76-.38-.86-1.43-1.59-1.82-4.44-2.33-18.04-4.59-5.75-11.12,6.41-3.4,14.14-3.61,20.82-5.18,4.66-1.1,8.87-4.48,14.95-3.6,1.51.22,16.94,6.09,19,7.09,6.66,3.21,4.61,9.28-1.71,11.79-1.65.65-3.43.54-4.52.95Z"/>
      <path class="cls-1" d="M1818.17,193.87c.37.33,2.05,7.03,2.17,8.32,2.67,28.83-2.11,61.78-.06,91.05-.04,8.32-9.92,12.58-12.05,3.05,2.28-31.56-2.87-66.97.05-98.06.09-.96.61-4.02,1.14-4.35.61-.38,8.41-.31,8.74-.02Z"/>
      <path class="cls-1" d="M139.28,301.75c.44.43-.71,10.86-1.05,12.28-.18.78-1.68.68-1.87,1.49-6.46,27.79-7.98,58.46-4.02,86.69.58,4.16.54,17.86.01,22.09-.25,1.97-3.5,4.14-5.52,3.51-2.15-.67-1.3-12.99-1.57-15.53-1.63-15.54-2.66-30.57-5.07-45.93-.26-1.68-1.66-2.83-1.97-5.03-2.9-20.88,7.79-41.8,17.98-58.93.23-1.03,2.96-.74,3.07-.63Z"/>
      <path class="cls-1" d="M664.29,260.25c-.83,6.03-9.45,5.68-10.79-.21l-1.65-54.35c-2.21-3.17-21.88,3.35-18.62-8.33.29-1.03,5.32-1.57,6.52-1.65,10.8-.71,29.35-.95,39.93.16.94.1,4.44.66,4.67,1.49s.15,4.62-.22,5.23c-.13.21-4.09,2.16-4.33,2.16h-15.5v55.5Z"/>
      <path class="cls-1" d="M130.79,229.75c-5.02.72-13.54,5.3-18.95,6.05-8.97,1.24-21.6-2.77-20.65-13.58.05-.53,4.92-6.88,5.44-7.12,8.72-4.23,32.06-2.01,41.91-.1,3.21.62,16.05,4.09,17.46,6.03.72.98.62,2.72,1.29,4.02.46.89,3.26.85,2,4.7-8.85.9-19.96-1.22-28.5,0Z"/>
      <path class="cls-3" d="M1557.29,375.25c1.05-3.49,17.07-2.75,20.49-2.49,10.18.79,16.65,1.18,17.29,12.8.46,8.3-6.63,12.11-6.84,14.75-.25,3.23,6.92,16.6,7.83,21.18.32,1.62.72,5.84-1.29,6.26-5.07,1.07-9.19-21.15-12.21-24.05-3.66-3.51-13.18-1.55-18.11-1.79-.15.72-1.17,1.98-1.17,2.34v22c0,2.74-6,.27-6-1v-50ZM1563.29,379.75v14c11.82,1.55,34.19,4.73,23.29-14.01-7.86.82-15.61-2.68-23.29.01Z"/>
      <path class="cls-2" d="M819.29,292.75v5h-184.5c-1.88,0-1.88-5,0-5h184.5Z"/>
      <path class="cls-3" d="M906.29,375.25c1.05-3.5,17.99-2.79,21.48-2.48,5.41.47,10.77,1.2,13.97,6.03.65.98,3.3,6.88,3.35,7.63.02.4-2.61,7.11-2.87,7.54-1.19,2.01-5.62,3.97-5.99,6.3-.57,3.6,4.72,10.82,5.96,15.09.93,3.18,3.24,10.17.59,12.39-4.76,1.44-5.89-11.78-7.07-14.9-2.34-6.19-6.89-11.3-13.91-12.09-1.7-.19-9.51-.49-9.51,1.5v24c0,1.98-6,1.99-6,0v-51ZM912.4,393.65c1.35,1.59,18.84,1.52,21.63.35,5.16-2.17,4.36-13.4-.24-14.24-1.87-.34-19.72-1.15-20.57-.56-1.34.93-1.3,13.9-.83,14.45Z"/>
      <path class="cls-3" d="M2064.29,426.25c-.89,3.07-4.08.9-5.53-.47-3.99-3.76-7.32-10.95-10.5-15.28-4.57-6.21-9.73-12.61-13.96-18.51-1.44-2.01-3.25-7.05-6.01-7.25v41.5c0,1.93-5.11,2.52-5.97-2.03.86-6.12-1.48-49.07.56-50.57,1.15-.84,3.97-1.39,4.88.1l30.53,42v-41.5c0-1.97,6-3.65,6-1v53Z"/>
      <path class="cls-3" d="M1826.29,379.75h-25.5c-.38,0-3.5,2.27-3.5,2.5v36.5c0,.29,4.6,1.94,5.45,2.05,2.99.38,22.18.3,23.09-1.01.84-1.21.29-8.08,2.94-7.03,3.5,1.38,3.02,9.24,1.21,11.69-4.03,5.47-29.32,3.76-34.99.32-.32-.19-3.43-5.77-3.69-6.55-2.59-7.71-2.67-30.08.05-37.7.15-.42,5.76-6.33,6.17-6.49,2.66-1.08,18.71-1.58,22.29-1.32s8.54.26,10.2,3.8c4.75,10.08-4.48,15.97-3.75,3.25Z"/>
      <path class="cls-3" d="M1113.3,391.75c-.5-11.01-3.78-13.99-14.53-14.98s-20.18-.25-18.53,12.53c1.11,8.55,17.44,7.17,23.32,8.68.4.1,7.18,3.06,7.66,3.34,6.25,3.54,7.03,11.42,4.8,17.65-.14.39-2.76,5.29-2.98,5.51-.36.35-8.4,2.85-9.48,3.02-6.27.99-21.41.15-25.82-4.7-2.64-2.91-5.94-13.16-.82-14,4.6-.76,2.78,8.32,3.59,9.74,2.38,4.2,26.2,6.3,30.01-.08,3.53-5.9,1.68-11.44-4.67-13.75-7.11-2.58-23.35-3.53-28.02-7.99-5.72-5.47-3.63-19.47,2.81-22.63,6.08-2.98,33.78-3.57,35.64,6.17.3,1.58.46,14.58-2.97,11.48Z"/>
      <path class="cls-3" d="M675.3,391.75c-.61-2.52-2.03-10.98-3.76-11.99-5.8-3.39-23.44-5.25-27.95.28-1.82,2.23-1.99,11.64-.07,13.49.33.31,7.44,2.71,8.55,2.95,7.04,1.56,15.56.83,21.77,5.23,5.07,3.6,5.29,9.74,4.51,15.6-1.7,12.83-25.18,11.66-34.3,8.18-3.01-1.15-6.11-3.98-6.71-7.29s-.86-13.49,3.42-8.42c3.54,4.19-2.27,8.93,7.47,11.54,5.03,1.35,21.91,2.26,24.32-2.82,9.27-19.52-24.4-13.41-32.68-21.82-6.01-6.11-3.63-19.67,4.24-22.62,6.48-2.42,26.7-2.43,31.58,2.8,4.79,5.14,2.57,17.63-.38,14.89Z"/>
      <path class="cls-3" d="M850.74,379.3c1.64,1.8,4.06,4.63,4.51,7,.59,3.12.65,25.92,0,28.75-.16.71-1.52.74-1.88,1.49-1.31,2.72-.93,3.69-3.55,6.26-8.34,8.16-27.71,7.06-32.94-4.15-2.36-5.06-2.17-23.23-1.64-29.43,1.54-17.99,24.28-22.19,35.48-9.92ZM823.57,418.48c2.95,3.58,11.85,3.95,16.16,3.22,7.55-1.27,10.23-8.65,10.58-15.41.21-4.03-.39-15.16-1.08-18.99-1.99-11.12-24.16-13.07-28.41-.5-1.02,3.02-1.09,19.86-.59,23.5.18,1.31,2.61,7.32,3.33,8.18Z"/>
      <path class="cls-3" d="M1286.29,374.25c.15-.54,1.63-1.79,2.49-1.5,1.84.49,14,19.66,16.25,22.79,4.21,5.84,8.49,12.16,12.95,17.95.66.85-.01,1.81,2.3,1.27v-36.5c0-5.73,6-6.9,6-4v51c0,1.29-3.53,2.26-4.56.56l-30.43-42.06-1.02,41.49c-.7,3.89-3.99,2.18-3.99,1.01v-52Z"/>
      <path class="cls-1" d="M31.29,227.74c-5-.49-1.73.81-2.46,3.01-1.89,5.68-6.05,5.44-7.08,6.95-1.12,1.64-.1,4.42-.5,6.36-.14.69-1.64.66-2.14,2.06-4.06,11.31-4.74,25.5-2.9,38.2.28,1.9,1.84,1.28,2.05,2.13,2.2,9.32,2.31,20.02,7.08,28.55,1.36,2.42,7.31,8.54,9.57,10.59,3.36,3.05,8.59,3.83,8.37,9.16-3.33.9-1.5-2.57-2-3-.38-.33-1.89.79-2.7.67-7.58-1.06-21.84-17.36-25.22-24.44-12.05-25.22-4.9-55.47,11.61-76.61,1.35-1.73,3.65-8.87,6.31-3.63Z"/>
      <path class="cls-3" d="M2178.29,418.75c2.19,3.54,23.48,1.4,28.34,2.04,2.1-.49.71-8.77,4.15-8.04,2.51,1.68,2.7,3.72,2.62,6.57-.03,1.04-2.86,5.8-3.66,6.36-4.02,2.83-19.66,1.84-24.71.83-4.63-.92-10.6-4.1-12.19-8.81-1.09-3.23-1.18-28.23-.59-32.5,1.5-10.85,13.63-12.3,22.5-12.5,3.99-.09,11.13.08,14.86,1.02,1.69.43,4.96,9.75,3.7,12.03-6.18.81-6.49-1.5-6-7.01-7.55,1.66-18.61-.28-25.48,1.03-1.1.21-3.53,1.73-3.53,2.47,0,4.94-.96,34.95,0,36.5Z"/>
      <path class="cls-3" d="M1506.29,412.25c-3.24,19.28-34.9,20.63-39.57,3.57-2-7.3-2.5-31.92-1.48-39.62.37-2.81,1.96-5.58,5.05-3.95-.78,4.48.82,8.76,1.04,12.95.41,7.87-2.07,27.11,2.53,32.47,3.78,4.4,12.54,5.08,17.9,4.06,1.92-.37,8.52-6.38,8.52-7.48v-40c0-1.64,5.03-2.41,6,0-1.36,11.45,1.83,27.1,0,38Z"/>
      <path class="cls-1" d="M66.29,418.75c-1.41,1.37-9.05-2.64-10.89-3.61-9.38-4.93-16.88-13.05-22.25-21.73-2.05-3.32-10.26-11.63-.5-11.56,4.24.03,20.33,7.34,24.29,10.26,5.14,3.8,5.28,6.73,7.68,11.36.24.45,1.66.2,1.66.28v15Z"/>
      <path class="cls-1" d="M66.29,274.75c-10.21,2.84-20.49,3.47-30.54,6.96-6.19,2.15-14.67,9.5-11.25-5.25.34-1.47,6.05-11.76,7.15-13.36,1.9-2.77,6.3-5.93,7.71-9.27,1.35-.59,5.9,4.59,6.93,5.93.17.21-.39,1.71.24,2.72,1.72,2.75,11.3,5.97,14.76,6.28.98.09,2.01-.03,3,0l3,1c.78.23,2.12-.19,3,0v4c-.94.05-2.27-.2-3,0l-1,1Z"/>
      <path class="cls-3" d="M1012.29,380.75v45.5c0,1.84-6.04,2.9-6.97-2.03l-.17-42.83c-1.2-3.66-11.26-.17-13.92-2.07-1.94-1.39-1.46-6.57,1.56-6.57h33c1.46,0,2.48,5.22.56,6.56-2.16,1.52-10.73-.61-14.06,1.44Z"/>
      <path class="cls-3" d="M729.29,373.75c14.44-2.32,44.04-3.48,36.16,19.62-3.57,10.45-32.16,1.63-32.16,7.88v25c0,1.72-4,1.72-4,0v-52.5ZM733.29,379.75v14c7.78.96,29.3,4.95,29.09-7.53-.19-10.95-22.05-7.52-29.09-6.47Z"/>
      <path class="cls-1" d="M52.29,241.75c-5.12,2.55-7.1-2.33-10.4-5.65-.42-.42-1.83-.14-2.3-.64-1.18-1.25-3.28-6.48-3.32-8.25-.06-2.72,2.2-8.82,4.75-9.49,2.79-.73,16.8,6.56,20.58,8.24,2.2.98,3.92,1.98,5.48,2.7,3.06,1.42,10.25,1.51,2.22,5.09-5.91,2.63-11.32,5.18-17,8Z"/>
      <path class="cls-3" d="M1376.29,409.75c.37-.38,2.78-.14,3.52.97,1.34,2.01-.78,9.09,5.18,10.82,3.77,1.1,19.3,1.31,22.05-1.04,3.99-3.4,1.26-14.02,1.2-18.22-.1-6.79-1.02-20.09.07-26.01.27-1.48,2.06-4.53,3.99-3.04,2.68,2.07,2.19,24.49,1.98,29-.18,3.8-.52,12.78-1.2,15.8-2.66,11.86-29.57,13.06-35.21,3.63-1.2-2.01-2.51-10.98-1.57-11.92Z"/>
      <path class="cls-3" d="M1652.93,383.16c2.4,3.22,6.49,12.92,10.73,11.47,2.83-.97,13.13-18.26,16.61-21.4,3.07-1.97,3.36,2.83,2.33,5.3-2.06,4.95-15.63,16.83-17.1,21.93s2.18,25.14-2.73,27.28c-1.56.68-3.3-3.67-3.44-4.54-1.07-6.67,1.42-17.88-.26-23.74-1.17-4.07-12.18-14.33-14.79-18.47-2.25-3.57-5.64-10.11,1.37-7.11,2.43,3.03,4.97,6.18,7.28,9.28Z"/>
      <path class="cls-3" d="M1886.29,372.75v47.5c0,.11,1.39,1.5,1.5,1.5h29.5v5h-36v-54h5Z"/>
      <path class="cls-3" d="M2121.29,424.25c-.11.8-1.44,2.14-1.01,3.5-1.42.73-4.99-1.55-4.99-2.5v-51.5c0-.33,6-1.8,6,.5v50Z"/>
      <path class="cls-3" d="M1970.29,373.75v52.5c0,1.31-3.69,1.83-5,1.5v-53.5c0-1.96,3.64-1.05,5-.5Z"/>
      <path class="cls-3" d="M1233.29,372.75v53.5c0,1.17-3.29,2.89-3.99-1.01.41-6.8-2.96-50.08-.07-52.06,1.12-.77,2.78-.38,4.06-.44Z"/>
      <path class="cls-1" d="M93.29,170.75c0-3.76.33-5.48,5.29-4.81,5.51.75,4.5,7.93,3.71,11.8-.36.37-3.94-1.55-4.99-2-1.44-3.97-1.68-1.96-3-3-.17-.13.14-1.82-1-2Z"/>
      <path class="cls-1" d="M90.29,170.75c.12.28-.12.71,0,1l1,1c.39.19,1.4-.13,2,0,.21,1.18.11,1.17,1,2,1.56,1.45,2.19.66,3,1,1.21,3.32.65,1.64,1.99,3.75,1.1,1.73,6.9,9.31,6.91,9.91.02.69-2.93,3.87-3.23,4.03-1.15.62-2.17.12-2.67.31-4.95.55-5.53-5.17-6.99-7.3-1.82-2.67-6.96-8.89-8.01-11.7-.18-.48.15-1.41,0-2-.74-4.61,1.54-2.9,5-2Z"/>
      <path class="cls-1" d="M82.29,175.75c2.53,1.06,1.99,3.48,3.01,5.28s3.38,5.39,4.77,7.44c2.34,3.46,12.56,11.66,3.22,12.28-1.16-1.29-4.75-.77-9-7-.57-.84-.93-1.14-2-1-.15-.19.13-.7,0-1l-1-1c-.38-2.51,0-6.26,0-9v-6c.27-.1.66.08,1,0Z"/>
      <path class="cls-1" d="M256.29,279.75c.29.23,1.82-.24,2,0,.54.72-.4,8.16.01,10l2.99-2.99c-.44,4.51-1.69,16.85-2.92,20.54-.67,2-4.15,4.16-3.09,7.95l4.35-4.16c.58-.51,1.55-.22,1.66-.33,1.06,4.25-2.13,2.43-2.77,3.22-2.26,2.82-1.27,1.38-3.02,2.98-1.12,1.02,1.86,4.54-5.21,1.79,2.76-7.45,5.47-13.3,6.04-21.46.4-5.7-.37-11.8-.04-17.54Z"/>
      <path class="cls-1" d="M234.15,175.9l10.13,17.85c-2.18.25-2.9-1.86-4.75-2.74-5.71-2.74-11.21-1.43-11.34-9.75-.07-4.63,1.08-6.64,5.96-5.36Z"/>
      <path class="cls-1" d="M85.29,174.75c1.06,2.81,6.19,9.03,8.01,11.7,1.46,2.13,2.04,7.85,6.99,7.3-.88.33-1.69,1.3-2.99,1.01v.97c4.42-.19,1.53,6.7-1.47,7.07-3.97.49-2.05-1.52-2.53-2.06,9.34-.61-.88-8.81-3.22-12.28-1.39-2.06-3.76-5.65-4.77-7.44s-.48-4.22-3.01-5.28c.59-.14,1.7-1.5,3-1Z"/>
      <path class="cls-1" d="M48.29,259.75c2.08.42,3.77,3.12,6,4-1.59.1-3.35-.64-2.99.99,1.28.64,2.75-.97,2.99-.99,7.96-.69,16.53,1.55,24,2-5.18,2.51-10.7-.42-16.52,0-3,.22-1.25,1.66-.48,3-3.45-.31-13.04-3.53-14.76-6.28-.63-1-.08-2.5-.24-2.72.64.08,1.4-.12,2,0Z"/>
      <path class="cls-1" d="M69.29,233.75c-.47,2.67.63,2.04,3,2-4.31,1.77-9.67,4.41-13.74,6.72-1.76,1-2.68,3.6-6.26,3.28.18-.36-.36-1.54.11-1.91.29-.23,7.9-1.13-.11-2.09,5.68-2.82,11.09-5.37,17-8Z"/>
      <path class="cls-1" d="M121.29,262.75c-5.24,2.8-12.23,4.54-18,2,5.69-.55,11.62-1.7,18-2Z"/>
      <path class="cls-1" d="M139.29,259.75c-3.38,2.8-9.22,3.75-13.54,3.86-.8.02-1.34-.86-1.46-.86,4.79-2.21,9.82-2.88,15-3Z"/>
      <path class="cls-1" d="M159.29,255.75c-.13.38.24,1.08-.23,1.74-1.46,2.05-10.49,3.04-13.31,3.12-.79.02-1.34-.86-1.46-.86l15-4Z"/>
      <path class="cls-1" d="M87.29,164.75c-.99,5.81,1.67,3.22,2.87,4.1.5.37-.04,1.49.13,1.9-3.46-.9-5.74-2.61-5,2-1.07-4.28,1.79-6.75-3-6,1.36-.46,3.36-1.39,5-2Z"/>
      <path class="cls-1" d="M100.29,264.75c-1.59.98-6,1.95-7.69,1.95-1.5,0-2.18-.95-2.31-.95,2.37-2,6.8-.76,10-1Z"/>
      <path class="cls-1" d="M81.29,175.75v6c-2.61,1.11-2.52-3.24-2.02-5.39.29-1.26,1.32-.33,2.02-.61Z"/>
      <path class="cls-1" d="M70.29,269.75c.81.18,1.75-.51,2.01.51.8,3.23.27,3.37-2.01,3.49v-4Z"/>
      <path class="cls-1" d="M264.29,274.75c.04,2.37.67,3.47-2,3,.1-.82-.23-2.73,0-3,.21-.25,1.61.23,2,0Z"/>
      <path class="cls-1" d="M52.29,246.75c-.38,1.47-1.54,1.99-3,2,.62-3.85,1.04-1.08,3-2Z"/>
      <path class="cls-1" d="M67.29,269.75l-3-1c3.81.1,2.16.75,3,1Z"/>
      <path class="cls-1" d="M49.29,250.75l-1,2c0-.11-1.62-1.35-.99-1.99.22-.23,1.73.22,1.99,0Z"/>
      <path class="cls-1" d="M94.29,172.75v2c-.89-.83-.79-.82-1-2-.1-.57,0-1.35,0-2,1.14.18.83,1.87,1,2Z"/>
      <path class="cls-1" d="M267.29,268.75c-.28,1.8.84,2.32-2,2,.47-1.2-1.16-2.46,2-2Z"/>
      <path class="cls-1" d="M261.29,281.75c.05-1.09-.31-2.52,1-3-.06,1.1.32,2.49-1,3Z"/>
      <path class="cls-1" d="M84.29,193.75c-1.23.21-1.38-.22-2-1,1.07-.14,1.43.16,2,1Z"/>
      <path class="cls-1" d="M264.29,273.75c.14-.25.96-1.89,1-2l-1,2Z"/>
      <path class="cls-1" d="M267.29,267.75c.13-.61-.16-1.48,0-2l.99.51-.99,1.49Z"/>
      <path class="cls-1" d="M82.29,191.75c-.03-.06-.88-.24-1-1l1,1Z"/>
      <path class="cls-1" d="M91.29,172.75l-1-1c.03.07.89.95,1,1Z"/>
      <path class="cls-1" d="M66.29,274.75l1-1c-.15.04-.49.86-1,1Z"/>
    </g>
  </g>
</svg>