<?xml version="1.0" encoding="UTF-8"?>
<svg id="Layer_2" data-name="Layer 2" xmlns="http://www.w3.org/2000/svg" viewBox="0 0 1463.01 296.31">
  <defs>
    <style>
      .cls-1 {
        fill: #aaa7a5;
      }

      .cls-2 {
        fill: #e9e8e8;
      }

      .cls-3 {
        fill: #6e9c40;
      }
    </style>
  </defs>
  <g id="Layer_1-2" data-name="Layer 1">
    <g>
      <path class="cls-2" d="M963.01,0v162c.12.51.84.75,1,1,.35.57,1.35.82,2,1,.16.04.72,1.48,1.99.99v-14.99c.32-.31-.86-1.67,1.44-2.09,3.5-.64,13.45-.13,17.57.09l3,2c.68,4.07-1.34,10.55,1,14h2c.5-4.3-.7-9.93,0-14l3-2c3.71-.25,15.05-.69,18,0,.11.03,1.94.9,2,1,.12.2-.08.65,0,1,.78,3.45-1.41,8.79,1,12,.02.33-.03.67,0,1,.13,1.53,1.11,3.3,1,5-.46.14-.72.65-1,1-2.03,2.57-.67,6.07-1,9-.27.83.71,2.57-.56,3.06-1.42.54-20.86-.01-21.86-.93s.39-17.32-3.58-12.13c-.89,1.16,1.33,10.89-.94,12.57-.85.62-18.21.83-19.42.29-3.88-1.74,1.28-15.34-5.64-12.86l-1,1c-1.22,41.56,1.64,83.48,0,125h-3v-125c-.14-.37-.7-.7-1-1-3.13-2.03-32.77-.99-39-1-10.98-.02-22.02-.06-33,0,0-2.75,1.2-2.75,3.45-3.05,20.1-2.7,46.96,3.78,67.94,1.1l.61-2.05,1-162c.56,0,1.95-1,3-1Z"/>
      <path class="cls-2" d="M1452.01,163c3.15.27,7.23,1.91,11.01,1v4c-51.99.89-104.06-.74-156.01-1l-2-3c46.57-.62,100.99-4.91,147-1Z"/>
      <path class="cls-2" d="M959.01,163l-.61,2.05c-20.98,2.67-47.85-3.8-67.94-1.1-2.25.3-3.45.31-3.45,3.05-295.43,1.53-590.95.92-886.42,1.02l-.59-6.03,959.01,1.01Z"/>
      <path class="cls-2" d="M1074.01,160c4.93,13.67,5.14-12.22,6.15-12.85.74-.46,15.79-.49,17.31-.11,6.68,1.64.57,13.54,3.54,16.97.1.11,3,.14,3,0v-14c0-2.71,21.9-6.21,23.06.48.62,3.58-.79,9.04-.06,12.52.15.7-.54,2.14.61,2.02,8.17-1.89,65.98,2.4,68.4-.02.5-.5-.46-11.64,0-14.01.07-.34-.1-.74,0-1l1-1c2.21-1.42,15.15-1.52,18-1,3.96,4.7.35,9.81,3,15,.07.35-.11.78,0,1l1,1c10.32,0,20.68.01,31,0,6.08,0,13.22.86,19-1,9.98-.01,20.02.01,30,0,1.02,0,1.95,0,3,0s2,.01,3,0l2,3c-22.24-.11-65.31-3.38-85,0-1.34.23-1.81-.35-3,1-2.66,3.03.67,10.65-1.94,12.56-.85.62-15.66.81-17.61.49-7.02-1.18-1.59-10.56-3.52-12.99-2.08-2.62-59.06-.19-66.93-1.06-.48.2-.7.62-1,1-2.55,3.19.15,9.76-1.15,11.85-1.09,1.75-21.05,2.18-22.61-1.07-1.17-2.43,1.73-13.17-2.73-10.77l-2.01,12.99h-19c-3.34,0,.9-13.01-4-13.01s-.75,10.6-3.44,12.58c-1.06.78-19.07.78-20.13,0-1.74-1.28-.81-9.88-.94-12.56-.09-1.96-.08-4.03,0-6,.01-.33-.02-.67,0-1l1-10c.26-.79-.7-2.63.56-3.06l20.45.05c.12,1.31-.16,2.7,0,4-2.3,2.6-.97,5.31,0,8Z"/>
      <path class="cls-2" d="M243.01,52c.83.83-1.71,8.53,1.51,8.02,12.49-6.36,23.24-14.79,36.05-4.07,2.56,2.14,4.54,7.73,6.93,7.07,9.31-9.37,30.19-18.98,40.34-5.36,1.48,1.99,5.16,13.11,5.16,14.84v48.5h-14c-1.32-11.28,5.94-54.33-4.74-59.98-6.56-3.47-24.28,1.25-26.08,7.66-3.94,14.01.45,37.57.82,52.32h-15c-1.12-16.1,4.22-38.77-.44-54.1-3.94-12.96-27.01-5.61-29.88.32-5.78,11.94,1.24,51.88-.67,53.79l-14.59-.97.59-68.03c2.13.36,13.51-.5,14,0Z"/>
      <path class="cls-3" d="M734.99,18.99l1.61,101.05c-6.73,3.75-12.53-.4-20.08-.03-15.01.75-27.2,7.13-40.9-7.14-28.84-30.04,10.01-80.05,45.85-55.87,3.53-1.01.74-30.35-.39-35.38l13.9-2.64ZM713.6,58.43c-42.11-18.38-46.61,66.76-2.33,58.34,2.75-.52,10.67-4.62,11.51-7.49.78-2.65.85-37.38.19-40.74-.53-2.67-6.95-9.05-9.37-10.1Z"/>
      <path class="cls-2" d="M351.01,155l.97-104.59c5.63-1.75,13.27,3.37,16.51,3.68,3.88.37,6.99-2.72,10.09-3.02,37.13-3.56,52.55,39.29,26.43,62.93-2.06-.29-2.28-.06-2,2-.64.44-3.08,1.59-4,2-1.79-.29-2.36.18-2,2-1.18.24-2.82-.25-4,0-4.89,1.02-9.98,1.74-15,2-.99.05-2.01,0-3,0-1.46-2.45-9.5-3.11-11-1-.05.32.07.68,0,1l-.99,33.01h-12.01ZM395.65,61.36c-7.38-6.79-29.31-5.18-31.45,3.3-.76,3.03-.85,45.43-.03,47.67.48,1.3,11.86,6.56,12.56,6.63,3.45.37,16.36-3.24,18.94-5.3,11.98-9.55,10.92-42.23-.03-52.31Z"/>
      <path class="cls-2" d="M79.01,121c-3.91-.78-11.77,2.18-13-2.5l2.53-98.55,12.5,1.74-2.03,41.31c10.59-5.55,20.61-14.67,33.52-11.02,22.74,6.41,9.52,51.58,14.47,69.03-3.03-.62-13.73,1.54-14.93-1.65,1.65-13.53,4-35.53,1.99-48.9-.06-.39-3.11-6.86-3.37-7.16-8.49-9.61-31.69,3.96-31.69,5.7v52Z"/>
      <path class="cls-2" d="M564.01,121l.44-68.06c.9-1.22,14.05-1.46,14.57-.94,1.44,1.44-3.16,10.81.48,9.99,9.9-7.76,24.77-15.76,36.88-7.85,14.47,9.46,3.46,51.27,9.64,66.86-3.38-.64-13.4,1.61-14.85-1.64-3.51-7.88,8.31-56.83-7.57-59.43-6.75-1.11-24.18,3.78-26.36,10.8-3.1,9.96.81,38.94,1.78,50.28h-15Z"/>
      <path class="cls-2" d="M200.53,58.49c33.14,21.78,5.91,79.51-38.21,61.7-45.93-18.54-10.92-93.99,38.21-61.7ZM191.65,62.36c-33.96-29.67-53.1,42.13-20.62,54.12,30.59,11.29,39-38.06,20.62-54.12Z"/>
      <path class="cls-2" d="M536.53,58.48c36.22,24.23-1.51,84.99-43.75,58.47-39.14-24.57-1.31-88.61,43.75-58.47ZM530.58,110.59c12.23-17.38,6.27-54.34-18.07-54.66-34.7-.45-27.33,74.1,11.23,60.34.52-.18,6.37-5.02,6.84-5.69Z"/>
      <path class="cls-3" d="M795.01,121c-.19-.03.09-2.94-2.44-3.02-1.32-.04-10.77,4.56-14.15,4.93-31.98,3.52-41.29-35.64-3.48-44.47,11.39-2.66,23.53,3.33,19.6-12.46-3.75-15.08-25.74-8.02-35.53-2.97,1.28-9.67,8.12-11.41,16.45-12.04,47.91-3.63,25.79,40.11,33.55,70.05-4.37-.46-9.81.64-14,0ZM795.01,82c-10.82-.07-28.18,2.18-30.07,15.43-2.14,15,5.38,22.33,20.31,19.31.7-.14,9.76-5.18,9.76-5.75v-29Z"/>
      <path class="cls-3" d="M867.01,52l21.51,53.01,20.92-52.08,10.57-.93-41.99,103.25c-1.11,2.61-9.78,1.87-10.04.2,4.05-12.12,11.62-23.41,14.01-35.85l-30.56-64.54c-1.02-.97.45-3.06,1.09-3.06h14.5Z"/>
      <path class="cls-2" d="M30.01,30c2.81,2.8-6.26,22,.5,22h21.5c.3,0,.3,6,0,6h-22l-2,2v48c0,.1,1.6-.42,1.96.72,1.32,4.07-.43,7.61,6.51,8.32,9.29.94,9.82-5.28,17.52-6.04-2.57,11.76-14.47,13.91-25.24,11.74-22.2-4.48-8.49-60.51-12.75-64.75-.99-.98-9.32,2.21-10.07-2.51-.91-5.73,10.06-2.86,10.06-3.49v-22c2.13.36,13.5-.49,14,0Z"/>
      <path class="cls-2" d="M461.76,54.25c.61.65,2.75,9.18,2.24,9.75-5.63-4.75-20.64-12.87-24.42-1.95-5.83,16.82,34.59,25.09,25.16,51.18-5.57,15.41-45.71,13.48-37.72-8.23,7.1,4.46,5.98,12.53,16.53,13.04,13.73.66,12.21-11.83,6.24-20.37-8.47-12.1-25.9-13.66-20.55-35.93,2.36-9.84,26.17-14.21,32.51-7.49Z"/>
      <path class="cls-3" d="M839.99,18.99l.88,100.43c-.9,2.91-10.6,1.14-13.35,1.57l-1.5-99.48c1.17-4.57,9.52.43,13.97-2.52Z"/>
      <path class="cls-2" d="M72.01,245v16c4.81.62,6.5-3.54,11.51-3.1,12.81,1.12,11.1,32.01,6.82,32.95-1.34.29-3.32-.39-3.32-1.35v-22c0-6.55-15-4.54-15,0v22.5l-7.96-1.05c-1.15-3.64,1.96-2.72,1.96-2.95v-40.5c0-4.28,3.64-1.33,6-.5Z"/>
      <path class="cls-2" d="M603.01,260v25c0,3.56,14,.59,14-4.5v-20c0-4.28,5.7-2.36,6.78,1.22s.95,28.75-2.38,29.35c-6.79-7.32-17.33,5.63-23.08-3.38-1.8-2.82-3.93-28.69.26-29.68l4.42,1.98Z"/>
      <path class="cls-2" d="M659.01,264c-6.25,5.72.05,25.34-5.62,26.89-1.34.36-3.38-.5-3.38-1.39v-30.5c3.42-1.24,3.77,1.89,6,2h3c1.74-.16,4.63-1.5,7-2,1.71.1,3.37.51,5,1,2.38.72,5,1.51,5,4.5v25c0,.89-2.04,1.75-3.38,1.39-5.76-1.57.31-23.51-4.62-27.89.39-2.26-.48-2.88-2-1-.47-.08-5.61.8-6,1l-1,1Z"/>
      <path class="cls-2" d="M133.01,290c-4.42.49-11.32,1.8-15.02-2.48-8.78-10.16,7.32-20.05,17.02-17.51.78-11.15-6.99-9.88-15-6.01-1.21-1.2,2.96-5.6,3.27-5.7,16.92-5.22,19.43,10.9,18.72,23.7-.82,6.08-2.14,4.82-4,8-.88.19-2.09-.17-3,0,.05-.66-.07-1.35,0-2,.32-2.89,2.82-13.95-1.45-15.07-11.93-3.11-19.07,15.31-.55,15.07v2Z"/>
      <path class="cls-2" d="M256.01,288c-9.13-1.36-9.68-20.92-1.9-26.4,10.36-7.29,25.94-.12,22.9,13.4h-20.5c-.26,0-1.19,1.07-1.35,1.58-.48,3.98,3.43,6.1,3.85,9.42.12.95.19,2.73-1,3-.24-.15-.76.15-1,0-.15-.42-.58-.94-1-1ZM255.01,272h14.5c8.75,0-11.52-26.3-14.5,0Z"/>
      <path class="cls-2" d="M843.01,261c.36-3.09,2.64-2.49,3.01-3.73.97-3.27-2.47-9.76,3.7-9,5.45.67,2.46,8.88,3.29,9.73.57.59,9.28-1.28,10,1.51,1.33,5.15-9.38-1.36-10.88,6.06-1.45,7.2-2.53,20.5,5.88,21.42v3c-.98.25-2.78-.05-4,0-.41-.98-1.39-.73-2-1-1.14-.5-2.19-1.02-3-2-2.18-6.21.43-17.25-.96-22.37-.32-1.19-2-.53-2.04-.63-.14-.28-.69-.7-1-1-.37-.36,1.1-2.71-2-2Z"/>
      <path class="cls-2" d="M708.01,249c-1.3,4.69,2.51,9.29,3,13,.04.33-.03.67,0,1-4.01-.52-2.12,5.56-2,8,.08,1.63-.2,3.42,0,5-1.51,1.58-1.43,6.49-1.01,8.33.25,1.07,1.94.58,2.01.67.94,1.27-.85,1.34,2,2h1c.85.19,2.05-.12,3,0l-1,3c-.67,0-1.34.02-2,0s-1.33.01-2,0c-2.33-.36-4.85.41-6.33-2.25-2.47-4.44-1.52-17.42-1.9-23.07-.17-2.6-2.65-2.73-2.79-3.21-.18-.61,3.55-11.54,3.96-12.03,1.65-1.98,2.4-1.78,4.06-.45Z"/>
      <path class="cls-2" d="M411.01,267c-1.63-6.78-9.58-7.09-14.49-2.99-1-8.57,14.79-8.02,17.49-1.01.12.32.74.66,1,1,.09.31-.1.71,0,1,.45,1.31-1.12,2.44,2,2,.42,3.66.67,17.86,0,21-3.22,1.55-5.58.18-8,0,4.63-8.74,3.66-14.42-6-17,.3-.15,2.82-.01,5-1,.68-.31,2.36.32,3-1,2.21-.59.07-1.7,0-2Z"/>
      <path class="cls-2" d="M330.01,245c.62,2.93-.1,8.54,0,12v1c.03,1-.02,2,0,3v1c.14,7.88.78,18.44,0,26-2.08,1.02-5-.94-6-1,2.91-7.94-.18-17.48,0-25,.01-.52.98-1.5,1-2,.13-4.03-.71-10.55,0-14l5-1Z"/>
      <path class="cls-2" d="M799.01,261h3c.62.01,1.46.11,2,0,2.12-.25,2.25-.12,2,2-.66,0-1.34-.04-2,0h-1c-.94.34-1.02.03-2,1l-1,1c-.18.3-.84,2.4-1,3l-1,2c-.47,3.33.71,20.23,0,21-2.09.47-5.99-1.28-5.99-3.5v-26c0-4.81,6.58-.51,7-.5Z"/>
      <path class="cls-2" d="M211.01,252c.26-.64-.64-2.41.6-3.1,6.17-1.53,3.78,1.72,4.4,5.1.44,2.38.95,5.63,1,8,.15,7.73-2.76,16.82,0,25-.46.06-1.84,1.44-3,1-.37-.29-.73-.6-1-1,.25-2.12.12-2.25-2-2-.91-5.44.08-14.93,0-21-.05-3.78-.93-7.84,0-12Z"/>
      <path class="cls-2" d="M813.01,260c9.96,2.1,5.9,22.33,5.95,30.95-10.57,1.86-4.58-17.03-5.95-24.46-.4-2.17-2.18-2.31-3-3.49-1.44-2.06-.46-1.45-3-3,1.85.26,4.31-.36,6,0Z"/>
      <path class="cls-2" d="M1052.01,162c-.08,1.97-.09,4.04,0,6-8.42,1.61-26.92-2.16-34,0,.11-1.7-.87-3.47-1-5l35-1Z"/>
      <path class="cls-2" d="M549.01,260c-.1.63.14,1.44,0,2-1.86,7.3-6.73,24.2,6,26v3c-18.02-.78-22.29-25.07-6-31Z"/>
      <path class="cls-2" d="M765.01,266c-1.12,3.16,1.99,21.03,1,22-5.68,5.54-2.96-10.02-5-12-.87-4.53-6.33-2.62-10-3,.14-.56-.1-1.37,0-2,.31-.06.67.03,1,0,1.34-.11,3.19.54,4-1,1.25-.06,4.39.34,4.94-.1.43-.35-.11-2.18.06-2.9.06-.23,1.47-.87.99-1.97-.12-.29-1.83.15-1.99-.03-8.19-8.85-12.63.48-13.99-1.01-3.89-4.24,11.24-9.91,18-2.48,1.63,1.79.59,3.44.99,4.49Z"/>
      <path class="cls-2" d="M172.01,260c.17.42.57.93,1,1,1.25.2,2.71-.14,4,0-.14.12-1.95,2.83-2,3-2.85,9.13,3.77,27.11-6.99,26,.51-10.25-.71-20.78,0-31h1c1.05.17,2.08.45,3,1Z"/>
      <path class="cls-2" d="M453.01,260c-.13.59.19,1.62,0,2-3.79,7.47-9.66,14.16-1,23,.05,2.36.67,3.47-2,3-1.29-.63-3.17.31-5.06-1.74-8.42-9.13-4.09-20.3,5.06-25.26.38-.2.69-.88,1-1,.47-.19,1.43.17,2,0Z"/>
      <path class="cls-2" d="M891.01,261v1c-.21,10.46,15.43,12.82,12.06,25.45-.49,1.23-2.73.28-3.06.55l-3,2c-.33.04-.67,0-1,0-4.11.11-4.12.61-7-2,1.84-.37,5.61.53,7,0l1-1c2.78-7.22-6.56-9.57-9-17-.2-.61-1.02-4.62-1-5,.02-.33-.05-.68,0-1l1-1c2.22-3.71,2.01-1.24,3-2Z"/>
      <path class="cls-2" d="M502.01,261v1c-7,2.34-4.28,22.45-1,24l-1,2c-.61-.28-2.63.48-3.92-.57-9.69-7.85-7.67-25.49,5.92-26.43Z"/>
      <path class="cls-2" d="M765.01,266c1.68,4.39,4.19,16.38,3.01,21.32-.26,1.07-1.89.56-2.01.68-.16.16.49,1.56-.71,1.98-2.08.74-12.52,1.42-14.83,1.05-12.34-1.95-13.2-17.22.54-20.03-.1.63.14,1.44,0,2-.94,3.63-4.35,2.81-3.97,8.42.46,6.72,17.65,13.68,13.97-5.42,2.04,1.98-.68,17.54,5,12,.99-.97-2.12-18.84-1-22Z"/>
      <path class="cls-2" d="M309.01,261c.92-.15,2.03.06,3,0-8.07,8.67-8.31,17.74,0,26-.52.09-1.77,1.48-3,1-.9-.48-3.43.13-4.74-1.27-6.69-7.14-5.68-24.05,4.74-25.73Z"/>
      <path class="cls-2" d="M21.01,262c.78.16,2.65-.25,2.99.01.62.47-1.59.82-1.99,2.99-1.52,8.18-2.63,16.89,5,22-.88.04-2.29,1.19-5,1-.33-.02-.69.06-1,0l-2-1c-2.25-1.32-6.25-12.33-6.01-13.48.09-.44,2.66-7.26,2.96-7.82.41-.76,3.92-2.81,5.06-3.71Z"/>
      <path class="cls-2" d="M564.01,262c12.54,4.12,9.39,21.9-2,27l-1-2c6.11-3.44,5.28-20,0-25,.91.16,2.29-.23,3,0Z"/>
      <path class="cls-2" d="M452.01,285c6.05,6.18,18.22-3.37,15.48,2.98-2,4.66-12.25,3.19-16.14,2.21-1.78-.45-1.23-2.13-1.35-2.19,2.67.47,2.05-.64,2-3Z"/>
      <path class="cls-2" d="M27.01,287c3.1-.14,6.17.27,9.27-.27,1.63-.29,5.44-3.24,5.73-2.72,3.78,6.84-17.2,10.07-19.99,3.99,2.71.19,4.12-.96,5-1Z"/>
      <path class="cls-2" d="M394.01,276c5.55-.87,1.26,2.19,2.17,5.27,1.02,3.43,2.73,2.56,2.83,2.73.24.4-.17,2.09.51,2.99.96,1.27,2.33.86,2.49,1.01.18.17-.12,1.44,0,2-.96-.09-2.14.18-3,0l-2-1c-5.8-4.22-7.38-6.6-3-13Z"/>
      <path class="cls-2" d="M501.01,286c3.23,1.53,11.44,1.49,14.99,0,2.12,6.25-8.19,5.6-12.43,4.9s-3.35-2.81-3.56-2.9l1-2Z"/>
      <path class="cls-2" d="M351.01,155h12.01s.99-33,.99-33c-2.56,11.57,8.24,44.88-13,33Z"/>
      <path class="cls-2" d="M453.01,260c.1-.03-.37-1.82.67-2.01,5.09-.98,10.6-.07,14.36,3.52,1.86,6.03-11.88-3.05-15.03.49.19-.38-.13-1.41,0-2Z"/>
      <path class="cls-2" d="M502.01,261c-2.09-5.73,14.68-3.49,15.02,1.49.28,4.22-5.93-1.03-7.72-1.23-.77-.09-6.71.54-7.29.74v-1Z"/>
      <path class="cls-2" d="M708.01,249c2.11,1.7,2.68,8.58,3.11,8.89,1.22.86,8.18-1.14,8.88,1.63.89,3.5-7.28,3.63-8.99,2.48-.49-3.71-4.3-8.31-3-13Z"/>
      <path class="cls-2" d="M408.01,270c-2.18.99-4.7.85-5,1-2.14,1.12-6.18,10.1-4,13-.1-.17-1.81.71-2.83-2.73-.92-3.08,3.38-6.14-2.17-5.27,3.62-5.3,7.1-6.69,14-6Z"/>
      <path class="cls-2" d="M21.01,262c3.3-2.6,13.19-6.92,16-3.99,5.07,5.27-6.36,2.92-8.23,3.21-4.13.62-3.65,3.2-6.78,3.79.4-2.16,2.62-2.52,1.99-2.99-.34-.26-2.21.15-2.99-.01Z"/>
      <path class="cls-2" d="M177.01,261c5.16-4.54,11.87-5.7,9.99,3h-11.99c.05-.17,1.86-2.88,2-3Z"/>
      <path class="cls-2" d="M216.01,254c-.14,7.74,9.76,1.13,12,4.01,3.47,4.47-8.87,4.48-11,3.99-.05-2.37-.56-5.62-1-8Z"/>
      <path class="cls-2" d="M217.01,287c2.68-.35,9-2.11,9.47-2.01,5.45,1.21-4.11,8.26-11.77,5.01-1.14-.48-.59-1.92-.7-2.01,1.16.44,2.54-.94,3-1Z"/>
      <path class="cls-2" d="M846.01,264c.05.1,1.72-.56,2.04.63,1.39,5.12-1.23,16.16.96,22.37-5.15-6.28-2.29-15.56-3-23Z"/>
      <path class="cls-2" d="M324.01,287c1,.06,3.92,2.02,6,1,0,.1,1.15.82.94,1.38-1.32,3.68-10.42.76-12.94.62v-2c2-.3,2.86-1.18,6-1Z"/>
      <path class="cls-2" d="M891.01,261c.45-.34-.47-5.89,8.33-3.05,1.37.44,1.06,4.43,3.67,4.54-4.01,4.19-6.32-4.34-12-.49v-1Z"/>
      <path class="cls-2" d="M549.01,260c4.59-1.67,12.93-3.7,15,2-.71-.23-2.09.16-3,0-4.4-.77-7.52-1.41-12,0,.14-.56-.1-1.37,0-2Z"/>
      <path class="cls-2" d="M959.01,168l-39-1c6.23.01,35.87-1.03,39,1Z"/>
      <path class="cls-2" d="M409.01,288c2.42.18,4.78,1.55,8,0-.11.51.31,1.26-.13,1.84-5.26,2.35-9.92.63-14.87.16-.12-.56.18-1.83,0-2,2.32.12,4.69-.18,7,0Z"/>
      <path class="cls-2" d="M309.01,261c2.65-3.4,7.43-3.6,11.33-3,1,.16.58,1.95.67,2v1c-2.51-.29-6.4-.17-9,0-.97.06-2.08-.15-3,0Z"/>
      <path class="cls-2" d="M265.01,288c1.53-.2,10.54-3.34,10.99-2.99,3.37,2.57-5.66,4.83-6.99,4.99-1.23-.79-2.65-1.47-4-2Z"/>
      <path class="cls-2" d="M889.01,288c2.88,2.61,2.89,2.11,7,2-6.49,6.45-14.69-7.09-9.52-5.99,1.71.36,2.28,3.77,2.52,3.99Z"/>
      <path class="cls-2" d="M393.01,120c-3.22,4.02-10.51,3.95-15,2,5.02-.26,10.11-.98,15-2Z"/>
      <path class="cls-2" d="M561.01,287l1,2c-2.82,1.26-1.66,2.23-7,2v-3c1.26.18,4.96-.42,6-1Z"/>
      <path class="cls-2" d="M710.01,285c-.07-.09-1.76.4-2.01-.67-.42-1.84-.5-6.75,1.01-8.33.32,2.59,1.87,5.75,1,9Z"/>
      <path class="cls-2" d="M263.01,288c-2.06-.22-2.28-.14-1.99,1.99,1.31.1,2.68-.11,3.99,0-3.32,3.1-5.13.13-7-1,1.19-.27,1.12-2.05,1-3,1.85-.37,3.14,1.67,4,2Z"/>
      <path class="cls-2" d="M375.01,122c-4.3-.02-6.83-1.08-11-1,1.5-2.11,9.54-1.45,11,1Z"/>
      <path class="cls-2" d="M711.01,263c.19,2.4-.5,6.01-2,8-.12-2.44-2.01-8.52,2-8Z"/>
      <path class="cls-2" d="M313.01,287l2,3c-.22-.03-1.98,1.79-4.34.89-2-.76-1.51-2.82-1.66-2.89,1.23.48,2.48-.91,3-1,.32-.06.67.03,1,0Z"/>
      <path class="cls-2" d="M858.01,287c2.05.22,6.63-2.83,5.02,1.5-.46,1.23-3.85,1.21-5.02,1.5v-3Z"/>
      <path class="cls-2" d="M716.01,287c7.1.88,4.61,3-1,3l1-3Z"/>
      <path class="cls-2" d="M211.01,264c-9.04-6.09-1.34-5.56-1.13-6.06.54-1.27.03-3.26,1.13-5.94-.93,4.16-.05,8.22,0,12Z"/>
      <path class="cls-2" d="M807.01,260c.44-.1,4.84-6.04,6,0-1.69-.36-4.15.26-6,0,2.54,1.55,1.56.94,3,3-1.33,0-2.67-.01-4,0,.25-2.12.12-2.25-2-2,.58-.12,1.68-.71,3-1Z"/>
      <path class="cls-2" d="M263.01,288c.5.19,1.5-.19,2,0,1.35.53,2.77,1.21,4,2-1.12.14-2.84.1-4,0-1.31-.11-2.68.09-3.99,0-.29-2.14-.07-2.21,1.99-1.99Z"/>
      <path class="cls-2" d="M325.01,246c.76-3.73,4.18-4.89,5-1l-5,1Z"/>
      <path class="cls-2" d="M887.01,265c-.02.38.8,4.39,1,5-3.39.42-4.35-6.31-1-5Z"/>
      <path class="cls-2" d="M315.01,287c.17.46.51.9,1,1s1.48.08,2,0v2c-.98-.06-2.03.13-3,0l-2-3c.56-.05,1.5-.11,2,0Z"/>
      <path class="cls-2" d="M1016.01,178c.33-2.93-1.03-6.43,1-9,.33,3.54.11,5.63-1,9Z"/>
      <path class="cls-2" d="M963.01,294c0,.11,1.75,1.48,1,1.99-.97.67-5.25.42-4-1.99h3Z"/>
      <path class="cls-2" d="M666.01,259c2.13-.45,5.53-3.04,5,1-1.63-.49-3.29-.9-5-1Z"/>
      <path class="cls-2" d="M325.01,260c-.02.5-.99,1.48-1,2-1.15.45-2.56-.95-3-1v-1c.7.33,2.94-.23,4,0Z"/>
      <path class="cls-2" d="M142.01,282c-.31,5.56,1.36,6.86-4,8,1.86-3.18,3.18-1.92,4-8Z"/>
      <path class="cls-2" d="M900.01,288c-.68.55,1.69,1.49-3,2l3-2Z"/>
      <path class="cls-2" d="M211.01,285c2.12-.25,2.25-.12,2,2-.37-.55-1.4,1.57-2-2Z"/>
      <path class="cls-2" d="M854.01,290c-.35.02-2.39,3.02-2-1,.61.27,1.59.02,2,1Z"/>
      <path class="cls-2" d="M415.01,265c2.75-.29,1.78.11,2,2-3.12.44-1.55-.69-2-2Z"/>
      <path class="cls-2" d="M760.01,265c.16.18,1.87-.26,1.99.03.48,1.1-.93,1.74-.99,1.97l-1-2Z"/>
      <path class="cls-2" d="M399.01,118c-.63.28,1.73,1.23-2,2-.36-1.82.21-2.29,2-2Z"/>
      <path class="cls-2" d="M399.01,290c-.11-.02-.76,1.42-1.96.98-.29-.11.1-1.87-.04-1.98l2,1Z"/>
      <path class="cls-2" d="M135.01,288c-.07.65.05,1.34,0,2-.62.11-1.36-.07-2,0v-2c.67,0,1.33,0,2,0Z"/>
      <path class="cls-2" d="M756.01,270c-.81,1.54-2.66.89-4,1,.8-1.51,2.65-.93,4-1Z"/>
      <path class="cls-2" d="M405.01,114c-.39.36.58.2-2,2-.28-2.06-.06-2.29,2-2Z"/>
      <path class="cls-2" d="M843.01,261c3.1-.71,1.63,1.64,2,2-2,.29-2.22-.08-2-2Z"/>
      <path class="cls-2" d="M666.01,262c1.52-1.88,2.39-1.26,2,1-.08-.07-1.89-.98-2-1Z"/>
      <path class="cls-2" d="M802.01,261h-3c1,.03,2-.02,3,0Z"/>
      <path class="cls-2" d="M1222.01,167l-3,1c1.19-1.35,1.66-.77,3-1Z"/>
      <path class="cls-2" d="M659.01,261h-3c.97.05,2.04.09,3,0Z"/>
      <path class="cls-2" d="M713.01,290c-1.03,1.4-1.6.06-2,0,.67.01,1.33-.02,2,0Z"/>
      <path class="cls-2" d="M411.01,269v-2c.07.3,2.21,1.41,0,2Z"/>
      <path class="cls-2" d="M21.01,288c-1.29-.25-1.26-.57-2-1l2,1Z"/>
      <path class="cls-2" d="M798.01,270l1-2c-.27,1.01-.98,1.89-1,2Z"/>
      <path class="cls-2" d="M887.01,264c.04-.26.78-.63,1-1l-1,1Z"/>
      <path class="cls-2" d="M800.01,265l1-1c-.31.31-.83.72-1,1Z"/>
      <path class="cls-2" d="M330.01,262v-1c0,.35,0,.68,0,1Z"/>
      <path class="cls-2" d="M1128.01,168c.3-.38.52-.8,1-1l-1,1Z"/>
      <path class="cls-2" d="M712.01,287c.32.07.68-.07,1,0h-1Z"/>
      <path class="cls-2" d="M963.01,169l1-1c-.28.1-.62.79-1,1Z"/>
      <path class="cls-2" d="M896.01,288c.11-.04.96-.89,1-1l-1,1Z"/>
      <path class="cls-2" d="M450.01,261l1-1c-.31.12-.62.8-1,1Z"/>
      <path class="cls-2" d="M415.01,264c-.26-.34-.88-.68-1-1,.24.35.92.72,1,1Z"/>
      <path class="cls-2" d="M257.01,289c-.38-.24-.66-.7-1-1,.42.06.85.58,1,1Z"/>
      <path class="cls-2" d="M803.01,263h1c-.4.02-.95-.02-1,0Z"/>
      <path class="cls-2" d="M169.01,259h-1c.09-1.3.97-1.29,1,0Z"/>
      <path class="cls-2" d="M960.01,170c-.07-.34.1-.74,0-1v1Z"/>
      <path class="cls-2" d="M173.01,261c-.43-.07-.83-.58-1-1,.38.23.67.69,1,1Z"/>
      <path class="cls-2" d="M330.01,258v-1c.01.36,0,.68,0,1Z"/>
      <path class="cls-2" d="M659.01,264l1-1c-.26.13-.67.7-1,1Z"/>
      <path class="cls-2" d="M1196.01,151c-.45,2.37.51,13.5,0,14.01-2.42,2.42-60.23-1.88-68.4.02-1.15.12-.46-1.32-.61-2.02,8-1.82,64.63,2.37,67.01,0,1.12-1.12-2.35-12.25,1.99-12.01Z"/>
      <path class="cls-2" d="M968.01,150v14.99c-1.28.49-1.84-.95-2-.99.65-6.12-1.92-10.08,2-14Z"/>
      <path class="cls-2" d="M1269.01,164c-5.78,1.86-12.92.99-19,1,5.78-1.86,12.92-.99,19-1Z"/>
      <path class="cls-2" d="M1215.01,148c5.25.95,2.23,11.04,3,15-2.65-5.19.96-10.3-3-15Z"/>
      <path class="cls-2" d="M1017.01,162c-2.41-3.21-.22-8.55-1-12,2,3.35.81,8.19,1,12Z"/>
      <path class="cls-2" d="M1052.01,161c.21-4.03-.39-5.76,1-10l-1,10Z"/>
      <path class="cls-2" d="M1299.01,164c-.88-2.98,3.78-3.18,3,0-1.05,0-1.98,0-3,0Z"/>
      <path class="cls-2" d="M1074.01,160c-.97-2.69-2.3-5.4,0-8,.3,2.6-.21,5.38,0,8Z"/>
      <path class="cls-1" d="M996.01,148l-3,2c.83-4.84,2.55-1.97,3-2Z"/>
      <path class="cls-1" d="M987.01,148c.28.02,2.16-3.06,3,2l-3-2Z"/>
      <path class="cls-1" d="M1014.01,148c1.67-1.76,2.33-1.33,2,1-.06-.1-1.89-.97-2-1Z"/>
      <path class="cls-2" d="M1219.01,165l-1-1c.15.31.77.61,1,1Z"/>
      <path class="cls-1" d="M1196.01,150c.15-.42.63-.76,1-1l-1,1Z"/>
      <path class="cls-2" d="M964.01,163c-.16-.25-.88-.49-1-1l1,1Z"/>
      <path class="cls-2" d="M316.01,288c-.49-.1-.83-.54-1-1,.44.09.81.59,1,1Z"/>
    </g>
  </g>
</svg>