<?xml version="1.0" encoding="UTF-8"?>
<svg id="Layer_2" data-name="Layer 2" xmlns="http://www.w3.org/2000/svg" viewBox="0 0 544.71 545.41">
  <defs>
    <style>
      .cls-1 {
        fill: #cbcccd;
      }

      .cls-2 {
        fill: #faf9f9;
      }

      .cls-3 {
        fill: #0d0706;
      }
    </style>
  </defs>
  <g id="Layer_1-2" data-name="Layer 1">
    <g>
      <path class="cls-3" d="M405.07,34.08c184.85,102.07,186.03,367.99,4.47,473.2C190,634.47-65.16,422.23,15.12,183.87,68.19,26.28,255.16-48.7,405.07,34.08ZM318.14,50.35c-1.54.59-3.21.22-4.72.8-14.19,5.41-28.4,12.8-43.34,15.47-14.63-5.36-29.31-10.66-43.85-16.23-10.21-3.91-23.23-11.06-33.36-13.63-7.2-1.83-11.05.26-17.65,3.01-20.4,8.48-45.99,24.21-63.36,38.3-9.69,7.87-19.83,17.55-27.22,27.33,1.24,8.89.33,17.88.81,26.78,1.14,21.14,3.35,42.65,4.02,63.97.37,11.69-1.51,11.88-7.69,19.94-12.67,16.56-27.41,32.69-41.29,48.41-4.01,4.54-6.94,9.85-11.72,14.04-1.69,1.48-5.19,2.48-6.09,3.41-2.43,2.51-.74,18.88-.21,23.2,3.48,28.09,15.11,61.91,28.85,85.36,1.42,2.43,4.62,11.12,8.34,9.98,3.37-1.03,4.49-2.71,3.72-6.22-.81-3.7-10.09-19.06-12.57-23.46-.54-.96-10.37-13.65-2.91-11.13,1.77.6,8.7,11.91,10.58,14.22,2.7,3.31,16.98,20.74,19.21,22.13,2.43,1.52,12.99,4.2,16.68,5.23,19.75,5.53,44.48,8.93,63.23,15.77,6.53,2.38,10.05,6.86,13.74,12.47,12.13,18.45,22.09,38.87,34.47,57.3,4.6,5.32,41.92,16.51,43.39,19.12.61,1.08,1.09,4.08-1.25,3.78-7.41-.96-24.29-7.77-30.84-5.79-3.48,1.05-3.8,8.67-3.69,11.8,24.16,4.66,48.72,7.26,73.55,6.05,4.91-.24,9.76-1.66,14.87-1.13l27.62-5.38c2.56-1.79.22-11.41-2.71-12.4-1.31-.44-10.63.71-12.6,1.09-4.18.81-15.4,5.82-18.31,5.75-5.67-.14-.16-4.42,2.35-5.71,10.21-5.29,23.17-8,32.92-13.08,7.56-3.94,21.08-27.85,26.21-36.01,5.4-8.58,15.11-29.01,22.15-34.59,1.51-1.2,2.86-1,4.17-1.67,5.86-2.99,12.11-3.54,18.82-5.37,20.67-5.64,41.39-11.18,62.01-16.99,10.76-10.22,19.51-22.23,29.54-33.46l2.41.41-15.97,30.03c-1.8,6.37,4.41,9.74,8.4,4.39,3.4-4.56,9.16-17.52,11.75-23.25,10.19-22.58,21.81-60.53,21.92-85.16.03-6.84-2.19-6.36-6.51-10.13-14.18-12.4-26.7-30.38-38.95-44.97-6.85-8.16-21.82-21.05-23.39-31.15-1.77-11.33,2.2-32.3,2.8-44.72.36-7.32-.39-14.76-.08-22.08.28-6.66,3.68-27.68,1.52-32.44-17.94-18.96-37.4-35.85-60.16-48.84-9-5.14-21.88-11.96-31.35-15.65-2.44-.95-6.58-2.72-8.93-3.12-6.99-1.19-18.11,5.73-24.84,8.29-4.88,1.86-10.31,4.36-14.5,5.96Z"/>
      <path class="cls-2" d="M318.14,50.35c4.19-1.61,9.62-4.11,14.5-5.96,6.73-2.56,17.85-9.48,24.84-8.29,2.34.4,6.49,2.16,8.93,3.12,9.47,3.69,22.35,10.51,31.35,15.65,22.76,12.99,42.22,29.88,60.16,48.84,2.16,4.76-1.24,25.78-1.52,32.44-.31,7.32.44,14.76.08,22.08-.6,12.42-4.57,33.39-2.8,44.72,1.58,10.1,16.54,22.99,23.39,31.15,12.25,14.59,24.76,32.57,38.95,44.97,4.31,3.77,6.54,3.29,6.51,10.13-.11,24.64-11.73,62.59-21.92,85.16-2.59,5.73-8.35,18.69-11.75,23.25-3.99,5.35-10.19,1.98-8.4-4.39l15.97-30.03-2.41-.41c-10.03,11.23-18.78,23.24-29.54,33.46-20.62,5.81-41.34,11.36-62.01,16.99-6.71,1.83-12.97,2.39-18.82,5.37-1.31.67-2.66.48-4.17,1.67-7.04,5.58-16.75,26-22.15,34.59-5.13,8.16-18.65,32.07-26.21,36.01-9.74,5.08-22.71,7.8-32.92,13.08-2.51,1.3-8.01,5.57-2.35,5.71,2.91.07,14.13-4.93,18.31-5.75,1.97-.38,11.29-1.53,12.6-1.09,2.93.99,5.28,10.62,2.71,12.4l-27.62,5.38c-5.12-.53-9.96.89-14.87,1.13-24.83,1.21-49.39-1.39-73.55-6.05-.1-3.13.21-10.74,3.69-11.8,6.55-1.98,23.43,4.83,30.84,5.79,2.34.3,1.86-2.7,1.25-3.78-1.47-2.61-38.79-13.8-43.39-19.12-12.39-18.43-22.35-38.85-34.47-57.3-3.69-5.62-7.21-10.09-13.74-12.47-18.75-6.84-43.48-10.24-63.23-15.77-3.68-1.03-14.24-3.71-16.68-5.23-2.23-1.39-16.51-18.82-19.21-22.13-1.88-2.31-8.81-13.62-10.58-14.22-7.45-2.52,2.37,10.17,2.91,11.13,2.47,4.41,11.76,19.77,12.57,23.46s-.35,5.19-3.72,6.22c-3.71,1.14-6.91-7.55-8.34-9.98-13.74-23.44-25.37-57.26-28.85-85.36-.54-4.32-2.22-20.69.21-23.2.9-.93,4.4-1.92,6.09-3.41,4.78-4.19,7.7-9.5,11.72-14.04,13.88-15.71,28.62-31.85,41.29-48.41,6.18-8.07,8.06-8.25,7.69-19.94-.67-21.32-2.88-42.83-4.02-63.97-.48-8.9.43-17.89-.81-26.78,7.39-9.78,17.52-19.46,27.22-27.33,17.36-14.09,42.95-29.82,63.36-38.3,6.6-2.74,10.45-4.83,17.65-3.01,10.13,2.57,23.15,9.72,33.36,13.63,14.54,5.57,29.22,10.87,43.85,16.23,14.94-2.67,29.15-10.06,43.34-15.47,1.51-.58,3.18-.21,4.72-.8ZM180.44,53.69c-1.64-1.68-20.73,5.12-23.99,6.51-18.84,8.08-41.77,26.01-47.01,46.48l18.77-19c11.55-8.79,23.19-18.07,35.49-24.26,4.14-2.09,13.04-4.46,16.14-6.64,1.19-.84.46-1.96.6-3.08ZM273.43,99.69c-1.91-2.31-4.46,7.62-4.73,8.76-3.31,14.61-2.45,30.8-7.68,44.86l-83.53,59.92c-6.6,2.21-48.89-8.86-51.06-6.55l.18,3.84c8.7,4.19,18.04,7.57,26.71,11.77,3.95,1.91,19.22,9.09,20.74,11.74,8.64,26.07,17.08,52.21,25.04,78.47,2,6.6,6.25,13.48,5.28,20.64-5.66,13.09-14.11,25.03-20.1,37.9-1.17,2.52-5.87,12.12.29,7.52,12.2-9.09,23.91-26.88,35.98-36.22,1.16-.9,2.2-1.92,3.63-2.41l92.82-.32c7.63.76,6.58,3.43,10.45,7.27,9.6,9.51,18.94,20.38,28.94,29.34,1.47,1.32,3.99,3.31,6.04,3.45.89-.96-6.91-16.9-8.08-19.2-.44-.87-1.59-.88-2.19-2.06-2.58-5.11-11.58-21.38-12.52-25.44-1.61-6.97,3.31-15.76,5.29-22.29,6.74-22.16,13.67-48.81,21.99-70.01.7-1.78,2.52-6.28,3.47-7.53,1.78-2.35,15.68-8.82,19.36-10.64,4.73-2.32,24.61-10.01,26.64-12.36,1.08-1.26,1.3-1.72,1.03-3.46-2.78.03-5.59-.17-8.38.12-9.14.95-20.05,4.46-29.2,5.8-3.69.54-10.81,1.41-14,.15l-80.35-56.64c-6.68-4.73-5.06-12.34-6.18-18.82-2.15-12.46-4.91-25.03-5.9-37.6ZM326.43,168.68c1.14-1.09-5.88-8.13-6.99-6.99-.52,2.38,5.52,8.4,6.99,6.99ZM453.82,227.3c-3.1-3.56-10.78-15.9-15.42-15.21-20.13,9.54-39.48,20.62-58.95,31.36-.74,2.05-.64,4.37-1.33,6.42-7.44,21.75-14.77,43.2-20.98,64.02-1.02,3.43-4.47,9.88-4.8,13.28-.24,2.55,2.04,8.06,3.17,10.73,2.7,6.36,7.71,13.22,10.82,19.59,2.69,5.51,10.04,19.08,8.85,24.41-2.32,10.37-13.77,13.7-22.11,7.6-10.48-7.67-21.13-23.96-31.63-32.05-5.42-4.18-13.54-4.46-20.46-4.81-18.55-.93-46.91-1.57-65.08,0-11.24.97-17.03,9.16-24.98,16.02-9.9,8.54-20.05,19.2-30.28,26.96-9.15,6.95-7.55,3.29-15.97.32-41.43-14.61-80.26-37.91-112.83-66.63-2.92-2.58-10.05-11.56-12.92-12.62-2.27-.83-1.69,3.13-1.42,4.42,2.3,10.78,24.93,38.28,32.93,48.02,19.22,23.39,29.04,19.39,56.24,26.81,11.81,3.22,40.2,9.74,48.15,17.9,1.97,2.02,4.49,8.08,6.28,10.72,7.79,11.5,15.36,23.18,23.09,34.9,3.27,4.96,6.66,11.65,9.91,16.1,5.92,8.12,24.19,13.12,33.53,16.44,7.09,2.52,12.07,3.86,19.1,5.72.81.22.67,1.74,1.4,1.93,4.49,1.12,6.14-.99,9.12-1.66,11.97-2.72,24.82-7.38,35.96-12.23,19.7-8.58,24.86-24.84,35.89-41.96,5.67-8.8,15.38-26.63,23-33.01,8.66-7.26,39.79-12.3,52.19-15.76,8.3-2.32,30.5-7.83,37.08-11.96,1.61-1.01,10.43-10.36,12.42-12.5,15.49-16.7,32.53-39.78,35.61-62.43.44-3.26.47-11.56-.23-14.67-1.02-4.56-4.96-6.18-7.36-9.18-15.34-19.18-31.66-38.26-47.98-56.97Z"/>
      <path class="cls-1" d="M453.82,227.3c16.31,18.71,32.64,37.8,47.98,56.97,2.4,3,6.34,4.62,7.36,9.18.69,3.11.67,11.41.23,14.67-3.07,22.65-20.12,45.73-35.61,62.43-1.99,2.15-10.82,11.5-12.42,12.5-6.58,4.13-28.79,9.64-37.08,11.96-12.39,3.46-43.52,8.5-52.19,15.76-7.62,6.39-17.33,24.21-23,33.01-11.03,17.12-16.19,33.38-35.89,41.96-11.15,4.86-24,9.52-35.96,12.23-2.97.67-4.62,2.78-9.12,1.66-.73-.18-.59-1.71-1.4-1.93-7.03-1.86-12.02-3.21-19.1-5.72-9.34-3.32-27.61-8.32-33.53-16.44-3.25-4.45-6.63-11.14-9.91-16.1-7.73-11.72-15.3-23.4-23.09-34.9-1.79-2.64-4.31-8.7-6.28-10.72-7.95-8.15-36.34-14.68-48.15-17.9-27.2-7.42-37.02-3.42-56.24-26.81-8-9.74-30.63-37.24-32.93-48.02-.28-1.29-.85-5.25,1.42-4.42,2.88,1.06,10,10.04,12.92,12.62,32.57,28.73,71.4,52.03,112.83,66.63,8.42,2.97,6.82,6.63,15.97-.32,10.22-7.76,20.37-18.42,30.28-26.96,7.95-6.86,13.74-15.04,24.98-16.02,18.17-1.58,46.52-.93,65.08,0,6.92.35,15.05.63,20.46,4.81,10.5,8.1,21.15,24.38,31.63,32.05,8.34,6.1,19.79,2.77,22.11-7.6,1.19-5.33-6.16-18.9-8.85-24.41-3.11-6.37-8.12-13.23-10.82-19.59-1.13-2.67-3.41-8.18-3.17-10.73.32-3.4,3.77-9.85,4.8-13.28,6.21-20.82,13.54-42.27,20.98-64.02.7-2.04.59-4.37,1.33-6.42,19.47-10.74,38.82-21.82,58.95-31.36,4.64-.69,12.32,11.66,15.42,15.21ZM429.28,230.55c1.65-2.94-2.5-4.97-4.91-3.44-8.17,6.65-30,14.26-35.4,22.62-3.47,5.37-7.98,21.74-10.26,28.74-1.17,3.57-9.25,27.1-8.28,28.21,1.5,1.73,6.8-8.21,7.35-9.14,13.39-23.07,17.24-39.36,38.3-57.66,2.07-1.8,12.81-8.62,13.2-9.33ZM295.94,359.68h-55c-2.3,0-12.59,3.86-14.69,6.02l-42.62,42.62c-2.26,6.94,5.03,13.02,8.22,18.45,1.62,2.75,3.12,6.5,4.75,9.23,4.98,8.31,10.45,16.34,15.36,24.68,2.17.39,1.51-1.01,1.53-2.53.11-9.05-13.57-28.52-14.92-40.08-.84-7.21.88-7.73,4.9-12.87,4.87-6.22,24.9-30.17,30.31-32.69,3.21-1.5,6.86-2.09,10.33-2.67,16.07-2.67,34.83-2.65,50.58-6.44,3.08-.74,4.23-2.87,1.27-3.72Z"/>
      <path class="cls-3" d="M273.43,99.69c1,12.56,3.76,25.13,5.9,37.6,1.12,6.49-.5,14.09,6.18,18.82l80.35,56.64c3.19,1.26,10.31.39,14-.15,9.15-1.34,20.06-4.85,29.2-5.8,2.79-.29,5.59-.09,8.38-.12.27,1.74.05,2.21-1.03,3.46-2.03,2.36-21.91,10.04-26.64,12.36-3.69,1.81-17.58,8.29-19.36,10.64-.95,1.25-2.77,5.75-3.47,7.53-8.33,21.2-15.26,47.84-21.99,70.01-1.99,6.53-6.91,15.32-5.29,22.29.94,4.05,9.94,20.32,12.52,25.44.59,1.18,1.74,1.18,2.19,2.06,1.17,2.3,8.96,18.24,8.08,19.2-2.05-.14-4.56-2.13-6.04-3.45-9.99-8.97-19.33-19.84-28.94-29.34-3.88-3.84-2.83-6.51-10.45-7.27l-92.82.32c-1.43.49-2.47,1.51-3.63,2.41-12.07,9.34-23.78,27.13-35.98,36.22-6.16,4.59-1.46-5.01-.29-7.52,5.98-12.87,14.44-24.81,20.1-37.9.98-7.16-3.28-14.04-5.28-20.64-7.96-26.26-16.4-52.4-25.04-78.47-1.53-2.65-16.8-9.83-20.74-11.74-8.67-4.2-18.01-7.58-26.71-11.77l-.18-3.84c2.17-2.31,44.46,8.76,51.06,6.55l83.53-59.92c5.23-14.06,4.37-30.25,7.68-44.86.26-1.15,2.82-11.07,4.73-8.76Z"/>
      <path class="cls-3" d="M180.44,53.69c-.14,1.13.59,2.25-.6,3.08-3.1,2.18-12,4.56-16.14,6.64-12.3,6.19-23.93,15.47-35.49,24.26l-18.77,19c5.24-20.46,28.17-38.4,47.01-46.48,3.25-1.39,22.35-8.19,23.99-6.51Z"/>
      <path class="cls-1" d="M326.43,168.68c-1.47,1.41-7.51-4.61-6.99-6.99,1.11-1.14,8.13,5.9,6.99,6.99Z"/>
      <path class="cls-2" d="M295.94,359.68c2.96.85,1.81,2.97-1.27,3.72-15.75,3.79-34.51,3.77-50.58,6.44-3.47.58-7.12,1.17-10.33,2.67-5.41,2.52-25.43,26.47-30.31,32.69-4.02,5.14-5.75,5.66-4.9,12.87,1.35,11.56,15.04,31.04,14.92,40.08-.02,1.52.64,2.92-1.53,2.53-4.91-8.34-10.38-16.37-15.36-24.68-1.63-2.73-3.13-6.48-4.75-9.23-3.2-5.43-10.48-11.51-8.22-18.45l42.62-42.62c2.1-2.16,12.39-6.02,14.69-6.02h55Z"/>
      <path class="cls-2" d="M429.28,230.55c-.4.7-11.13,7.52-13.2,9.33-21.06,18.3-24.91,34.59-38.3,57.66-.54.93-5.84,10.88-7.35,9.14-.96-1.11,7.12-24.64,8.28-28.21,2.28-7,6.79-23.37,10.26-28.74,5.4-8.36,27.23-15.97,35.4-22.62,2.4-1.53,6.56.51,4.91,3.44Z"/>
    </g>
  </g>
</svg>