<?xml version="1.0" encoding="UTF-8"?>
<svg id="Layer_2" data-name="Layer 2" xmlns="http://www.w3.org/2000/svg" viewBox="0 0 377.14 473.8">
  <defs>
    <style>
      .cls-1 {
        fill: #cbcccd;
      }

      .cls-2 {
        fill: #0a0504;
      }

      .cls-3 {
        fill: #e92027;
      }

      .cls-4 {
        fill: #f9f8f8;
      }
    </style>
  </defs>
  <g id="Layer_1-2" data-name="Layer 1">
    <g>
      <path class="cls-2" d="M151.77,45.39c11.38-14.15,22.68-28.31,34.55-42.04.74-.86,2.05-4.47,3.54-3.01l39.47,45.05h115.43v106.5c0,.11.39.47.3.76h22.87c4.43,0,7.82,6.39,8.26,10.22,2.88,25.23-1.99,55.64.04,81.4-.59,4.51-2.19,7.93-5.53,10.97l-25.82,14.63-.12,98.35c-1.18,13.6-13.75,18.35-23.4,24.69-22.69,14.93-45.5,29.18-68.17,43.63-16.38,10.44-33.12,22.76-49.85,32.41-19.85,11.44-28.35.32-44.25-9.67-39.09-24.56-78.18-50-117.39-74.84-5.29-4.11-8.81-9.73-9.63-16.51l-.12-98.05c-6.93-4.13-13.9-8.2-21.14-11.8-6.96-4.38-9.55-6.98-10.21-15.62-1.96-25.7,1.55-53.73-.04-79.67-.31-3.5,4.95-10.14,8.35-10.14h22.87c-.09-.29.3-.65.3-.76V45.39h119.68ZM170.25,92.96l17.57-73.62-56.95,73.47,27.72-12.61,11.66,12.76ZM139.65,59.94H46.34v91.2l9.29-12.22c15.38-22.47,31.19-44.69,47.18-66.75,1.11-.6,2.56-.21,3.61-.43,5.69-1.18,11.96-2.33,17.7-3.31,2.37-.4,7.47-.46,9.53-1.25,1.11-.42,4.69-6.15,6.01-7.25ZM330.22,59.94h-88.17l14.74,16.62c2.45-.32,10.24-5.73,12.14-4.41l61.29,78.98V59.94ZM127.83,75.69c-6.42,1.19-13.19,1.68-19.31,3.72l-25.53,36.27,44.84-39.99ZM266.6,81.75l-63.92,30.29c12.75-2.06,24.86-5.24,37.34-7.59.24-.04.24-.53.45-.57,1.55-.3,3.58.18,4.78-.94l12.26,9.71,9.09-30.9ZM136.83,128.52c-7.35-1.25-9.47,9.08-4.53,12.32.95.62,4.69,1.45,5.16,2.19,1.76,2.77.38,8.32-3.56,6.14-1.38-.76.49-4.02-4.24-2.88-.47,5.84,3.91,8,9.15,6.34,3.06-.97,3.34-8.19,2.26-10.77-1.57-3.74-9.26-1.87-7.63-8.3.53-2.08,3.43-2.13,4.15-.47.87,2.03-.55,3.41,3.76,2.32.57-1.96-.5-5-2.23-6.05-.1-.06-2.16-.81-2.28-.83ZM182.07,129.17v23.33c0,.67,3.64.67,3.64,0v-13.18c2.06,2.14,3.9,13.14,6.49,13.65.46.09,2.18.09,2.46-.3l.15-23.47c-1.09-.68-1.9-1.09-3.29-.73-.04.02-.36.66-.36.7v12.88c-2.68-1.42-4.11-16.28-8.73-13.58-.04.03-.33.59-.36.7ZM239.63,129.02v23.63c0,.19,3.64.69,3.64-.15v-23.33c0-1.45-3.49-.65-3.64-.15ZM113.75,129.02c-.62-.27-10.03,0-11.66,0v3.03c.94.21,4.24-.61,4.24.76v19.69c0,.67,3.33.67,3.33,0v-19.84c0-.69,3.56-.58,4.26-.74.5-.37.47-2.62-.17-2.9ZM122.33,129.07c-.27-.15-2.43-.14-2.77,0-2.42,7.58-3.91,15.91-5.36,23.88,5.74,1.78,2.6-5.02,5.57-5.48,6.46-.99.93,7,7.76,5.48-1-2.68-4.14-23.29-5.21-23.88ZM149.35,152.95v-13.48c0-.17.44-.61.76-.16,1.24,1.78,1.46,7.87,3.64,9.73,1.89.4,3.53-7.65,3.99-9.07.17-.51-.12-.79.7-.65v13.18c0,.67,3.64.67,3.64,0v-23.48c-.64.13-3.37-.19-3.62.02-.52.42-3.26,11.28-4.11,12.71-.79.08-3.86-11.48-4.72-12.25-.7-.62-3.34-.79-3.78-.2-.79,1.08.33,20-.13,22.89.32,1.38,2.52.55,3.64.76ZM173.89,129.01h-3.64c.23,2.37-5.66,23.37-4.34,23.89,4.79,1.86,2.74-4.98,4.8-5.43,6.06-1.31,3.03,4.01,4.9,5.2.6.38,2.74.59,3.1-.23.64-1.45-4.87-20.25-4.82-23.43ZM216.46,129.02c-2.22-.43-5.66.32-8.03,0v23.63c0,.17,3.33.17,3.33,0v-9.09c3.93.05,7.4-.93,8.1-5.38.39-2.45-.35-8.58-3.41-9.16ZM231.91,129.02c-2.39-.41-5.82.3-8.33,0v23.63c0,.18,3.64.18,3.64,0v-10c.47.09,1.89-.15,2.1.02.41.32,2.59,9.62,3.09,9.94.46.29,2.83-.12,3.59.04.42-.36-3.34-9.02-3.28-10.47.05-1.21,2.22-2.01,2.6-4,.5-2.63-.08-8.59-3.41-9.16ZM255.54,129.02c-2.14-.36-5.17.27-7.42,0v23.48l.45.45h5.15c1.82,0,4.84-1.76,5.46-3.63.72-2.18.77-14.53.14-16.82-.26-.93-2.8-3.32-3.78-3.49ZM274.48,129.02h-9.85l-.45.45v23.18c1.81.15,8.88.8,10.11.26.95-.42.34-2.69.5-3.59h-6.51l-.45-.45v-6.06s.26-.76.3-.76h5.76c-.02-.49.21-3.03-.45-3.03h-5.61v-6.21c0-.11.39-.47.3-.76h6.36v-3.03ZM78.45,133.56c-2.28-.15-5.09.88-4.54,3.64l2.12-.91v11.82h2.42v-14.54ZM88.06,133.95c-.8-.57-4.26-.61-4.77.13-1.08,1.56-1.45,9.05,2.44,8.12l-2.12,5.9c.53-.1,1.71.19,2.08-.04.74-.45,3.76-9.78,3.7-11.01-.03-.55-.94-2.83-1.32-3.1ZM292.65,133.56c-.11-.09-1.97-.11-2.28.29-2.07,3.19-6.74,16.3,1.26,14.3,2.24-.56,2.36-5.21,1.77-7-.26-.77-2.31-2.6-2.86-1.23-.22-.99,2.38-6.13,2.12-6.36ZM300.83,133.56c-.15-.14-2.15.06-2.37.36-.3.41-2.71,9.05-2.79,9.78-.08.65.06,1.33.01,1.98,5.68-1.01,3.58,1.78,4.24,2.42,1.26,1.22,3.02-2.17,2.98-3.19s-.79-.99-.84-1.27c-.2-.95.45-3.22-.51-3.67-2.75-1.29-1.07,2.69-1.75,3.61-.25.34-1.57.39-1.68.28-.51-.49,3.11-9.93,2.72-10.3ZM118.44,222.48c.31-2.47-.23-5.5,0-8.03h-11.82v5.61c0,.19-1.46,3.15-1.92,3.37-.94.46-2.02.29-3.01.43-.24.03-.27.59-.38.59-1.25.09-4.34-2.13-4.62-3.54l.19-40.28c1.86-4.75,8.61-4.42,9.66.73.24,1.19-.21,6.28.44,6.69,3.76-.19,7.99.68,11.47-.56v-6.21c0-19.02-29.86-20.9-33.35-3.96-1.53,7.42-1.46,37.98-.27,45.76,2.72,17.89,31.43,16.8,33.62-.6ZM253.48,165.78c-27.52-3.97-22.98,27.31-22.33,45.5.36,10.15,1.49,22.98,14.41,24.37,32.24,3.46,18.57-38.4,20.92-57.28-1.56-5.63-7.01-11.73-13-12.59ZM37.85,166.58c-6.3-.71-13.86.53-20.3,0v68.17h11.82v-28.18l3.6.04,8.97,28.14h12.27l-10.3-30.47c8.03-4.44,9.05-14.02,8.19-22.41s-6.63-14.43-14.25-15.29ZM73.91,166.58h-12.12v68.17h12.12v-68.17ZM140.26,166.58h-11.82v68.17h11.82v-28.48h10v28.48h12.12v-68.17h-12.12v28.18h-10v-28.18ZM185.1,166.58h-11.82v68.17h12.12v-34.84c1.88,2.43,7.21,23.34,8.63,23.66.61.13,5.89.03,6.25-.22l8.15-22.22v33.63h12.12v-68.17h-11.82l-11.37,33.63-12.27-33.63ZM289.32,166.58h-11.82v68.17h11.82v-34.84l13.63,34.84h11.82v-68.17h-12.12v35.15l-13.33-35.15ZM345.68,166.58c-6.14-.74-13.7.55-20,0v68.17h19.54c7.45,0,14.11-9.3,14.72-16.17.7-7.88.88-32.79-.89-39.78-1.58-6.25-7.49-11.51-13.38-12.22ZM96.23,248.5c-3.35-.52-8.15,1.34-9.31,4.88-.97,2.93-.98,21.04-.1,24.08,1.89,6.53,15.07,6.39,16.18-1.93.43-3.2.49-17.83-.03-20.85-.47-2.75-4.06-5.75-6.75-6.17ZM117.44,248.49c-2.85-.42-7.38.97-8.77,3.93-1.56,3.33-1.69,20.14-.75,23.9,2.13,8.54,15.32,7.24,16.26-.83.45-3.82.49-17.71-.24-21.25-.56-2.71-3.83-5.35-6.51-5.75ZM249.33,272.63c-.17-.17-4.16,0-4.85,0-.14,0,.1,1.96-.17,2.71-.95,2.72-4.83,2.84-5.6-.43-.61-2.62-.64-17.85.38-19.95.4-.82,1.6-1.44,2.51-1.44,3.65-.02,2.56,4.87,2.88,4.87h4.85c2.85-10.29-13.42-13.16-15.44-4.98-.73,2.94-.67,21.21.12,24.08,1.8,6.54,13.98,6.26,15.24-1.14.09-.52.2-3.58.07-3.71ZM57.55,362.76v-113.31l-.45-.45h-10.45c-.27,39.59-.73,79.27.07,118.85,1.1,4.96,10.15,8.77,14.22,11.44,41.09,26.98,82.81,53.06,124.28,79.72,1.52.33,3.94.44,5.46.22,3.05-.44,20.34-12.85,24.36-15.39,38.03-24.08,76.48-48.16,113.97-73.28.05-1.18,1.23-2.05,1.23-3.24v-118.31h-10.45l-.45.45v113.01c0,.7-1.68,3.18-2.35,3.8-.98.92-18.61,12.29-19.71,12.69-.51.19-1.02.34-1.57.33v-88.01l-.45-.45h-15.3v99.07c-7.62,4.9-15.36,9.67-22.79,14.64l-1.45.21v-113.92h-15.45v55.6c0,.18-.43.67-.31,1.06l-.46-.3c-3.23-13.01-12.04-24.09-23.18-31.13l-.3-25.22h-15.75v18.48c-5.95-.8-12.41-1.5-18.65-.93-.52.05-.44.59-.65.62-1.42.15-2.91.15-4.33.31v-18.48h-16.06v25.45c-11.27,6.45-20.03,18.18-23.17,30.91l-.45.3c.13-.39-.31-.88-.31-1.06v-55.6h-15.45v113.92l-1.45-.21-22.79-14.64v-99.07h-15.3l-.45.45v88.01c-3.78-1.09-6.97-4.29-10.24-6.35-3.03-1.91-12.8-6.51-13.39-10.16ZM83.9,248.99h-14.09l-.45.45v32.27h5.45v-13.63h7.88c.4,0,.4-5.15,0-5.15h-7.88v-9.09h9.09v-4.85ZM136.93,253.84h5.3c.57,0,.85-4.41-.04-4.8-.74-.33-16.17-.55-16.17.26v4.24s.72.3.76.3h5.3v27.87h4.85v-27.87ZM153.74,248.99c-2.46-.23-5.23.17-7.73,0v32.72h10c.13,0,1.95-.81,2.18-.93,3.61-2.01,3.81-8.54,3.19-12.16-.31-1.83-2.03-3.25-2.08-4.03-.06-1.03,1.57-1.55,1.84-2.21.43-1.07.46-5.01.31-6.26-.52-4.54-3.46-6.73-7.72-7.13ZM182.67,281.72l-7.03-32.21c-.37-.72-3.43-.69-4.05-.53-1.63.42-6.26,29.12-7.71,32.74h5.15c.35,0,1.04-6.59,1.56-6.92.21-.13,4.6-.16,4.96-.07,1.29.33,1.59,6.99,1.96,6.99h5.15ZM190.25,248.99h-4.54v32.72h14.54v-4.54h-9.7c.09-.29-.3-.65-.3-.76v-27.42ZM209.34,248.99h-4.7c-.08,0-.3.35-.45.45v32.27h14.85v-4.54h-9.7v-28.18ZM259.33,277.17l-.35-27.68c-.34-.78-4.32-.77-5.11-.04v32.27h14.85v-4.54h-9.39ZM275.69,248.99h-4.85v27.12c0,6.26,11.58,8.26,14.53,2.63,3.14-5.99.17-21.85,1.23-28.99-.02-1.33-5.45-.74-5.45-.46v26.21c0,.52-1.56,1.8-2.3,1.85-.93.07-3.15-1.52-3.15-1.7v-26.66ZM299.17,248.99c-2.37-.22-5.02.16-7.42,0v32.72h10c5.29-2.12,6.45-7.76,5.38-13.41-.33-1.75-2.31-2.92-2.36-3.17-.16-.74,2.08-2.72,2.36-4.26,1.2-6.43-1.4-11.29-7.95-11.89Z"/>
      <path class="cls-3" d="M57.55,362.76c.59,3.65,10.36,8.25,13.39,10.16,3.27,2.07,6.46,5.26,10.24,6.35v-88.01l.45-.45h15.3v99.07l22.79,14.64,1.45.21v-113.92h15.45v55.6c0,.18.43.67.31,1.06l.45-.3c3.14-12.73,11.91-24.46,23.17-30.91v-25.45h16.06v18.48c1.42-.17,2.91-.16,4.33-.31.22-.02.13-.57.65-.62,6.24-.57,12.7.13,18.65.93v-18.48h15.75l.3,25.22c11.14,7.05,19.95,18.12,23.18,31.13l.46.3c-.13-.39.31-.88.31-1.06v-55.6h15.45v113.92l1.45-.21c7.43-4.96,15.17-9.73,22.79-14.64v-99.07h15.3l.45.45v88.01c.55.01,1.07-.14,1.57-.33,1.1-.41,18.73-11.78,19.71-12.69.67-.62,2.35-3.09,2.35-3.8v-113.01l.45-.45h10.45v118.31c0,1.19-1.17,2.06-1.23,3.24-37.49,25.12-75.94,49.2-113.97,73.28-4.02,2.54-21.31,14.95-24.36,15.39-1.52.22-3.94.12-5.46-.22-41.47-26.66-83.19-52.74-124.28-79.72-4.07-2.67-13.12-6.49-14.22-11.44-.8-39.57-.34-79.26-.07-118.85h10.45l.45.45v113.31ZM194.7,314.84c-40.63-4.1-68.4,39.36-44.24,74.06,21.31,30.61,70.54,23.43,82.34-12.38,9.1-27.62-9.32-58.78-38.1-61.69ZM136.62,375.64v39.54l22.36,14.67,1.57.33v-23.48c-11.01-6.98-20.11-18.09-23.03-31.06-.24.03-.87-.04-.91,0ZM240.24,375.64h-.91c-3.04,13.04-11.97,23.96-23.03,31.05v23.48l4.3-2.14,19.64-12.85v-39.54ZM176.62,413.51v27.57c4.43,1.93,8.43,7.02,13.71,6.04l9.92-6.04v-27.57c-8.09,1.43-15.79,1.34-23.63,0Z"/>
      <path class="cls-3" d="M330.22,59.94v91.2l-61.29-78.98c-1.9-1.32-9.69,4.09-12.14,4.41l-14.74-16.62h88.17Z"/>
      <path class="cls-3" d="M139.65,59.94c-1.32,1.1-4.9,6.82-6.01,7.25-2.05.79-7.16.84-9.53,1.25-5.74.98-12.01,2.13-17.7,3.31-1.05.22-2.51-.17-3.61.43-15.99,22.06-31.79,44.27-47.18,66.75l-9.29,12.22V59.94h93.32Z"/>
      <path class="cls-4" d="M185.1,166.58l12.27,33.63,11.37-33.63h11.82v68.17h-12.12v-33.63l-8.15,22.22c-.36.25-5.64.35-6.25.22-1.42-.32-6.75-21.22-8.63-23.66v34.84h-12.12v-68.17h11.82ZM185.25,199.31v.3l.15-.15-.15-.15Z"/>
      <polygon class="cls-4" points="289.32 166.58 302.65 201.73 302.65 166.58 314.77 166.58 314.77 234.75 302.96 234.75 289.32 199.91 289.32 234.75 277.51 234.75 277.51 166.58 289.32 166.58"/>
      <path class="cls-4" d="M37.85,166.58c7.63.86,13.42,7.14,14.25,15.29s-.16,17.97-8.19,22.41l10.3,30.47h-12.27l-8.97-28.14-3.6-.04v28.18h-11.82v-68.17c6.44.53,14-.71,20.3,0ZM36.64,177.49c-1.75-.45-5.29.33-7.27,0v17.72l.45.45h4.85c6.48,0,6.81-11.75,4.58-15.64-.09-.16-2.44-2.49-2.61-2.54Z"/>
      <polygon class="cls-4" points="140.26 166.58 140.26 194.76 150.26 194.76 150.26 166.58 162.38 166.58 162.38 234.75 150.26 234.75 150.26 206.27 140.26 206.27 140.26 234.75 128.44 234.75 128.44 166.58 140.26 166.58"/>
      <path class="cls-4" d="M345.68,166.58c5.89.71,11.8,5.97,13.38,12.22,1.76,6.99,1.58,31.89.89,39.78-.61,6.87-7.27,16.17-14.72,16.17h-19.54v-68.17c6.29.55,13.86-.74,20,0ZM337.5,178.4v44.39c0,.11.39.47.3.76h4.85c.12,0,1.77-.67,2.06-.81,1.6-.79,3.14-3.94,3.37-5.73.77-6.12.85-27.27.04-33.31-.67-4.97-6.23-6.6-10.62-5.29Z"/>
      <path class="cls-4" d="M253.48,165.78c5.99.86,11.44,6.96,13,12.59-2.35,18.87,11.32,60.74-20.92,57.28-12.92-1.39-14.05-14.22-14.41-24.37-.64-18.19-5.18-49.47,22.33-45.5ZM251.97,177.59c-4.18-1.71-8.23.96-8.69,5.21-.76,7.04-.96,29.89.02,36.63.64,4.34,5.74,5.91,9.26,4,.67-.37,2.1-2.53,2.24-3.36.79-4.82.77-33.64,0-38.5-.15-.96-2.12-3.7-2.82-3.99Z"/>
      <path class="cls-4" d="M118.44,222.48c-2.19,17.4-30.9,18.49-33.62.6-1.18-7.78-1.25-38.34.27-45.76,3.48-16.95,33.35-15.06,33.35,3.96v6.21c-3.48,1.24-7.71.37-11.47.56-.65-.4-.2-5.5-.44-6.69-1.04-5.15-7.8-5.48-9.66-.73l-.19,40.28c.28,1.41,3.37,3.63,4.62,3.54.11,0,.13-.56.38-.59.99-.14,2.07.03,3.01-.43.46-.23,1.92-3.18,1.92-3.37v-5.61h11.82c-.23,2.53.31,5.56,0,8.03Z"/>
      <polygon class="cls-4" points="170.25 92.96 158.59 80.2 130.87 92.81 187.82 19.34 170.25 92.96"/>
      <rect class="cls-4" x="61.79" y="166.58" width="12.12" height="68.17"/>
      <path class="cls-4" d="M266.6,81.75l-9.09,30.9-12.26-9.71c-1.2,1.11-3.23.64-4.78.94-.21.04-.21.52-.45.57-12.47,2.36-24.59,5.53-37.34,7.59l63.92-30.29Z"/>
      <path class="cls-4" d="M153.74,248.99c4.25.4,7.19,2.59,7.72,7.13.14,1.24.12,5.18-.31,6.26-.27.66-1.9,1.19-1.84,2.21.05.77,1.77,2.2,2.08,4.03.61,3.62.42,10.16-3.19,12.16-.23.13-2.05.93-2.18.93h-10v-32.72c2.5.17,5.26-.23,7.73,0ZM151.17,253.54v9.09c7.43,1.2,7.72-10.54,0-9.09ZM151.17,267.32c-.6,2.39.44,7.18,0,9.85,5.33,1.26,6.48-3.9,5.36-8.1-.38-1.42-4.98-3.31-5.36-1.75Z"/>
      <path class="cls-4" d="M299.17,248.99c6.55.61,9.15,5.46,7.95,11.89-.29,1.53-2.53,3.51-2.36,4.26.06.25,2.03,1.42,2.36,3.17,1.07,5.65-.08,11.28-5.38,13.41h-10v-32.72c2.4.16,5.05-.22,7.42,0ZM296.59,253.54v9.09c7.6,1.38,8.08-10.77,0-9.09ZM296.59,267.32c-.61,2.28.45,7.25,0,9.85,3.98.54,5.76-.88,5.77-4.99.02-4.48-1.42-5.07-5.41-5.55-.09.23-.3.5-.36.7Z"/>
      <path class="cls-4" d="M96.23,248.5c2.69.42,6.27,3.43,6.75,6.17.52,3.02.45,17.65.03,20.85-1.11,8.32-14.29,8.46-16.18,1.93-.88-3.03-.87-21.14.1-24.08,1.17-3.53,5.97-5.4,9.31-4.88ZM96.51,253.96c-1.73-.85-4.76-.18-5.05,1.84-.35,2.38-.4,16.94.04,19.08.57,2.8,5.01,3.42,6.11,1.01.87-1.92.87-18.81,0-20.75-.05-.11-1.02-1.13-1.09-1.17Z"/>
      <path class="cls-4" d="M117.44,248.49c2.68.4,5.94,3.05,6.51,5.75.74,3.54.69,17.43.24,21.25-.94,8.07-14.13,9.37-16.26.83-.94-3.77-.82-20.58.75-23.9,1.39-2.95,5.92-4.35,8.77-3.93ZM118.05,253.93c-1.3-.75-4.39-.51-4.98,1.03-.62,1.63-.64,19.82.03,21.2,1.06,2.2,5.75,1.55,6.27-1.56.35-2.12.38-16.77,0-18.81-.02-.11-1.23-1.81-1.32-1.87Z"/>
      <path class="cls-4" d="M275.69,248.99v26.66c0,.19,2.22,1.77,3.15,1.7.74-.06,2.3-1.33,2.3-1.85v-26.21c0-.29,5.43-.88,5.45.46-1.06,7.13,1.91,23-1.23,28.99-2.95,5.63-14.53,3.63-14.53-2.63v-27.12h4.85Z"/>
      <path class="cls-4" d="M127.83,75.69l-44.84,39.99,25.53-36.27c6.12-2.04,12.88-2.53,19.31-3.72Z"/>
      <path class="cls-4" d="M182.67,281.72h-5.15c-.37,0-.66-6.66-1.96-6.99-.36-.09-4.75-.07-4.96.07-.52.33-1.21,6.92-1.56,6.92h-5.15c1.46-3.63,6.08-32.32,7.71-32.74.62-.16,3.68-.19,4.05.53l7.03,32.21ZM171.16,270.2h4.54l-2.28-10-2.27,10Z"/>
      <path class="cls-4" d="M249.33,272.63c.13.13.02,3.2-.07,3.71-1.26,7.41-13.44,7.68-15.24,1.14-.79-2.87-.85-21.14-.12-24.08,2.02-8.18,18.29-5.3,15.44,4.98h-4.85c-.32,0,.78-4.89-2.88-4.87-.91,0-2.11.62-2.51,1.44-1.02,2.1-.99,17.33-.38,19.95.77,3.27,4.65,3.16,5.6.43.26-.75.03-2.71.17-2.71.69,0,4.68-.17,4.85,0Z"/>
      <path class="cls-4" d="M83.9,248.99v4.85h-9.09v9.09h7.88c.4,0,.4,5.15,0,5.15h-7.88v13.63h-5.45v-32.27l.45-.45h14.09Z"/>
      <path class="cls-3" d="M149.35,152.95c-1.12-.21-3.32.62-3.64-.76.46-2.89-.66-21.82.13-22.89.44-.6,3.08-.42,3.78.2.86.77,3.94,12.33,4.72,12.25.85-1.43,3.59-12.29,4.11-12.71.25-.2,2.97.11,3.62-.02v23.48c0,.67-3.64.67-3.64,0v-13.18c-.81-.13-.53.14-.7.65-.47,1.42-2.1,9.47-3.99,9.07-2.18-1.86-2.4-7.95-3.64-9.73-.32-.46-.76-.02-.76.16v13.48Z"/>
      <path class="cls-3" d="M182.07,129.17c.03-.11.32-.68.36-.7,4.62-2.7,6.05,12.16,8.73,13.58v-12.88s.32-.68.36-.7c1.39-.35,2.2.05,3.29.73l-.15,23.47c-.29.39-2,.39-2.46.3-2.6-.51-4.43-11.52-6.49-13.65v13.18c0,.67-3.64.67-3.64,0v-23.33Z"/>
      <path class="cls-4" d="M136.93,253.84v27.87h-4.85v-27.87h-5.3s-.76-.26-.76-.3v-4.24c0-.81,15.43-.58,16.17-.26.9.39.62,4.8.04,4.8h-5.3Z"/>
      <path class="cls-4" d="M259.33,277.17h9.39v4.54h-14.85v-32.27c.78-.73,4.76-.74,5.11.04l.35,27.68Z"/>
      <path class="cls-4" d="M209.34,248.99v28.18h9.7v4.54h-14.85v-32.27c.15-.1.37-.45.45-.45h4.7Z"/>
      <path class="cls-4" d="M190.25,248.99v27.42c0,.11.39.47.3.76h9.7v4.54h-14.54v-32.72h4.54Z"/>
      <path class="cls-3" d="M231.91,129.02c3.33.57,3.9,6.53,3.41,9.16-.37,1.99-2.55,2.78-2.6,4-.06,1.45,3.7,10.11,3.28,10.47-.76-.16-3.13.25-3.59-.04-.5-.31-2.68-9.61-3.09-9.94-.22-.17-1.64.08-2.1-.02v10c0,.18-3.64.18-3.64,0v-23.63c2.51.3,5.95-.41,8.33,0ZM227.21,132.05v6.82c0,.5,4.46,1.68,4.86-2.41.36-3.66-1.15-5.27-4.86-4.41Z"/>
      <path class="cls-3" d="M255.54,129.02c.97.16,3.52,2.56,3.78,3.49.63,2.29.59,14.63-.14,16.82-.62,1.87-3.63,3.63-5.46,3.63h-5.15l-.45-.45v-23.48c2.25.27,5.28-.36,7.42,0ZM251.75,132.05v17.27c.85.35,3.55-.42,3.94-1.12.94-1.69.96-13.53-.08-15.17-.52-.81-2.93-1.23-3.86-.98Z"/>
      <path class="cls-3" d="M136.83,128.52c.12.02,2.17.76,2.28.83,1.73,1.06,2.8,4.1,2.23,6.05-4.31,1.08-2.89-.29-3.76-2.32-.71-1.66-3.62-1.6-4.15.47-1.63,6.43,6.06,4.56,7.63,8.3,1.08,2.58.8,9.8-2.26,10.77-5.24,1.66-9.61-.49-9.15-6.34,4.73-1.14,2.86,2.12,4.24,2.88,3.95,2.18,5.32-3.38,3.56-6.14-.47-.74-4.21-1.57-5.16-2.19-4.94-3.23-2.82-13.56,4.53-12.32Z"/>
      <path class="cls-3" d="M122.33,129.07c1.07.59,4.21,21.2,5.21,23.88-6.83,1.52-1.31-6.47-7.76-5.48-2.97.46.17,7.26-5.57,5.48,1.45-7.97,2.94-16.3,5.36-23.88.35-.13,2.5-.15,2.77,0ZM121.17,136.59c-.73-.13-.57.08-.75.6-.27.75-1.65,7.04-1.37,7.28.17.15,2.77-.1,3.33,0l-1.21-7.88Z"/>
      <path class="cls-3" d="M173.89,129.01c-.05,3.19,5.46,21.98,4.82,23.43-.36.82-2.51.6-3.1.23-1.88-1.19,1.16-6.51-4.9-5.2-2.05.44,0,7.29-4.8,5.43-1.32-.51,4.57-21.52,4.34-23.89h3.64ZM172.37,136.59c-.75-.22-.97,1.37-1.07,1.81-.43,1.87-.5,4.16-1.05,6.07h3.63s-1.52-7.88-1.52-7.88Z"/>
      <path class="cls-3" d="M274.48,129.02v3.03h-6.36c.09.29-.3.65-.3.76v6.21h5.61c.67,0,.43,2.54.45,3.03h-5.76s-.3.72-.3.76v6.06l.45.45h6.51c-.16.9.45,3.17-.5,3.59-1.23.55-8.3-.11-10.11-.26v-23.18l.45-.45h9.85Z"/>
      <path class="cls-3" d="M216.46,129.02c3.06.59,3.8,6.72,3.41,9.16-.71,4.45-4.18,5.43-8.1,5.38v9.09c0,.17-3.33.17-3.33,0v-23.63c2.37.32,5.81-.43,8.03,0ZM211.76,132.2v7.57c6.76,3.02,6.78-10.57,0-7.57Z"/>
      <path class="cls-3" d="M113.75,129.02c.64.28.67,2.53.17,2.9-.7.16-4.26.05-4.26.74v19.84c0,.67-3.33.67-3.33,0v-19.69c0-1.36-3.31-.55-4.24-.76v-3.03c1.63,0,11.05-.27,11.67,0Z"/>
      <path class="cls-3" d="M239.63,129.02c.14-.5,3.64-1.3,3.64.15v23.33c0,.84-3.64.34-3.64.15v-23.63Z"/>
      <path class="cls-3" d="M292.65,133.56c.27.22-2.33,5.37-2.12,6.36.54-1.37,2.6.46,2.86,1.23.6,1.79.48,6.44-1.77,7-8,2-3.32-11.1-1.26-14.3.31-.4,2.17-.38,2.28-.29ZM290.82,141.14c-2.24-.5-1.67,4.86-1,5.15,1.96.87,1.39-4.79,1-5.15Z"/>
      <path class="cls-3" d="M88.06,133.95c.38.27,1.29,2.54,1.32,3.1.07,1.23-2.95,10.56-3.7,11.01-.37.22-1.55-.06-2.08.04l2.12-5.9c-3.89.93-3.52-6.56-2.44-8.12.51-.73,3.97-.7,4.77-.13ZM86.63,135.68c-2.62-1.04-2.71,5.59,0,4.54v-4.54Z"/>
      <path class="cls-3" d="M300.83,133.56c.39.36-3.24,9.81-2.72,10.3.12.11,1.43.06,1.68-.28.69-.92-1-4.9,1.75-3.61.96.45.31,2.73.51,3.67.06.27.8.22.84,1.27s-1.72,4.41-2.98,3.19c-.67-.64,1.44-3.43-4.24-2.42.04-.65-.09-1.34-.01-1.98.08-.73,2.5-9.36,2.79-9.78.22-.3,2.22-.5,2.37-.36Z"/>
      <path class="cls-3" d="M78.45,133.56v14.54h-2.42v-11.82l-2.12.91c-.55-2.76,2.26-3.78,4.54-3.64Z"/>
      <path class="cls-2" d="M194.7,314.84c28.78,2.91,47.2,34.07,38.1,61.69-11.8,35.81-61.02,42.99-82.34,12.38-24.16-34.71,3.61-78.17,44.24-74.06ZM175.59,321.22c-2.73-.68-8.71,2.81-11.17,4.42-1.23.8-8.12,6.37-8.26,7.29-.22.62.49.97.48,1.64-.04,3.63,1.02,13.95.09,16.49-.23.63-6.98,8.31-8.04,9.54-2.73,3.19-3.55,1.43-2.97,6.7.61,5.6,3.28,11.08,5.48,16.18l1.78-.72-2.72-5.31c1.39-.34.7.67,1.2,1.29,5.07,6.29,8.02,4.78,14.93,6.91s6.9,9.36,11.22,13.22c1.1.98,5.68,2.15,7.19,2.82-2.53,1.4-6.93-2.96-6.36,1.81,4.88.58,9.93,1.43,15.02.93.52-.05.43-.58.65-.62.6-.09,4.18-.16,4.33-.31.13-.13.01-2.21-.51-2.44-.41-.18-4.89,1.62-5.85.62,1.53-.73,6.05-1.81,7.19-2.82,1.79-1.6,6.4-11.45,8.07-12.21,5.57-2.01,12.08-1.73,16.31-5.88.35-.35,2.79-4.06,2.97-3.17l-2.73,5.15,1.79.72c1.91-3.88,6.98-16.57,5.5-20.38-.15-.39-1.11-.2-1.45-.58-1.41-1.59-8.93-10-9.46-11.07-1.18-2.4-.06-13.35-.03-16.88,0-.61.46-.96.64-1.48-5.17-5.29-11.17-9.97-18.31-12.16-5.05,1.47-9.81,4.49-14.9,5.35-3.66-1.05-8.61-4.18-12.07-5.05Z"/>
      <path class="cls-2" d="M176.62,413.51c7.84,1.34,15.54,1.43,23.63,0v27.57l-9.92,6.04c-5.28.97-9.28-4.11-13.71-6.04v-27.57Z"/>
      <path class="cls-2" d="M136.62,375.64s.66.03.91,0c2.92,12.97,12.02,24.08,23.03,31.06v23.48l-1.57-.33-22.36-14.67v-39.54Z"/>
      <path class="cls-2" d="M240.24,375.64v39.54l-19.64,12.85-4.3,2.14v-23.48c11.06-7.1,19.99-18.01,23.03-31.06h.91Z"/>
      <polygon class="cls-2" points="185.25 199.31 185.4 199.46 185.25 199.61 185.25 199.31"/>
      <path class="cls-2" d="M36.64,177.49c.18.05,2.52,2.38,2.61,2.54,2.23,3.89,1.9,15.64-4.58,15.64h-4.85l-.45-.45v-17.72c1.98.33,5.52-.45,7.27,0Z"/>
      <path class="cls-2" d="M337.5,178.4c4.38-1.31,9.95.32,10.62,5.29.81,6.04.73,27.19-.04,33.31-.23,1.8-1.77,4.94-3.37,5.73-.29.14-1.93.81-2.06.81h-4.85c.09-.29-.3-.65-.3-.76v-44.39Z"/>
      <path class="cls-2" d="M251.97,177.59c.7.29,2.67,3.03,2.82,3.99.78,4.85.79,33.68,0,38.5-.14.82-1.56,2.99-2.24,3.36-3.52,1.91-8.62.33-9.26-4-.99-6.73-.78-29.59-.02-36.63.46-4.26,4.51-6.92,8.69-5.21Z"/>
      <path class="cls-2" d="M151.17,267.32c.39-1.56,4.99.33,5.36,1.75,1.12,4.2-.04,9.36-5.36,8.1.44-2.67-.6-7.46,0-9.85Z"/>
      <path class="cls-2" d="M151.17,253.54c7.72-1.45,7.43,10.29,0,9.09v-9.09Z"/>
      <path class="cls-2" d="M296.59,267.32c.05-.2.27-.47.36-.7,3.99.48,5.43,1.08,5.41,5.55-.02,4.11-1.8,5.54-5.77,4.99.45-2.6-.61-7.56,0-9.85Z"/>
      <path class="cls-2" d="M296.59,253.54c8.08-1.68,7.6,10.47,0,9.09v-9.09Z"/>
      <path class="cls-2" d="M96.51,253.96c.07.04,1.04,1.06,1.09,1.17.87,1.94.87,18.83,0,20.75-1.1,2.41-5.54,1.8-6.11-1.01-.43-2.14-.38-16.69-.04-19.08.29-2.02,3.32-2.69,5.05-1.84Z"/>
      <path class="cls-2" d="M118.05,253.93c.1.06,1.3,1.75,1.32,1.87.38,2.03.35,16.68,0,18.81-.52,3.11-5.21,3.76-6.27,1.56-.66-1.38-.65-19.58-.03-21.2.59-1.54,3.68-1.78,4.98-1.03Z"/>
      <polygon class="cls-2" points="171.16 270.2 173.43 260.2 175.71 270.2 171.16 270.2"/>
      <path class="cls-2" d="M227.21,132.05c3.71-.86,5.22.75,4.86,4.41-.4,4.09-4.86,2.91-4.86,2.41v-6.82Z"/>
      <path class="cls-2" d="M251.75,132.05c.93-.25,3.35.17,3.86.98,1.04,1.63,1.02,13.47.08,15.17-.39.7-3.09,1.47-3.94,1.12v-17.27Z"/>
      <path class="cls-2" d="M121.17,136.59l1.21,7.88c-.57-.1-3.16.14-3.33,0-.28-.24,1.1-6.53,1.37-7.28.18-.51.02-.72.75-.6Z"/>
      <path class="cls-2" d="M172.37,136.59l1.52,7.88h-3.63c.55-1.92.61-4.2,1.05-6.07.1-.44.32-2.02,1.07-1.81Z"/>
      <path class="cls-2" d="M211.76,132.2c6.78-2.99,6.76,10.59,0,7.57v-7.57Z"/>
      <path class="cls-2" d="M290.82,141.14c.39.36.96,6.02-1,5.15-.68-.3-1.24-5.66,1-5.15Z"/>
      <path class="cls-2" d="M86.63,135.68v4.54c-2.71,1.04-2.62-5.58,0-4.54Z"/>
      <path class="cls-4" d="M175.59,321.22c3.46.86,8.41,4,12.07,5.05,5.1-.86,9.85-3.88,14.9-5.35,7.13,2.19,13.14,6.87,18.31,12.16-.18.52-.64.88-.64,1.48-.03,3.53-1.14,14.49.03,16.88.53,1.07,8.04,9.48,9.46,11.07.34.38,1.3.18,1.45.58,1.47,3.81-3.6,16.49-5.5,20.38l-1.79-.72,2.73-5.15c-.18-.88-2.62,2.83-2.97,3.17-4.23,4.15-10.74,3.87-16.31,5.88-1.67.77-6.28,10.61-8.07,12.21-1.13,1.01-5.66,2.09-7.19,2.82.95.99,5.44-.8,5.85-.62.52.23.64,2.3.51,2.44-.15.15-3.73.22-4.33.31-.22.03-.13.57-.65.62-5.08.5-10.14-.36-15.02-.93-.57-4.77,3.83-.41,6.36-1.81-1.51-.67-6.09-1.83-7.19-2.82-4.33-3.86-4.09-11.02-11.22-13.22s-9.85-.62-14.93-6.91c-.5-.62.19-1.63-1.2-1.29l2.72,5.31-1.78.72c-2.2-5.1-4.86-10.58-5.48-16.18-.58-5.27.24-3.52,2.97-6.7,1.06-1.23,7.81-8.9,8.04-9.54.93-2.54-.13-12.86-.09-16.49,0-.67-.7-1.01-.48-1.64.15-.91,7.03-6.48,8.26-7.29,2.46-1.61,8.44-5.11,11.17-4.42ZM172.07,324.13c-4.74.67-10.11,4.11-11.51,8.78,2.97-2.48,5.65-5.3,9.02-7.25.68-.39,2.48-.14,2.49-1.53ZM189.94,330.8v-.91c-.64-.14-.24,1.27,0,.91ZM191.04,341.23c-2.06-3.35-.91-5.69-1.9-8.56-1.49-4.3-2.31,7.58-2.55,8.2l-14.7,10.83c-2.62-.9-5.74-1.08-8.6-1.51-.11.52,1.34,1.25,1.76,1.49,1.25.71,5.72,2.26,6.39,3.24s5.46,15.73,5.39,16.6c-.11,1.33-4.31,7.75-3.84,8.37.77.26.78-.25,1.01-.39,1.26-.76,5.06-6.26,6.49-6.56,1.63-.35,13.55-.32,15.41-.05,2.36.35,5.35,6.38,7.99,6.99.46-.61-3.72-7.06-3.87-8.39-.09-.87,4.73-15.62,5.42-16.57.83-1.14,5-2.45,6.39-3.24.42-.24,1.87-.97,1.76-1.49-2.89.47-6.21.55-8.77,1.5-2.82-3.25-11.86-7.38-13.76-10.46ZM193.39,338.88c-1.06-1.59-1.66-5.07-2.68-6.87l-.45-.3c-.22.31,1.03,6.79,1.32,7.46.59,1.36,7.01,5.15,8.37,6.47l-3.63-4.3c-.67-.97-2.33-1.58-2.92-2.46ZM160.41,333.22v.3l.15-.15-.15-.15ZM200.85,345.64c-1.04-.71-.39,1.56.31.9.03-.03-.27-.88-.31-.9ZM218.08,351.14c-.4-.11-.84-.11-1.24-.02s-6.65,3.27-7.26,3.64c-.78.48-2.33,1.42-2.76,2.18-.4.71-4.45,13.27-4.48,14-.09,2.8,4.61,6.78,3.8,9.83-1.44,5.42-9.05-5.04-10.1-5.31-1.63-.42-14.33-.3-15.67.29-1.24.55-6.27,6.62-8.08,7.67-1.18.49-10.72-4.36-12.41-5.37-1.84-1.1-5.05-3.33-6.77-4.66-.71-.55-3.81-3.98-4.07-4.11-.12-.06-.63-.1-.6.15.02.35.11.69.19,1.03.24.99,6.72,9.75,7.6,10.34,2.88,1.94,11.36,2.19,14.52,4.04,2.6,1.52,5.93,9.89,8.47,12.29,1.76,1.66,6.54,2.01,8.53,3.64h1.37c2.42-1.66,6.17-1.87,8.5-3.66,2.48-1.91,5.13-9.2,7.57-11.38,3.27-2.92,11.69-2.63,15.44-4.92s9.68-11.53,8.5-15.99c-.21-.79-9.24-10.72-10.6-12.3-.3-.35-.21-.97-.45-1.37Z"/>
      <path class="cls-1" d="M218.08,351.14c.24.4.15,1.02.45,1.37,1.36,1.58,10.39,11.52,10.6,12.3,1.18,4.45-4.79,13.72-8.5,15.99s-12.18,2-15.44,4.92c-2.44,2.18-5.09,9.47-7.57,11.38-2.33,1.79-6.08,2-8.5,3.66h-1.37c-1.98-1.63-6.77-1.98-8.53-3.64-2.55-2.4-5.87-10.77-8.47-12.29-3.17-1.85-11.64-2.1-14.52-4.04-.88-.59-7.37-9.35-7.6-10.34-.08-.34-.18-.68-.19-1.03-.02-.26.49-.21.6-.15.26.12,3.37,3.56,4.07,4.11,1.72,1.33,4.93,3.56,6.77,4.66,1.68,1.01,11.23,5.86,12.41,5.37,1.81-1.04,6.84-7.12,8.08-7.67,1.34-.59,14.04-.71,15.67-.29,1.05.27,8.66,10.73,10.1,5.31.81-3.06-3.89-7.03-3.8-9.83.02-.73,4.07-13.3,4.48-14,.43-.76,1.99-1.69,2.76-2.18.61-.38,6.86-3.56,7.26-3.64s.85-.08,1.24.02ZM216,353.52c-1.34.6-6.94,2.98-7.56,3.86-1.39,1.95-1.91,7.37-3.04,9.77.77.18.54-.21.79-.56,1.48-2.06,2.73-6.15,4.18-8.11,1.19-1.62,4.48-3.11,5.64-4.95ZM192.67,376.55h-10.6c-.61,0-7.41,7.7-8.81,8.39l5.02,8.58c.78.11.37-.46.25-.86-.41-1.36-2.72-4.96-2.83-5.99-.13-1.19,5.84-8.06,6.59-8.29,1.31-.4,4.42-.12,5.92-.33.21-.03.23-.54.44-.58,1.1-.18,3.92.56,4.02-.92ZM179.04,394.42s.02-.58,0-.6c-.39-.39-.39.99,0,.6Z"/>
      <path class="cls-2" d="M191.04,341.23c1.9,3.09,10.94,7.21,13.76,10.46,2.57-.96,5.89-1.03,8.77-1.5.11.52-1.34,1.25-1.76,1.49-1.38.79-5.56,2.09-6.39,3.24-.69.95-5.51,15.7-5.42,16.57.15,1.33,4.32,7.79,3.87,8.39-2.64-.61-5.63-6.64-7.99-6.99-1.86-.27-13.78-.3-15.41.05-1.42.3-5.23,5.8-6.49,6.56-.23.14-.25.64-1.01.39-.47-.62,3.73-7.04,3.84-8.37.07-.87-4.74-15.65-5.39-16.6s-5.14-2.53-6.39-3.24c-.42-.24-1.87-.97-1.76-1.49,2.86.43,5.98.61,8.6,1.51l14.7-10.83c.24-.63,1.06-12.5,2.55-8.2,1,2.87-.15,5.22,1.9,8.56Z"/>
      <path class="cls-1" d="M193.39,338.88c.59.88,2.25,1.49,2.92,2.46l3.63,4.3c-1.36-1.32-7.79-5.11-8.37-6.47-.29-.67-1.54-7.16-1.32-7.46l.45.3c1.03,1.8,1.62,5.28,2.68,6.87Z"/>
      <path class="cls-2" d="M172.07,324.13c0,1.39-1.81,1.14-2.49,1.53-3.37,1.95-6.05,4.77-9.02,7.25,1.4-4.67,6.77-8.12,11.51-8.78Z"/>
      <path class="cls-1" d="M200.85,345.64s.34.87.31.9c-.7.65-1.34-1.61-.31-.9Z"/>
      <path class="cls-1" d="M189.94,330.8c-.24.37-.64-1.04,0-.91v.91Z"/>
      <polygon class="cls-2" points="160.41 333.22 160.56 333.37 160.41 333.52 160.41 333.22"/>
      <path class="cls-4" d="M192.67,376.55c-.1,1.48-2.92.75-4.02.92-.21.03-.23.55-.44.58-1.49.21-4.6-.07-5.92.33-.75.23-6.72,7.1-6.59,8.29.11,1.03,2.42,4.63,2.83,5.99.12.4.53.97-.25.86l-5.02-8.58c1.4-.69,8.2-8.39,8.81-8.39h10.6Z"/>
      <path class="cls-4" d="M216,353.52c-1.16,1.84-4.44,3.33-5.64,4.95-1.44,1.96-2.69,6.05-4.18,8.11-.25.35-.02.74-.79.56,1.13-2.39,1.65-7.82,3.04-9.77.63-.88,6.22-3.26,7.56-3.86Z"/>
      <path class="cls-4" d="M179.04,394.42c-.39.39-.39-.99,0-.6.02.02.02.58,0,.6Z"/>
    </g>
  </g>
</svg>