<?xml version="1.0" encoding="UTF-8"?>
<svg id="Layer_2" data-name="Layer 2" xmlns="http://www.w3.org/2000/svg" viewBox="0 0 928.93 496.32">
  <defs>
    <style>
      .cls-1 {
        fill: #050303;
      }

      .cls-2 {
        fill: #f5f5f4;
      }
    </style>
  </defs>
  <g id="Layer_1-2" data-name="Layer 1">
    <g>
      <path class="cls-1" d="M1.23,496.32c-4.33-1.5,4.09-11.97,5.57-14.2,55.28-82.75,118.63-160.75,173.63-243.82,19.31-18.03,85.36-8.12,108.8-24.97,53.77-66.28,109.55-131.37,163.11-197.46,8.3-10.23,10.33-24.88,23.61-8.56l208.87,236.37c12.96,12.54,31.6-17.69,42.84-9.8,67.23,85.79,133.26,171.93,200.76,256.71,1.06,2.01.51,5.73-2.2,5.73H1.23ZM461.72,64.32l-183.99,236.99,91.49-41.12,31.72,40.89,3.78.23,57-237ZM264.72,245.32c-17.14,3.13-37.74,3.82-54.4,8.08-2.36.6-5.8,1.83-7.66,3.34-23.43,34.86-50.07,67.81-73.23,102.83-1.17,1.77-8.66,12.67-7.7,13.73l142.99-127.99ZM719.72,271.33l-211,86.99c16.68-1.03,33.26-5.89,49.76-8.74,30.12-5.2,60.72-9.15,90.81-15.08,13.65,8.77,26.25,20.43,39.9,29.82l30.52-93Z"/>
      <polygon class="cls-2" points="461.72 64.32 404.72 301.33 400.94 301.09 369.22 260.2 277.73 301.31 461.72 64.32"/>
      <path class="cls-2" d="M719.72,271.33l-30.52,93c-13.65-9.4-26.25-21.05-39.9-29.82-30.09,5.93-60.69,9.88-90.81,15.08-16.51,2.85-33.09,7.71-49.76,8.74l211-86.99Z"/>
      <path class="cls-2" d="M264.72,245.32l-142.99,127.99c-.96-1.06,6.53-11.96,7.7-13.73,23.16-35.03,49.8-67.97,73.23-102.83,1.86-1.52,5.3-2.74,7.66-3.34,16.66-4.26,37.26-4.95,54.4-8.08Z"/>
    </g>
  </g>
</svg>