<?xml version="1.0" encoding="UTF-8"?>
<svg id="Layer_2" data-name="Layer 2" xmlns="http://www.w3.org/2000/svg" viewBox="0 0 503.1 687.22">
  <defs>
    <style>
      .cls-1 {
        fill: #050303;
      }
    </style>
  </defs>
  <g id="Layer_1-2" data-name="Layer 1">
    <path class="cls-1" d="M496.68,533.22c-3.21,5.7-10.38,10.98-15.72,14.76-18.37,13-39.46,24.69-58.52,36.99-50.04,32.29-101.81,65.39-152.86,97.63-22.28,11.16-34.55-.1-51.92-10.63-56.05-33.97-110.37-69.39-165.41-105.32-11.74-7.66-40.5-22.18-46.49-34.33-4.62-9.37-3.57-20.2-5.75-30.22V19.02C1.18,15.96.38,4.13,1.98,3.01c7.43.07,15.28-1.24,22.52-1.48,107.62-3.57,219.02.28,327.1.1,44.81-.08,91.14-2.51,135.99-.09,2.06.11,13.56,1.3,14.02,1.98l1.48,13.52v492.09c-2.16,8.22-2.23,16.66-6.42,24.1ZM478.05,26.57l-6.43-2.07H31.48s-7.43,2.07-7.43,2.07v489c0,.09,1.36-.24,1.69.25.74,1.1.43,3.32,1.3,5.05,2.74,5.43,25.96,17.79,32.17,21.82,58.79,38.16,119.05,76.78,179.06,113.95,2.04,1.26,4.99,4.66,7.73,5.49,9.74,2.96,12.05-1.37,18.7-5.41,29.96-18.19,59.25-37.96,88.73-56.74,35.25-22.45,70.97-43.93,104.78-66.73,4.77-3.21,14.21-8.02,17.22-12.74.25-.4,2.61-5.12,2.61-5.43V26.57Z"/>
  </g>
</svg>