<?xml version="1.0" encoding="UTF-8"?>
<svg id="Layer_2" data-name="Layer 2" xmlns="http://www.w3.org/2000/svg" viewBox="0 0 838 649.42">
  <defs>
    <style>
      .cls-1 {
        fill: #0b0202;
      }
    </style>
  </defs>
  <g id="Layer_1-2" data-name="Layer 1">
    <g>
      <path class="cls-1" d="M449.42,634.62c-10.23,8.87-22.39,16.78-36.69,14.35-8.78-1.49-30.97-15.92-31.75-26.25l-.03-615.07c.04-2.56.51-5.96,3.55-6.45,18.72-.66,37.37.58,56.04,1.05,5.69.14,13.87-4.42,16.42,3.49l1.07,616c-1.08,9.61-2.98,7.99-8.62,12.88Z"/>
      <path class="cls-1" d="M584,1.2l.97,540.47-1.28,7.24c-23.71,16.88-48.68,33.1-74.18,47.3L508.5,1.2h75.5Z"/>
      <path class="cls-1" d="M330,593.7c-.63,1.79-3.3,1.75-4.75.8l-70.33-43.72-.82-545.02c.3-4.35,2.76-4.22,6.36-4.6,12.32-1.27,53.59-1.8,65.09-.01,1.34.21,4.45,1.27,4.45,2.55v590Z"/>
      <path class="cls-1" d="M709.5,1.2c1.55.54,2.77,4.73,2.55,6.45l-.14,453.96c-1.34,6.5-2.41,8.69-7.44,12.56-10.19,7.83-52.57,34.68-63.58,39.42-1.75.75-3.36,1.71-5.37,1.63V1.2s73.99,0,73.99,0Z"/>
      <polygon class="cls-1" points="203 513.2 195.72 510.93 128 468.7 128 2.7 129.5 1.2 201.5 1.2 203 2.7 203 513.2"/>
      <path class="cls-1" d="M77,2.2v430c0,3.11-9.75-2.24-10.72-2.73-8.11-4.06-60.63-37.97-63.21-43.06-.22-.43-3.07-8.25-3.07-8.71V3.2c.97.3,2.15-1,2.5-1h74.5Z"/>
      <path class="cls-1" d="M836,2.2l2,2v366.5c0,4.39-3.34,15.72-6.33,19.18l-65.74,42.84c-.83.77-4.93-.27-4.93-.52V2.2h75Z"/>
    </g>
  </g>
</svg>